# Blender v2.78 (sub 0) OBJ File: ''
# www.blender.org
mtllib tris.mtl
o mat-tex.002
v 1.402062 11.065284 2.841021
v 1.203918 12.089903 4.201226
v 0.195287 11.132080 4.450919
v 0.333849 10.415565 3.499724
v 0.591056 10.362827 1.503830
v -0.233288 9.924332 2.564626
v -0.919322 10.250838 0.700415
v -1.289495 9.846021 2.002797
v -2.552160 10.772099 0.737654
v -2.431341 10.210541 2.028839
v -3.683768 11.727505 1.601323
v -3.222673 10.878655 2.632802
v -3.881912 12.752121 2.961526
v -3.361238 11.595169 3.583996
v -3.070906 13.454578 4.298719
v -2.794099 12.086400 4.519093
v -1.560528 13.566566 5.102133
v -1.737893 12.164708 5.080924
v 0.072311 13.045307 5.064893
v -0.596047 11.800193 5.054881
v 1.378769 12.666840 3.792101
v 0.247159 13.622244 4.655767
v 1.576911 11.642224 2.431894
v 0.765904 10.939763 1.094705
v -0.744474 10.827777 0.291291
v -2.377311 11.349037 0.328529
v -3.508919 12.304442 1.192196
v -3.707061 13.329059 2.552401
v -2.896057 14.031518 3.889593
v -1.385678 14.143505 4.693007
v 0.212456 13.851753 4.173092
v 0.039418 13.442303 4.313251
v 0.991884 12.638149 3.586309
v 1.222154 12.999277 3.402469
v 1.158658 11.775738 2.441437
v 1.398951 12.085046 2.188801
v 0.476042 11.184483 1.315937
v 0.675316 11.458261 0.995669
v -0.795229 11.090225 0.639711
v -0.672346 11.358339 0.278807
v -2.169574 11.528966 0.671055
v -2.129275 11.823444 0.312033
v -3.122038 12.333120 1.397995
v -3.138974 12.675921 1.082657
v -3.288814 13.195532 2.542869
v -3.315771 13.590153 2.296325
v -2.606198 13.786785 3.668368
v -2.592136 14.216938 3.489457
v -1.334927 13.881042 4.344595
v -1.244475 14.316859 4.206320
v 3.122040 19.666882 -1.397998
v 3.138975 19.324081 -1.082657
v 3.315771 18.409849 -2.296327
v 3.288814 18.804470 -2.542868
v 2.592138 17.783068 -3.489460
v 2.606198 18.213217 -3.668370
v 1.244474 17.683144 -4.206319
v 1.334926 18.118958 -4.344595
v -0.212455 18.148249 -4.173094
v -0.039418 18.557699 -4.313251
v -1.222153 19.000727 -3.402471
v -0.991883 19.361855 -3.586311
v -1.398950 19.914957 -2.188802
v -1.158658 20.224264 -2.441438
v -0.675316 20.541739 -0.995668
v -0.476042 20.815519 -1.315937
v 0.672346 20.641663 -0.278808
v 0.795229 20.909779 -0.639713
v 2.129275 20.176558 -0.312036
v 2.169574 20.471037 -0.671054
v 1.170865 17.014156 1.930528
v 2.180564 16.161680 1.159905
v 2.357360 15.247446 -0.053762
v 1.633727 14.620665 -1.246896
v 0.286064 14.520742 -1.963756
v -1.170865 14.985847 -1.930529
v -2.180565 15.838324 -1.159906
v -2.357360 16.752556 0.053761
v -1.633726 17.379339 1.246895
v -0.286064 17.479259 1.963754
v 1.661272 12.510707 1.419924
v 1.222598 12.130746 0.696636
v 0.590508 12.449833 0.254532
v 1.514617 13.250259 1.778207
v -2.864566 14.295408 1.380506
v -3.178852 14.481838 2.131028
v -2.740177 14.861799 2.854316
v -1.940456 15.095833 2.904183
v 1.335494 11.435759 2.182205
v 0.896820 11.055799 1.458918
v 0.180914 11.098326 1.212930
v 1.105023 11.898751 2.736608
v -3.274160 12.943900 2.338905
v -3.504628 13.406891 2.893308
v -3.065956 13.786851 3.616596
v -2.350049 13.744325 3.862584
v 3.070906 18.545422 -4.298720
v 1.560527 18.433437 -5.102133
v 1.737892 19.835291 -5.080924
v 2.794099 19.913603 -4.519093
v 3.881912 19.247881 -2.961529
v 3.361238 20.404835 -3.583997
v 3.683770 20.272499 -1.601323
v 3.222676 21.121349 -2.632804
v 2.552161 21.227901 -0.737655
v 2.431341 21.789463 -2.028841
v 0.919323 21.749165 -0.700416
v 1.289497 22.153980 -2.002799
v -0.591055 21.637177 -1.503831
v 0.233288 22.075670 -2.564626
v -1.402061 20.934719 -2.841022
v -0.333849 21.584438 -3.499726
v -1.203916 19.910101 -4.201225
v -0.195286 20.867926 -4.450918
v -0.072310 18.954695 -5.064893
v 0.596047 20.199810 -5.054882
v 1.385679 17.856499 -4.693007
v -0.247159 18.377758 -4.655769
v 2.896056 17.968483 -3.889593
v 3.707062 18.670944 -2.552403
v 3.508921 19.695560 -1.192198
v 2.377312 20.650967 -0.328530
v 0.744474 21.172226 -0.291291
v -0.765904 21.060238 -1.094706
v -1.576909 20.357780 -2.431895
v -1.378767 19.333164 -3.792102
v 2.740178 17.138203 -2.854317
v 3.178853 17.518164 -2.131030
v 2.864566 17.704594 -1.380509
v 1.940456 16.904169 -2.904184
v -0.590507 19.550169 -0.254534
v -1.222597 19.869259 -0.696639
v -1.661270 19.489294 -1.419924
v -1.514617 18.749743 -1.778208
v 3.065956 18.213152 -3.616597
v 3.504630 18.593111 -2.893311
v 3.274160 19.056103 -2.338909
v 2.350049 18.255678 -3.862583
v -0.180914 20.901676 -1.212931
v -0.896818 20.944206 -1.458919
v -1.335493 20.564243 -2.182206
v -1.105022 20.101252 -2.736608
vt 0.4776 0.3326
vt 0.5699 0.4525
vt 0.6332 0.3633
vt 0.5836 0.2971
vt 0.4776 0.1799
vt 0.5836 0.2154
vt 0.5699 0.0600
vt 0.6332 0.1492
vt 0.7122 0.0154
vt 0.7122 0.1246
vt 0.8546 0.0600
vt 0.7913 0.1492
vt 0.9469 0.1799
vt 0.8408 0.2154
vt 0.9469 0.3326
vt 0.8408 0.2971
vt 0.8546 0.4525
vt 0.7913 0.3633
vt 0.7122 0.4970
vt 0.7122 0.3879
vt 0.4187 0.4030
vt 0.4187 0.5001
vt 0.4606 0.4991
vt 0.4606 0.4034
vt 0.4187 0.3058
vt 0.4606 0.3062
vt 0.4187 0.2087
vt 0.4606 0.2091
vt 0.4187 0.1115
vt 0.4606 0.1120
vt 0.4187 0.0144
vt 0.4606 0.0148
vt 0.4187 0.8883
vt 0.4187 0.9854
vt 0.4606 0.9858
vt 0.4606 0.8887
vt 0.4187 0.7911
vt 0.4606 0.7916
vt 0.4187 0.6940
vt 0.4606 0.6944
vt 0.4187 0.5968
vt 0.4606 0.5973
vt 0.4606 0.5001
vt 0.7593 0.5087
vt 0.8446 0.4812
vt 0.9297 0.5090
vt 0.9823 0.5816
vt 0.9821 0.6713
vt 0.9293 0.7437
vt 0.8440 0.7712
vt 0.7588 0.7433
vt 0.7063 0.6707
vt 0.7064 0.5811
vt 0.0342 0.9852
vt 0.0126 0.9853
vt 0.0126 0.8859
vt 0.0342 0.8858
vt 0.0126 0.7865
vt 0.0342 0.7864
vt 0.0126 0.6872
vt 0.0342 0.6871
vt 0.0126 0.5881
vt 0.0342 0.5880
vt 0.0126 0.4891
vt 0.0342 0.4890
vt 0.0342 0.4876
vt 0.0126 0.4875
vt 0.0126 0.5864
vt 0.0342 0.5865
vt 0.0126 0.6852
vt 0.0342 0.6854
vt 0.0126 0.7833
vt 0.0342 0.7844
vt 0.0126 0.8840
vt 0.0342 0.8840
vt 0.0126 0.9833
vt 0.0342 0.9834
vt 0.4036 0.8851
vt 0.3819 0.8852
vt 0.3819 0.7859
vt 0.4036 0.7858
vt 0.3819 0.6867
vt 0.4036 0.6866
vt 0.3819 0.5877
vt 0.4036 0.5875
vt 0.3819 0.4887
vt 0.4036 0.4885
vt 0.3819 0.5877
vt 0.4036 0.5875
vt 0.3819 0.6857
vt 0.4036 0.6866
vt 0.3819 0.7848
vt 0.4036 0.7836
vt 0.3819 0.8852
vt 0.4036 0.8851
vt 0.3819 0.9839
vt 0.4036 0.9841
vt 0.2080 0.9850
vt 0.2080 0.8856
vt 0.2080 0.7863
vt 0.2080 0.6871
vt 0.2080 0.5879
vt 0.2080 0.4889
vt 0.2080 0.4877
vt 0.2080 0.5867
vt 0.2080 0.6857
vt 0.2080 0.7847
vt 0.2080 0.8840
vt 0.2080 0.9835
vt 0.2629 0.0925
vt 0.1698 0.0925
vt 0.1295 0.0415
vt 0.3032 0.0415
vt 0.3032 0.0415
vt 0.2629 0.0925
vt 0.1698 0.0925
vt 0.1295 0.0415
vt 0.2707 0.2201
vt 0.1620 0.2201
vt 0.0942 0.1899
vt 0.3385 0.1899
vt 0.3385 0.1899
vt 0.2707 0.2201
vt 0.1620 0.2201
vt 0.0942 0.1899
vt 0.4776 0.1799
vt 0.5699 0.0600
vt 0.6332 0.1492
vt 0.5836 0.2154
vt 0.4776 0.3326
vt 0.5836 0.2971
vt 0.5699 0.4525
vt 0.6332 0.3633
vt 0.7122 0.4970
vt 0.7122 0.3879
vt 0.8546 0.4525
vt 0.7913 0.3633
vt 0.9469 0.3326
vt 0.8408 0.2971
vt 0.9469 0.1799
vt 0.8408 0.2154
vt 0.8546 0.0600
vt 0.7913 0.1492
vt 0.7122 0.0154
vt 0.7122 0.1246
vt 0.4187 0.1115
vt 0.4187 0.0144
vt 0.4606 0.0148
vt 0.4606 0.1108
vt 0.4187 0.2087
vt 0.4606 0.2079
vt 0.4187 0.3058
vt 0.4606 0.3050
vt 0.4187 0.4030
vt 0.4606 0.4022
vt 0.4187 0.5001
vt 0.4606 0.4991
vt 0.4187 0.5968
vt 0.4606 0.5973
vt 0.4187 0.6940
vt 0.4606 0.6944
vt 0.4187 0.7911
vt 0.4606 0.7916
vt 0.4187 0.8883
vt 0.4606 0.8887
vt 0.4187 0.9854
vt 0.4606 0.9858
vt 0.5471 0.7235
vt 0.6324 0.6960
vt 0.7176 0.7238
vt 0.7701 0.7965
vt 0.7699 0.8861
vt 0.7171 0.9585
vt 0.6318 0.9860
vt 0.5466 0.9581
vt 0.4941 0.8855
vt 0.4943 0.7959
vt 0.1698 0.3695
vt 0.2629 0.3695
vt 0.3032 0.4205
vt 0.1295 0.4205
vt 0.1295 0.4205
vt 0.1698 0.3695
vt 0.2629 0.3695
vt 0.3032 0.4205
vt 0.1620 0.2419
vt 0.2707 0.2419
vt 0.3385 0.2721
vt 0.0942 0.2721
vt 0.0942 0.2721
vt 0.1620 0.2419
vt 0.2707 0.2419
vt 0.3385 0.2721
vt 0.7913 0.3633
vt 0.8408 0.2971
vt 0.6332 0.1492
vt 0.8408 0.2154
vt 0.7913 0.1492
vt 0.7122 0.1246
vt 0.5836 0.2154
vt 0.5836 0.2971
vt 0.6332 0.3633
vt 0.7122 0.3879
vt 0.7122 0.1246
vt 0.7913 0.1492
vt 0.6332 0.1492
vt 0.8408 0.2154
vt 0.8408 0.2971
vt 0.7913 0.3633
vt 0.5836 0.2154
vt 0.7122 0.3879
vt 0.5836 0.2971
vt 0.6332 0.3633
vn 0.8274 -0.5420 0.1468
vn 0.7656 -0.1920 0.6139
vn 0.2902 -0.6688 0.6844
vn 0.2939 -0.8611 0.4149
vn 0.5445 -0.7797 -0.3092
vn 0.1079 -0.9799 0.1679
vn 0.0249 -0.8142 -0.5800
vn -0.1739 -0.9786 -0.1099
vn -0.5329 -0.6325 -0.5621
vn -0.4124 -0.8659 0.2829
vn -0.9159 -0.3038 -0.2623
vn -0.6259 -0.7081 0.3268
vn -0.9777 0.0462 0.2048
vn -0.6991 -0.4761 0.5334
vn -0.6948 0.2838 0.6609
vn -0.5612 -0.2169 0.7987
vn -0.1751 0.3184 0.9316
vn -0.2196 -0.4486 0.8663
vn 0.3827 0.1366 0.9137
vn 0.0365 -0.5479 0.8357
vn 0.8646 0.3836 0.3245
vn 0.3539 0.8994 -0.2567
vn 0.9306 0.2516 -0.2657
vn 0.7385 0.0203 -0.6740
vn 0.3166 -0.0458 -0.9474
vn -0.1737 0.0785 -0.9817
vn -0.5453 0.3459 -0.7635
vn -0.6562 0.6540 -0.3764
vn -0.4640 0.8852 0.0318
vn -0.1275 0.8344 0.5362
vn 0.4289 0.2851 0.8572
vn 0.2898 0.1981 0.9364
vn 0.7219 -0.1128 0.6827
vn 0.8331 -0.0549 0.5504
vn 0.8509 -0.4711 0.2325
vn 0.9051 -0.4201 0.0661
vn 0.6274 -0.7401 -0.2423
vn 0.6173 -0.6710 -0.4107
vn 0.1368 -0.8169 -0.5603
vn 0.0798 -0.7118 -0.6979
vn -0.4335 -0.6723 -0.6001
vn -0.5022 -0.5268 -0.6858
vn -0.8656 -0.3615 -0.3464
vn -0.9063 -0.1868 -0.3790
vn -0.9946 -0.0031 0.1038
vn -0.9783 0.1784 0.1053
vn -0.7711 0.2659 0.5786
vn -0.6906 0.4293 0.5820
vn -0.2805 0.3427 0.8966
vn -0.1531 0.4701 0.8692
vn 0.9494 0.2367 0.2063
vn 0.8587 0.2490 0.4479
vn 0.9923 -0.1222 -0.0186
vn 0.9560 -0.1057 -0.2737
vn 0.7608 -0.4009 -0.5104
vn 0.6248 -0.3172 -0.7134
vn 0.2526 -0.4805 -0.8399
vn 0.0825 -0.3169 -0.9449
vn -0.3382 -0.3307 -0.8811
vn -0.4640 -0.1050 -0.8796
vn -0.7859 -0.0086 -0.6183
vn -0.8057 0.2375 -0.5426
vn -0.9195 0.3626 -0.1519
vn -0.8123 0.5799 -0.0626
vn -0.6879 0.6412 0.3400
vn -0.4811 0.7914 0.3772
vn -0.1797 0.7208 0.6694
vn 0.0613 0.7911 0.6086
vn 0.4111 0.5710 0.7106
vn 0.6077 0.5793 0.5433
vn 0.5616 0.3586 0.7457
vn 0.9198 -0.0004 0.3925
vn 0.9266 -0.3593 -0.1106
vn 0.5796 -0.5809 -0.5715
vn 0.0111 -0.5807 -0.8141
vn -0.5616 -0.3586 -0.7457
vn -0.9198 0.0004 -0.3925
vn -0.9266 0.3593 0.1106
vn -0.5796 0.5809 0.5715
vn -0.0111 0.5807 0.8141
vn 0.9783 0.0979 -0.1828
vn 0.7575 -0.3186 -0.5699
vn 0.5329 -0.1073 -0.8393
vn 0.9554 0.2586 -0.1428
vn -0.5575 0.7205 -0.4124
vn -0.8777 0.4104 -0.2473
vn -0.5788 0.8002 0.1570
vn -0.2748 0.8387 0.4702
vn 0.9428 -0.3279 -0.0595
vn 0.4678 -0.6012 -0.6479
vn 0.2254 -0.6081 -0.7612
vn 0.9220 -0.0048 0.3873
vn -0.9220 0.0048 -0.3873
vn -0.9428 0.3279 0.0595
vn -0.4678 0.6012 0.6479
vn -0.2254 0.6081 0.7612
vn 0.7092 -0.2788 -0.6476
vn 0.1946 -0.3209 -0.9269
vn 0.3246 0.1994 -0.9246
vn 0.5953 0.3862 -0.7046
vn 0.9815 -0.0355 -0.1881
vn 0.7208 0.5372 -0.4380
vn 0.9077 0.3161 0.2761
vn 0.6484 0.7384 -0.1852
vn 0.5158 0.6416 0.5677
vn 0.3520 0.8983 -0.2632
vn -0.0444 0.8168 0.5753
vn 0.0378 0.9963 0.0767
vn -0.5589 0.7746 0.2960
vn -0.1900 0.9511 -0.2436
vn -0.8312 0.5313 -0.1635
vn -0.3155 0.8000 -0.5103
vn -0.7574 0.1797 -0.6277
vn -0.2431 0.5988 -0.7631
vn -0.3655 -0.1458 -0.9193
vn 0.1009 0.5961 -0.7965
vn -0.0684 -0.8089 -0.5840
vn -0.4155 -0.8664 0.2768
vn 0.3383 -0.9294 -0.1478
vn 0.6230 -0.7475 0.2303
vn 0.6174 -0.4531 0.6431
vn 0.3235 -0.1586 0.9328
vn -0.1463 0.0236 0.9890
vn -0.6127 0.0238 0.7900
vn -0.8974 -0.1580 0.4119
vn -0.9475 -0.2601 -0.1859
vn 0.4382 -0.8545 -0.2789
vn 0.8427 -0.5362 0.0484
vn 0.7086 -0.5558 0.4348
vn 0.2861 -0.9217 -0.2618
vn -0.6037 -0.1002 0.7909
vn -0.5831 0.3699 0.7233
vn -0.9410 0.0115 0.3383
vn -0.9843 -0.1662 -0.0599
vn 0.6919 -0.5453 -0.4732
vn 0.9696 -0.1666 0.1795
vn -0.6919 0.5453 0.4732
vn -0.9696 0.1666 -0.1795
usemtl Material02
s 1
f 1/1/1 2/2/2 3/3/3
f 1/1/1 3/3/3 4/4/4
f 5/5/5 1/1/1 4/4/4
f 5/5/5 4/4/4 6/6/6
f 7/7/7 5/5/5 6/6/6
f 7/7/7 6/6/6 8/8/8
f 9/9/9 7/7/7 8/8/8
f 9/9/9 8/8/8 10/10/10
f 11/11/11 9/9/9 10/10/10
f 11/11/11 10/10/10 12/12/12
f 13/13/13 11/11/11 12/12/12
f 13/13/13 12/12/12 14/14/14
f 15/15/15 13/13/13 14/14/14
f 15/15/15 14/14/14 16/16/16
f 17/17/17 15/15/15 16/16/16
f 17/17/17 16/16/16 18/18/18
f 19/19/19 17/17/17 18/18/18
f 19/19/19 18/18/18 20/20/20
f 2/2/2 19/19/19 20/20/20
f 2/2/2 20/20/20 3/3/3
f 21/21/21 22/22/22 19/23/19
f 21/21/21 19/23/19 2/24/2
f 23/25/23 21/21/21 2/24/2
f 23/25/23 2/24/2 1/26/1
f 24/27/24 23/25/23 1/26/1
f 24/27/24 1/26/1 5/28/5
f 25/29/25 24/27/24 5/28/5
f 25/29/25 5/28/5 7/30/7
f 26/31/26 25/29/25 7/30/7
f 26/31/26 7/30/7 9/32/9
f 27/33/27 26/34/26 9/35/9
f 27/33/27 9/35/9 11/36/11
f 28/37/28 27/33/27 11/36/11
f 28/37/28 11/36/11 13/38/13
f 29/39/29 28/37/28 13/38/13
f 29/39/29 13/38/13 15/40/15
f 30/41/30 29/39/29 15/40/15
f 30/41/30 15/40/15 17/42/17
f 22/22/22 30/41/30 17/42/17
f 22/22/22 17/42/17 19/43/19
f 22/44/22 21/45/21 23/46/23
f 22/44/22 23/46/23 24/47/24
f 22/44/22 24/47/24 25/48/25
f 22/44/22 25/48/25 26/49/26
f 22/44/22 26/49/26 27/50/27
f 22/44/22 27/50/27 28/51/28
f 22/44/22 28/51/28 29/52/29
f 22/44/22 29/52/29 30/53/30
f 31/54/31 32/55/32 33/56/33
f 31/54/31 33/56/33 34/57/34
f 34/57/34 33/56/33 35/58/35
f 34/57/34 35/58/35 36/59/36
f 36/59/36 35/58/35 37/60/37
f 36/59/36 37/60/37 38/61/38
f 38/61/38 37/60/37 39/62/39
f 38/61/38 39/62/39 40/63/40
f 40/63/40 39/62/39 41/64/41
f 40/63/40 41/64/41 42/65/42
f 42/66/42 41/67/41 43/68/43
f 42/66/42 43/68/43 44/69/44
f 44/69/44 43/68/43 45/70/45
f 44/69/44 45/70/45 46/71/46
f 46/71/46 45/70/45 47/72/47
f 46/71/46 47/72/47 48/73/48
f 48/73/48 47/72/47 49/74/49
f 48/73/48 49/74/49 50/75/50
f 50/75/50 49/74/49 32/76/32
f 50/75/50 32/76/32 31/77/31
f 51/78/51 52/79/52 53/80/53
f 51/78/51 53/80/53 54/81/54
f 54/81/54 53/80/53 55/82/55
f 54/81/54 55/82/55 56/83/56
f 56/83/56 55/82/55 57/84/57
f 56/83/56 57/84/57 58/85/58
f 58/85/58 57/84/57 59/86/59
f 58/85/58 59/86/59 60/87/60
f 60/87/60 59/86/59 61/88/61
f 60/87/60 61/88/61 62/89/62
f 62/89/62 61/88/61 63/90/63
f 62/89/62 63/90/63 64/91/64
f 64/91/64 63/90/63 65/92/65
f 64/91/64 65/92/65 66/93/66
f 66/93/66 65/92/65 67/94/67
f 66/93/66 67/94/67 68/95/68
f 68/95/68 67/94/67 69/96/69
f 68/95/68 69/96/69 70/97/70
f 70/97/70 69/96/69 52/79/52
f 70/97/70 52/79/52 51/78/51
f 52/79/52 69/96/69 71/98/71
f 52/79/52 71/98/71 72/99/72
f 53/80/53 52/79/52 72/99/72
f 53/80/53 72/99/72 73/100/73
f 55/82/55 53/80/53 73/100/73
f 55/82/55 73/100/73 74/101/74
f 57/84/57 55/82/55 74/101/74
f 57/84/57 74/101/74 75/102/75
f 59/86/59 57/84/57 75/102/75
f 59/86/59 75/102/75 76/103/76
f 61/88/61 59/86/59 76/104/76
f 61/88/61 76/104/76 77/105/77
f 63/90/63 61/88/61 77/105/77
f 63/90/63 77/105/77 78/106/78
f 65/92/65 63/90/63 78/106/78
f 65/92/65 78/106/78 79/107/79
f 67/94/67 65/92/65 79/107/79
f 67/94/67 79/107/79 80/108/80
f 69/96/69 67/94/67 80/108/80
f 69/96/69 80/108/80 71/109/71
f 71/98/71 31/54/31 34/57/34
f 71/98/71 34/57/34 72/99/72
f 72/99/72 34/57/34 36/59/36
f 72/99/72 36/59/36 73/100/73
f 73/100/73 36/59/36 38/61/38
f 73/100/73 38/61/38 74/101/74
f 74/101/74 38/61/38 40/63/40
f 74/101/74 40/63/40 75/102/75
f 75/102/75 40/63/40 42/65/42
f 75/102/75 42/65/42 76/103/76
f 76/104/76 42/66/42 44/69/44
f 76/104/76 44/69/44 77/105/77
f 77/105/77 44/69/44 46/71/46
f 77/105/77 46/71/46 78/106/78
f 78/106/78 46/71/46 48/73/48
f 78/106/78 48/73/48 79/107/79
f 79/107/79 48/73/48 50/75/50
f 79/107/79 50/75/50 80/108/80
f 80/108/80 50/75/50 31/77/31
f 80/108/80 31/77/31 71/109/71
f 81/110/81 82/111/82 83/112/83
f 81/110/81 83/112/83 84/113/84
f 85/114/85 86/115/86 87/116/87
f 85/114/85 87/116/87 88/117/88
f 89/118/89 90/119/90 82/111/82
f 89/118/89 82/111/82 81/110/81
f 90/119/90 91/120/91 83/112/83
f 90/119/90 83/112/83 82/111/82
f 92/121/92 89/118/89 81/110/81
f 92/121/92 81/110/81 84/113/84
f 93/122/93 94/123/94 86/115/86
f 93/122/93 86/115/86 85/114/85
f 94/123/94 95/124/95 87/116/87
f 94/123/94 87/116/87 86/115/86
f 95/124/95 96/125/96 88/117/88
f 95/124/95 88/117/88 87/116/87
f 97/126/97 98/127/98 99/128/99
f 97/126/97 99/128/99 100/129/100
f 101/130/101 97/126/97 100/129/100
f 101/130/101 100/129/100 102/131/102
f 103/132/103 101/130/101 102/131/102
f 103/132/103 102/131/102 104/133/104
f 105/134/105 103/132/103 104/133/104
f 105/134/105 104/133/104 106/135/106
f 107/136/107 105/134/105 106/135/106
f 107/136/107 106/135/106 108/137/108
f 109/138/109 107/136/107 108/137/108
f 109/138/109 108/137/108 110/139/110
f 111/140/111 109/138/109 110/139/110
f 111/140/111 110/139/110 112/141/112
f 113/142/113 111/140/111 112/141/112
f 113/142/113 112/141/112 114/143/114
f 115/144/115 113/142/113 114/143/114
f 115/144/115 114/143/114 116/145/116
f 98/127/98 115/144/115 116/145/116
f 98/127/98 116/145/116 99/128/99
f 117/146/117 118/147/118 115/148/115
f 117/146/117 115/148/115 98/149/98
f 119/150/119 117/146/117 98/149/98
f 119/150/119 98/149/98 97/151/97
f 120/152/120 119/150/119 97/151/97
f 120/152/120 97/151/97 101/153/101
f 121/154/121 120/152/120 101/153/101
f 121/154/121 101/153/101 103/155/103
f 122/156/122 121/154/121 103/155/103
f 122/156/122 103/155/103 105/157/105
f 123/158/123 122/156/122 105/157/105
f 123/158/123 105/157/105 107/159/107
f 124/160/124 123/158/123 107/159/107
f 124/160/124 107/159/107 109/161/109
f 125/162/125 124/160/124 109/161/109
f 125/162/125 109/161/109 111/163/111
f 126/164/126 125/162/125 111/163/111
f 126/164/126 111/163/111 113/165/113
f 118/166/118 126/164/126 113/165/113
f 118/166/118 113/165/113 115/167/115
f 118/168/118 117/169/117 119/170/119
f 118/168/118 119/170/119 120/171/120
f 118/168/118 120/171/120 121/172/121
f 118/168/118 121/172/121 122/173/122
f 118/168/118 122/173/122 123/174/123
f 118/168/118 123/174/123 124/175/124
f 118/168/118 124/175/124 125/176/125
f 118/168/118 125/176/125 126/177/126
f 127/178/127 128/179/128 129/180/129
f 127/178/127 129/180/129 130/181/130
f 131/182/131 132/183/132 133/184/133
f 131/182/131 133/184/133 134/185/134
f 135/186/135 136/187/136 128/179/128
f 135/186/135 128/179/128 127/178/127
f 136/187/136 137/188/92 129/180/129
f 136/187/136 129/180/129 128/179/128
f 138/189/91 135/186/135 127/178/127
f 138/189/91 127/178/127 130/181/130
f 139/190/96 140/191/137 132/183/132
f 139/190/96 132/183/132 131/182/131
f 140/191/137 141/192/138 133/184/133
f 140/191/137 133/184/133 132/183/132
f 141/192/138 142/193/93 134/185/134
f 141/192/138 134/185/134 133/184/133
f 106/194/106 104/195/104 116/196/116
f 104/195/104 102/197/102 116/196/116
f 102/197/102 100/198/100 116/196/116
f 100/198/100 99/199/99 116/196/116
f 106/194/106 116/196/116 114/200/114
f 114/200/114 112/201/112 106/194/106
f 112/201/112 110/202/110 106/194/106
f 110/202/110 108/203/108 106/194/106
f 8/204/8 6/205/6 10/206/10
f 10/206/10 6/205/6 4/207/4
f 10/206/10 4/207/4 3/208/3
f 3/208/3 20/209/20 10/206/10
f 12/210/12 10/206/10 20/209/20
f 20/209/20 18/211/18 12/210/12
f 14/212/14 18/211/18 16/213/16
f 14/212/14 12/210/12 18/211/18
