# Wavefront OBJ exported by MilkShape 3D

mtllib tris.mtl

v 0.440000 0.000000 -2.200000
v 0.440000 0.880000 -2.970000
v 1.320000 0.880000 -2.090000
v 0.440000 11.880000 -3.850000
v 0.440000 12.760000 -3.080000
v 1.320000 11.880000 -2.970000
v 0.440000 12.760000 3.740000
v 0.440000 11.880000 4.510000
v 1.320000 11.880000 3.630000
v 0.440000 0.880000 3.630000
v 0.440000 0.000000 2.860000
v 1.320000 0.880000 2.750000
v -0.440000 11.880000 4.510000
v -0.440000 12.760000 3.740000
v -1.320000 11.880000 3.630000
v -0.440000 12.760000 -3.080000
v -0.440000 11.880000 -3.850000
v -1.320000 11.880000 -2.970000
v -0.440000 0.880000 -2.970000
v -0.440000 0.000000 -2.200000
v -1.320000 0.880000 -2.090000
v -0.440000 0.000000 2.860000
v -0.440000 0.880000 3.630000
v -1.320000 0.880000 2.750000
# 24 vertices

vt 0.614206 0.207031
vt 0.551903 0.260641
vt 0.619935 0.260641
vt 0.506072 0.930765
vt 0.568374 0.984375
vt 0.574103 0.930765
vt 0.930796 0.984375
vt 0.993098 0.930765
vt 0.925067 0.930765
vt 0.947267 0.260641
vt 0.884964 0.207031
vt 0.879235 0.260641
vt 0.495979 0.930765
vt 0.433677 0.984375
vt 0.427948 0.930765
vt 0.071255 0.984375
vt 0.008952 0.930765
vt 0.076984 0.930765
vt 0.054784 0.260641
vt 0.117087 0.207031
vt 0.122816 0.260641
vt 0.387845 0.207031
vt 0.450147 0.260641
vt 0.382116 0.260641
vt 0.071753 0.030859
vt 0.131430 0.085156
vt 0.131430 0.030859
vt 0.071753 0.085156
vt 0.814166 0.030859
vt 0.814166 0.085156
vt 0.873843 0.030859
vt 0.873843 0.085156
vt 0.933520 0.030859
vt 0.933520 0.085156
vt 0.191108 0.085156
vt 0.191108 0.030859
vt 0.179761 0.116016
vt 0.541089 0.116016
vt 0.179761 0.170313
vt 0.541089 0.170313
vt 0.569995 0.116016
vt 0.839185 0.170313
vt 0.569995 0.170313
vt 0.839185 0.116016
# 44 texture coordinates

vn 0.302646 -0.900186 -0.313163
vn 0.322747 -0.339152 -0.883635
vn 0.892456 -0.377442 -0.247104
vn 0.298869 0.390233 -0.870859
vn 0.302646 0.900186 -0.313163
vn 0.852144 0.351715 -0.387488
vn 0.464264 0.828976 0.311861
vn 0.298869 0.390233 0.870859
vn 0.898666 0.213283 0.383287
vn 0.374962 -0.271378 0.886429
vn 0.390612 -0.825085 0.408237
vn 0.854001 -0.365392 0.370366
vn -0.299298 0.221776 0.928028
vn -0.335272 0.874535 0.350400
vn -0.898666 0.213283 0.383287
vn -0.302139 0.819821 -0.486422
vn -0.299298 0.221776 -0.928028
vn -0.852144 0.351715 -0.387488
vn -0.448971 -0.307158 -0.839094
vn -0.390612 -0.825085 -0.408237
vn -0.909366 -0.292159 -0.296136
vn -0.302645 -0.900186 0.313163
vn -0.376557 -0.380782 0.844518
vn -0.841763 -0.451663 0.295695
# 24 normals

g tris.md2
usemtl skin
s 1
f 1/1/1 2/2/2 3/3/3
f 4/4/4 5/5/5 6/6/6
f 7/7/7 8/8/8 9/9/9
f 10/10/10 11/11/11 12/12/12
f 13/13/13 14/14/14 15/15/15
f 16/16/16 17/17/17 18/18/18
f 19/19/19 20/20/20 21/21/21
f 22/22/22 23/23/23 24/24/24
f 16/25/16 4/26/4 17/27/17
f 5/28/5 4/26/4 16/25/16
f 19/29/19 2/30/2 20/31/20
f 2/30/2 1/32/1 20/31/20
f 22/33/22 11/34/11 23/31/23
f 11/34/11 10/32/10 23/31/23
f 8/35/8 14/27/14 13/36/13
f 7/26/7 14/27/14 8/35/8
f 24/24/24 23/23/23 15/15/15
f 23/23/23 13/13/13 15/15/15
f 21/21/21 20/20/20 24/24/24
f 20/20/20 22/22/22 24/24/24
f 17/17/17 19/19/19 18/18/18
f 19/19/19 21/21/21 18/18/18
f 14/14/14 18/18/18 15/15/15
f 16/16/16 18/18/18 14/14/14
f 12/12/12 11/11/11 3/3/3
f 11/11/11 1/1/1 3/3/3
f 8/8/8 10/10/10 9/9/9
f 10/10/10 12/12/12 9/9/9
f 5/5/5 7/7/7 6/6/6
f 7/7/7 9/9/9 6/6/6
f 3/3/3 2/2/2 6/6/6
f 2/2/2 4/4/4 6/6/6
f 16/37/16 14/38/14 5/39/5
f 14/38/14 7/40/7 5/39/5
f 19/29/19 17/27/17 2/30/2
f 17/27/17 4/26/4 2/30/2
f 22/41/22 1/42/1 11/43/11
f 20/44/20 1/42/1 22/41/22
f 13/36/13 10/32/10 8/35/8
f 23/31/23 10/32/10 13/36/13
f 18/18/18 21/21/21 15/15/15
f 21/21/21 24/24/24 15/15/15
f 6/6/6 9/9/9 3/3/3
f 9/9/9 12/12/12 3/3/3
# 44 triangles in group

# 44 triangles total

