<?xml version="1.0" encoding="utf-8"?>
<!-- Generator: Adobe Illustrator 25.0.0, SVG Export Plug-In . SVG Version: 6.00 Build 0)  -->
<svg version="1.1" id="Layer_1" xmlns="http://www.w3.org/2000/svg" xmlns:xlink="http://www.w3.org/1999/xlink" x="0px" y="0px"
	 viewBox="0 0 192 96" style="enable-background:new 0 0 192 96;" xml:space="preserve">
<style type="text/css">
	.st0{opacity:0.6;}
	.st1{opacity:0.1;}
	.st2{fill:#FFFFFF;}
</style>
<g class="st0">
	<path d="M160,80H32c-8.84,0-16-7.16-16-16V32c0-8.84,7.16-16,16-16h128c8.84,0,16,7.16,16,16v32C176,72.84,168.84,80,160,80z"/>
</g>
<g class="st1">
	<path d="M160,21c6.07,0,11,4.93,11,11v32c0,6.07-4.93,11-11,11H32c-6.07,0-11-4.93-11-11V32c0-6.07,4.93-11,11-11H160 M160,16H32
		c-8.84,0-16,7.16-16,16v32c0,8.84,7.16,16,16,16h128c8.84,0,16-7.16,16-16V32C176,23.16,168.84,16,160,16L160,16z"/>
</g>
<g class="st1">
	<path class="st2" d="M160,16c8.84,0,16,7.16,16,16v32c0,8.84-7.16,16-16,16H32c-8.84,0-16-7.16-16-16V32c0-8.84,7.16-16,16-16H160
		 M160,11H32c-11.58,0-21,9.42-21,21v32c0,11.58,9.42,21,21,21h128c11.58,0,21-9.42,21-21V32C181,20.42,171.58,11,160,11L160,11z"/>
</g>
</svg>
