# Blender v2.67 (sub 0) OBJ File: ''
# www.blender.org
mtllib tris.mtl
o Icosphere
v -0.027918 -0.836991 0.024217
v 0.725353 -0.512913 0.561160
v -0.287252 -0.497997 0.822880
v -1.205280 -0.635445 0.030944
v -0.301131 -0.500795 -0.841810
v 0.701087 -0.499930 -0.511863
v 0.268115 0.431961 0.931182
v -0.718601 0.376028 0.520700
v -0.748327 0.397530 -0.509103
v 0.256246 0.402982 -0.842887
v 1.156073 0.511895 0.035292
v -0.053387 0.937654 0.021696
v 0.432652 -1.024827 0.350219
v 0.239248 -0.583844 0.836719
v -0.147229 -0.720276 0.393665
v 0.330381 -0.718304 -0.223809
v 0.993808 -0.703466 0.001805
v -0.724449 -0.588138 0.530148
v -0.553367 -0.908880 0.017268
v -0.813963 -0.661151 -0.571305
v -0.171536 -0.849157 -0.451665
v 0.176888 -0.447227 -0.598640
v 1.028262 -0.049686 -0.325511
v 0.941541 -0.052006 0.332704
v 0.635332 -0.053405 0.926871
v -0.040953 -0.058130 1.162283
v -0.646073 -0.055389 0.887959
v -1.033195 -0.044334 0.349849
v -1.087861 -0.045146 -0.333882
v -0.610902 -0.040149 -0.804256
v -0.029752 -0.052391 -1.151474
v 0.573962 -0.053481 -0.814069
v 0.726015 0.521246 0.583878
v -0.260370 0.429874 0.761902
v -0.875373 0.476050 0.016619
v -0.260581 0.409749 -0.664756
v 0.713448 0.517204 -0.522226
v 0.638624 1.111463 0.016163
v 0.137730 0.800969 0.516614
v -0.289700 0.492299 0.243535
v -0.310362 0.496264 -0.164266
v 0.098937 0.829721 -0.517743
vt 0.893447 0.201983
vt 0.922557 0.041183
vt 0.982065 0.169106
vt 0.453155 0.208628
vt 0.361262 0.040083
vt 0.604411 0.198216
vt 0.986557 0.322262
vt 0.867099 0.316341
vt 0.789312 0.161266
vt 0.519234 0.354298
vt 0.229176 0.349170
vt 0.315828 0.238202
vt 0.310089 0.437969
vt 0.058801 0.486962
vt 0.138443 0.406044
vt 0.125568 0.604437
vt 0.853782 0.470156
vt 0.922551 0.468992
vt 0.909172 0.628493
vt 0.709579 0.299450
vt 0.805210 0.362703
vt 0.719689 0.474675
vt 0.409171 0.371507
vt 0.219693 0.525158
vt 0.019234 0.645702
vt 0.810069 0.561780
vt 0.625568 0.395563
vt 0.382369 0.539740
vt 0.470929 0.531008
vt 0.416577 0.704549
vt 0.209294 0.699745
vt 0.306541 0.635840
vt 0.299036 0.830321
vt 0.851794 0.801680
vt 0.949792 0.832708
vt 0.577447 0.980610
vt 0.728566 0.649868
vt 0.761243 0.773469
vt 0.659003 0.787758
vt 0.558801 0.513038
vt 0.638621 0.594675
vt 0.539333 0.685435
vt 0.154688 0.204291
vt 0.039333 0.314565
vt 0.987333 0.479265
vt 0.973601 0.648386
vt 0.104411 0.801784
vt 0.366417 0.925012
vt 0.942017 0.940380
vn 0.003082 -0.999878 -0.014893
vn 0.147282 -0.966338 0.210822
vn -0.179571 -0.895505 0.407147
vn 0.696768 -0.407147 0.590503
vn 0.792901 -0.603870 -0.081454
vn -0.162420 -0.979247 0.121036
vn 0.159124 -0.888882 -0.429579
vn 0.183782 -0.862667 -0.471145
vn 0.919462 -0.079958 0.384930
vn -0.245796 -0.684927 0.685873
vn 0.119449 -0.653523 0.747398
vn -0.090518 -0.015290 0.995758
vn -0.872921 -0.477920 0.097873
vn -0.462355 -0.630726 0.623188
vn -0.896023 0.162145 0.413282
vn -0.054445 -0.562609 -0.824885
vn -0.526719 -0.575854 -0.625233
vn -0.536943 0.143864 -0.831233
vn 0.409619 -0.607166 -0.680807
vn 0.293405 -0.672842 -0.679098
vn 0.534623 -0.150395 -0.831568
vn 0.624287 -0.054811 0.779229
vn -0.595019 0.040162 0.802667
vn -0.906827 0.194800 -0.373760
vn 0.008576 -0.040010 -0.999146
vn 0.912687 -0.075625 -0.401563
vn 0.146184 0.559313 0.815912
vn 0.609546 0.458846 0.646443
vn -0.205878 0.817103 0.538408
vn -0.525376 0.722892 0.448714
vn -0.379467 0.720176 0.580798
vn -0.469253 0.866817 0.168432
vn -0.476241 0.715873 -0.510544
vn -0.588336 0.807642 0.038789
vn -0.469436 0.872646 -0.134526
vn 0.178014 0.516465 -0.837581
vn -0.372234 0.704520 -0.604205
vn -0.230262 0.779351 -0.582690
vn 0.956023 0.291543 0.031465
vn 0.575854 0.442213 -0.687582
vn 0.349651 0.936857 0.000824
vn -0.580096 0.813318 0.044069
usemtl None
s 1
f 1/1/1 13/2/2 15/3/3
f 2/4/4 13/5/2 17/6/5
f 1/1/1 15/3/3 19/7/6
f 1/1/1 19/7/6 21/8/7
f 1/1/1 21/8/7 16/9/8
f 2/4/4 17/6/5 24/10/9
f 3/11/10 14/12/11 26/13/12
f 4/14/13 18/15/14 28/16/15
f 5/17/16 20/18/17 30/19/18
f 6/20/19 22/21/20 32/22/21
f 2/4/4 24/10/9 25/23/22
f 3/11/10 26/13/12 27/24/23
f 4/14/13 28/16/15 29/25/24
f 5/17/16 30/19/18 31/26/25
f 6/20/19 32/22/21 23/27/26
f 7/28/27 33/29/28 39/30/29
f 8/31/30 34/32/31 40/33/32
f 9/34/33 35/35/34 41/36/35
f 10/37/36 36/38/37 42/39/38
f 11/40/39 37/41/40 38/42/41
f 15/43/3 14/12/11 3/11/10
f 15/43/3 13/5/2 14/12/11
f 13/5/2 2/4/4 14/12/11
f 17/6/5 16/9/8 6/20/19
f 17/6/5 13/5/2 16/9/8
f 13/2/2 1/1/1 16/9/8
f 19/44/6 18/15/14 4/14/13
f 19/44/6 15/43/3 18/15/14
f 15/43/3 3/11/10 18/15/14
f 21/8/7 20/18/17 5/17/16
f 21/8/7 19/7/6 20/18/17
f 19/7/6 4/45/13 20/18/17
f 16/9/8 22/21/20 6/20/19
f 16/9/8 21/8/7 22/21/20
f 21/8/7 5/17/16 22/21/20
f 24/10/9 23/27/26 11/40/39
f 24/10/9 17/6/5 23/27/26
f 17/6/5 6/20/19 23/27/26
f 26/13/12 25/23/22 7/28/27
f 26/13/12 14/12/11 25/23/22
f 14/12/11 2/4/4 25/23/22
f 28/16/15 27/24/23 8/31/30
f 28/16/15 18/15/14 27/24/23
f 18/15/14 3/11/10 27/24/23
f 30/19/18 29/46/24 9/34/33
f 30/19/18 20/18/17 29/46/24
f 20/18/17 4/45/13 29/46/24
f 32/22/21 31/26/25 10/37/36
f 32/22/21 22/21/20 31/26/25
f 22/21/20 5/17/16 31/26/25
f 25/23/22 33/29/28 7/28/27
f 25/23/22 24/10/9 33/29/28
f 24/10/9 11/40/39 33/29/28
f 27/24/23 34/32/31 8/31/30
f 27/24/23 26/13/12 34/32/31
f 26/13/12 7/28/27 34/32/31
f 29/46/24 35/35/34 9/34/33
f 29/25/24 28/16/15 35/47/34
f 28/16/15 8/31/30 35/47/34
f 31/26/25 36/38/37 10/37/36
f 31/26/25 30/19/18 36/38/37
f 30/19/18 9/34/33 36/38/37
f 23/27/26 37/41/40 11/40/39
f 23/27/26 32/22/21 37/41/40
f 32/22/21 10/37/36 37/41/40
f 39/30/29 38/42/41 12/48/42
f 39/30/29 33/29/28 38/42/41
f 33/29/28 11/40/39 38/42/41
f 40/33/32 39/30/29 12/48/42
f 40/33/32 34/32/31 39/30/29
f 34/32/31 7/28/27 39/30/29
f 41/36/35 40/49/32 12/48/42
f 41/36/35 35/35/34 40/49/32
f 35/47/34 8/31/30 40/33/32
f 42/39/38 41/36/35 12/48/42
f 42/39/38 36/38/37 41/36/35
f 36/38/37 9/34/33 41/36/35
f 38/42/41 42/39/38 12/48/42
f 38/42/41 37/41/40 42/39/38
f 37/41/40 10/37/36 42/39/38
