# Wavefront OBJ exported by MilkShape 3D

mtllib newforearm.mtl

v -2.152147 -0.109623 -2.824457
v -1.870305 1.233849 -5.423835
v -0.612171 1.345855 -5.389245
v 0.374256 -0.902765 -4.496753
v -2.125438 4.889141 -6.401793
v -1.834227 5.206918 -4.760352
v 1.150188 4.940723 -1.976666
v 0.652632 4.655657 -3.573943
v 2.516319 3.045633 -2.221012
v 2.357535 2.466796 -5.026720
v -4.015833 1.500400 -4.177389
v -3.678052 3.820662 -4.317648
v -3.801643 3.628909 -5.999336
v -4.108716 1.519580 -5.871827
v -2.152147 -0.109623 -2.824457
v -1.935070 -0.301084 -1.152232
v -0.135511 0.858919 -5.266005
v 0.374256 -0.902765 -4.496753
v 0.334712 -0.660884 -1.638049
v 2.178537 0.725372 -2.080752
v 2.278756 0.931620 -0.394371
v 0.619313 -0.316011 0.004062
v -1.423491 0.007809 0.441297
v -2.653009 1.713390 0.661209
v -2.349006 3.801626 0.534975
v -0.689563 5.049256 0.136542
v 2.516319 3.045633 -2.221012
v 2.582759 3.019855 -0.520605
v 1.353241 4.725436 -0.300693
v 2.582759 3.019855 -0.520605
v 0.549557 0.932924 -5.197405
v 2.050461 0.357467 -4.899210
v 3.491588 1.476724 7.610187
v 3.728035 3.100906 7.512005
v 1.182896 4.679330 8.023119
v 2.593085 4.404068 6.865671
v 0.433405 0.734803 7.442775
v -0.344228 2.084767 8.431193
v -0.107782 3.708951 8.333012
v 3.728035 3.100906 7.512005
v 2.200911 0.506345 7.920079
v 2.050461 0.357467 -4.899210
v 2.357535 2.466796 -5.026720
v 2.681945 1.929085 7.521887
v 2.917398 2.363472 7.365390
v 3.669628 2.787179 9.567998
v 3.452947 2.340568 9.717029
v 2.713247 2.834839 7.296407
v 2.223222 2.988235 7.366883
v 3.024313 3.419957 9.803309
v 3.478869 3.267552 9.606397
v 1.674519 3.365396 7.471636
v 1.285305 3.731868 7.582933
v 2.128583 4.192643 10.728735
v 2.540122 3.834730 10.755402
v 2.713247 2.834839 7.296407
v 3.478869 3.267552 9.606397
v 0.774577 2.674535 7.938847
v 1.264947 2.517481 7.757056
v 2.094312 3.010423 11.055310
v 1.572667 3.164749 11.102715
v 1.798949 2.205496 7.648883
v 1.665459 2.824943 7.549127
v 1.264947 2.517481 7.757056
v 1.665459 2.824943 7.549127
v 2.524869 3.308593 10.900740
v 1.798949 2.205496 7.648883
v 2.184188 1.858779 7.648054
v 2.991990 2.264027 9.941266
v 2.633867 2.615193 10.071854
v 2.223222 2.988235 7.366883
v 1.674519 3.365396 7.471636
v 1.665459 2.824943 7.549127
v 0.563608 3.177841 7.957607
v 1.352745 3.655360 11.007258
v 0.790903 3.648398 7.799212
v 1.600151 4.112816 10.840822
v 2.540122 3.834730 10.755402
v 1.968606 3.684955 10.845232
v 2.524869 3.308593 10.900740
v 1.572667 3.164749 11.102715
v 2.094312 3.010423 11.055310
v 1.600151 4.112816 10.840822
v 1.352745 3.655360 11.007258
v 2.128583 4.192643 10.728735
v 1.665459 2.824943 7.549127
v 2.648252 3.129630 10.010458
v 2.633867 2.615193 10.071854
v 2.991990 2.264027 9.941266
v 3.452947 2.340568 9.717029
v 3.669628 2.787179 9.567998
v 3.478869 3.267552 9.606397
v 3.024313 3.419957 9.803309
v 2.648252 3.129630 10.010458
v 1.285305 3.731868 7.582933
v 2.128583 4.192643 10.728735
v -0.399202 2.679470 -5.363301
v -0.521490 2.027059 -5.474323
v -1.642828 2.169636 -9.670679
v -1.736771 2.881359 -9.450299
v 1.285305 3.731868 7.582933
v 1.182896 4.679330 8.023119
v 0.790903 3.648398 7.799212
v -2.515499 1.594817 -5.555637
v -2.707444 2.309211 -5.685026
v -3.337386 2.443905 -8.719840
v -3.243442 1.732182 -8.940220
v -1.870305 1.233849 -5.423835
v -2.708205 1.357044 -9.309999
v 2.593085 4.404068 6.865671
v 2.713247 2.834839 7.296407
v 3.728035 3.100906 7.512005
v 2.917398 2.363472 7.365390
v -0.612171 1.345855 -5.389245
v -2.045209 1.538244 -9.612566
v 3.491588 1.476724 7.610187
v 2.681945 1.929085 7.521887
v 0.927162 1.512142 -5.235103
v 0.549557 0.932924 -5.197405
v 0.159680 0.792252 -9.625264
v 0.548030 1.363575 -9.672942
v -0.399202 2.679470 -5.363301
v 0.712959 2.160411 -5.350711
v 0.346014 2.025670 -9.655041
v -0.294247 2.279964 -9.585042
v 2.200911 0.506345 7.920079
v 2.184188 1.858779 7.648054
v 0.433405 0.734803 7.442775
v -0.344228 2.084767 8.431193
v 0.774577 2.674535 7.938847
v 0.563608 3.177841 7.957607
v -0.107782 3.708951 8.333012
v -4.108716 1.519580 -5.871827
v -2.515499 1.594817 -5.555637
v -2.707444 2.309211 -5.685026
v -3.801643 3.628909 -5.999336
v -2.333702 2.958550 -5.736207
v -1.613205 3.162459 -5.679201
v -2.125438 4.889141 -6.401793
v 0.652632 4.655657 -3.573943
v -0.399202 2.679470 -5.363301
v 2.357535 2.466796 -5.026720
v 0.712959 2.160411 -5.350711
v -0.135511 0.858919 -5.266005
v -0.612171 1.345855 -5.389245
v -0.994032 1.250475 -9.499130
v -0.526603 0.741917 -9.547911
v 0.927162 1.512142 -5.235103
v -1.642828 2.169636 -9.670679
v -2.935005 3.075297 -8.777954
v -1.736771 2.881359 -9.450299
v -3.337386 2.443905 -8.719840
v -2.045209 1.538244 -9.612566
v -3.243442 1.732182 -8.940220
v -2.708205 1.357044 -9.309999
v -2.272008 3.256497 -9.080520
v -2.333702 2.958550 -5.736207
v -1.613205 3.162459 -5.679201
v -2.272008 3.256497 -9.080520
v -2.935005 3.075297 -8.777954
v -1.613205 3.162459 -5.679201
v -2.272008 3.256497 -9.080520
v 0.346014 2.025670 -9.655041
v 0.548030 1.363575 -9.672942
v -0.294247 2.279964 -9.585042
v -0.890624 1.934970 -9.515656
v 0.159680 0.792252 -9.625264
v -0.994032 1.250475 -9.499130
v -0.526603 0.741917 -9.547911
v -0.521490 2.027059 -5.474323
v -0.890624 1.934970 -9.515656
v 0.712959 2.160411 -5.350711
v 0.346014 2.025670 -9.655041
# 173 vertices

vt 0.343200 0.943900
vt 0.411300 0.853200
vt 0.457800 0.872900
vt 0.450800 0.970800
vt 0.286303 0.791947
vt 0.283403 0.710347
vt 0.315203 0.542947
vt 0.317703 0.623647
vt 0.370781 0.529447
vt 0.368803 0.666147
vt 0.209903 0.725347
vt 0.246903 0.719247
vt 0.249103 0.803347
vt 0.211103 0.811447
vt 0.171603 0.651247
vt 0.170703 0.569247
vt 0.465800 0.898300
vt 0.121903 0.711847
vt 0.132803 0.570947
vt 0.092803 0.558747
vt 0.087169 0.470947
vt 0.127353 0.483747
vt 0.166883 0.487647
vt 0.205761 0.485347
vt 0.243985 0.480747
vt 0.301522 0.472347
vt 0.052903 0.531347
vt 0.047856 0.447047
vt 0.346345 0.461547
vt 0.382271 0.445147
vt 0.489400 0.908800
vt 0.527300 0.955800
vt 0.101781 0.056647
vt 0.068264 0.039947
vt 0.271423 0.066847
vt 0.314812 0.097847
vt 0.168452 0.117347
vt 0.203058 0.076447
vt 0.237301 0.073547
vt 0.373664 0.039947
vt 0.135661 0.068247
vt 0.085103 0.703247
vt 0.049103 0.678447
vt 0.872100 0.666700
vt 0.900500 0.667800
vt 0.897400 0.797600
vt 0.869000 0.796300
vt 0.719500 0.663800
vt 0.747500 0.659000
vt 0.755400 0.801600
vt 0.727000 0.799300
vt 0.902400 0.448100
vt 0.932000 0.451300
vt 0.932000 0.631000
vt 0.902400 0.635400
vt 0.928900 0.666000
vt 0.925500 0.801600
vt 0.813400 0.455600
vt 0.842900 0.451200
vt 0.843000 0.639000
vt 0.813300 0.635800
vt 0.556100 0.565400
vt 0.520000 0.585400
vt 0.516200 0.549300
vt 0.872500 0.448000
vt 0.872800 0.638800
vt 0.815800 0.658400
vt 0.843900 0.662800
vt 0.840600 0.798100
vt 0.812200 0.800800
vt 0.532100 0.622000
vt 0.490600 0.607900
vt 0.783600 0.457800
vt 0.783800 0.631900
vt 0.753800 0.456500
vt 0.754000 0.630300
vt 0.889700 0.852000
vt 0.858300 0.904300
vt 0.835100 0.839500
vt 0.791400 0.930300
vt 0.791400 0.874400
vt 0.889600 0.952700
vt 0.835100 0.965200
vt 0.913900 0.902400
vt 0.780800 0.655200
vt 0.783800 0.801600
vt 0.631100 0.939200
vt 0.619100 0.886600
vt 0.652700 0.844400
vt 0.706700 0.844400
vt 0.740300 0.886600
vt 0.728300 0.939200
vt 0.679700 0.962600
vt 0.724200 0.452800
vt 0.724200 0.632400
vt 0.716500 0.409300
vt 0.689300 0.404900
vt 0.685000 0.227200
vt 0.715100 0.233300
vt 0.457300 0.599200
vt 0.398600 0.624800
vt 0.441700 0.570200
vt 0.584500 0.380300
vt 0.555400 0.370300
vt 0.563800 0.243700
vt 0.594100 0.238900
vt 0.612100 0.393600
vt 0.623900 0.231300
vt 0.477300 0.703000
vt 0.559800 0.641200
vt 0.592300 0.701300
vt 0.591700 0.631700
vt 0.661400 0.409300
vt 0.654300 0.226900
vt 0.659700 0.622600
vt 0.604400 0.601400
vt 0.713200 0.209900
vt 0.682100 0.209700
vt 0.679600 0.010400
vt 0.710600 0.010200
vt 0.561300 0.204200
vt 0.506300 0.203000
vt 0.524700 0.010200
vt 0.555500 0.014200
vt 0.660100 0.519200
vt 0.589200 0.571900
vt 0.579900 0.436500
vt 0.465800 0.445700
vt 0.486700 0.529200
vt 0.454200 0.539500
vt 0.398600 0.522200
vt 0.343200 0.796300
vt 0.396600 0.827100
vt 0.403600 0.798900
vt 0.391300 0.734800
vt 0.428200 0.783800
vt 0.456600 0.789900
vt 0.466700 0.717500
vt 0.592800 0.786800
vt 0.491800 0.830400
vt 0.576100 0.895300
vt 0.517600 0.871400
vt 0.651600 0.204200
vt 0.621200 0.197900
vt 0.617500 0.012800
vt 0.648500 0.011400
vt 0.512300 0.896900
vt 0.912300 0.197400
vt 0.912300 0.064300
vt 0.951300 0.158400
vt 0.857200 0.064300
vt 0.857200 0.197400
vt 0.818200 0.103300
vt 0.818200 0.158400
vt 0.951300 0.103300
vt 0.524800 0.368200
vt 0.494600 0.373900
vt 0.503800 0.232400
vt 0.533100 0.241500
vt 0.763200 0.380300
vt 0.745100 0.239700
vt 0.914200 0.368300
vt 0.858100 0.381100
vt 0.939200 0.316400
vt 0.914200 0.264500
vt 0.813100 0.345200
vt 0.858100 0.251700
vt 0.813100 0.287600
vt 0.590200 0.195800
vt 0.586500 0.013800
vt 0.743700 0.204500
vt 0.741600 0.010800
# 172 texture coordinates

vn -0.187694 -0.810211 -0.555274
vn -0.138252 -0.873637 -0.466524
vn -0.259101 -0.662711 -0.702625
vn -0.166238 -0.440721 -0.882117
vn -0.161469 0.972288 -0.169068
vn -0.165391 0.986227 0.001684
vn 0.541031 0.829876 -0.136351
vn 0.619345 0.737739 -0.268613
vn 0.763426 0.620023 -0.180978
vn 0.714598 0.676006 -0.179906
vn -0.962818 -0.227149 0.146233
vn -0.771111 0.629168 0.097651
vn -0.921369 0.387979 0.023474
vn -0.939054 -0.340455 0.047622
vn -0.560828 -0.827833 -0.012789
vn -0.500793 -0.852349 0.150690
vn -0.050265 -0.411845 -0.909867
vn 0.049501 -0.998189 0.034178
vn 0.266780 -0.954565 0.132794
vn 0.862838 -0.505137 0.018616
vn 0.897291 -0.439437 -0.041996
vn 0.311496 -0.946543 0.083823
vn -0.465362 -0.846058 0.260045
vn -0.907378 -0.294967 0.299432
vn -0.849107 0.468967 0.243079
vn -0.299480 0.948135 0.106545
vn 0.988620 -0.146091 -0.035874
vn 0.983088 -0.149510 -0.105754
vn 0.445776 0.894999 -0.016145
vn 0.806577 0.588553 -0.055131
vn 0.105565 -0.294103 -0.949926
vn 0.129201 -0.202072 -0.970811
vn 0.851471 -0.515930 -0.093879
vn 0.978871 -0.150848 -0.138044
vn -0.210001 0.972735 0.098421
vn 0.518856 0.853309 -0.051501
vn -0.364634 -0.912044 0.187664
vn -0.925704 -0.243235 0.289669
vn -0.819179 0.520160 0.241621
vn 0.786818 0.606752 -0.113001
vn 0.235743 -0.970331 0.053702
vn 0.788074 -0.613981 0.044334
vn 0.989011 -0.145548 -0.025944
vn 0.680459 -0.726070 -0.098986
vn 0.941620 0.065275 -0.330289
vn 0.932234 -0.232076 -0.277633
vn 0.451055 -0.892482 0.004963
vn 0.233367 0.940130 -0.248386
vn -0.222896 0.972082 -0.073314
vn -0.046081 0.985516 -0.163199
vn 0.210222 0.945970 -0.246877
vn 0.809877 0.510784 -0.288443
vn 0.616784 0.738107 -0.273451
vn 0.629234 0.727849 -0.272581
vn 0.938626 0.208660 -0.274667
vn 0.876593 0.328141 -0.352006
vn 0.866351 0.348569 -0.357681
vn -0.499681 -0.828603 0.252460
vn 0.338825 -0.939377 0.052613
vn 0.027079 -0.989351 0.143010
vn -0.741733 -0.607784 0.283603
vn 0.083215 0.077937 0.993479
vn 0.313760 0.216495 0.924491
vn 0.311010 -0.069119 0.947890
vn 0.919822 -0.343933 -0.188779
vn 0.773481 -0.624963 -0.105587
vn -0.754101 -0.551480 0.356654
vn -0.091479 -0.973792 0.208232
vn -0.373286 -0.883229 0.283839
vn -0.881732 -0.289814 0.372230
vn 0.277133 0.214350 0.936617
vn 0.340190 0.176884 0.923571
vn 0.272715 0.132070 0.952987
vn -0.960952 -0.092429 0.260820
vn -0.949333 0.231682 0.212346
vn -0.698785 0.711461 0.074313
vn -0.443696 0.896027 -0.016426
vn 0.092753 0.227460 0.969360
vn 0.157758 0.252154 0.954741
vn 0.100869 0.289468 0.951858
vn 0.207125 0.277048 0.938266
vn 0.149807 0.319342 0.935723
vn 0.207430 0.224582 0.952122
vn 0.162954 0.258315 0.952218
vn 0.142061 0.178644 0.973604
vn -0.884613 0.365414 0.289710
vn -0.692862 0.703768 0.157014
vn 0.422535 0.095749 0.901275
vn -0.187334 0.977574 -0.096204
vn -0.169008 0.980696 -0.098341
vn 0.887154 0.389233 -0.247903
vn 0.917346 -0.284656 -0.278294
vn 0.947255 -0.161045 -0.277080
vn 0.674762 0.719131 -0.165975
vn 0.483091 -0.163516 0.860166
vn 0.609746 -0.325227 0.722798
vn 0.732017 -0.398371 0.552676
vn -0.872077 -0.460359 0.165983
vn -0.934704 0.291810 0.202916
vn -0.977120 0.045852 0.207689
vn -0.717967 -0.683931 0.129465
vn -0.327921 -0.943940 0.038005
vn -0.081006 -0.996315 -0.028199
vn -0.089297 0.191697 0.977383
vn -0.248065 0.127291 0.960344
vn -0.140196 0.152391 0.978326
vn 0.491681 -0.848531 -0.195564
vn 0.734826 -0.629024 -0.253691
vn -0.052621 0.223069 0.973381
vn 0.107317 0.253728 0.961304
vn 0.952056 -0.297204 -0.072525
vn 0.371620 -0.928372 -0.004970
vn 0.634929 -0.771978 -0.030238
vn 0.996323 0.009599 -0.085143
vn -0.096704 0.991149 -0.090953
vn 0.422641 0.904011 -0.064329
vn 0.391802 0.917252 -0.071701
vn -0.490084 0.870666 -0.041923
vn 0.046860 0.189424 0.980777
vn 0.196830 0.195669 0.960714
vn 0.095432 -0.164536 0.981744
vn 0.417136 -0.045805 0.907689
vn 0.359080 0.093991 0.928562
vn 0.582329 -0.131936 0.802176
vn 0.421963 -0.103239 0.900716
vn 0.190444 -0.377833 -0.906076
vn -0.006020 -0.667548 -0.744543
vn 0.163181 -0.116688 -0.979671
vn 0.116454 -0.184210 -0.975964
vn 0.113585 -0.137499 -0.983968
vn 0.090837 -0.289767 -0.952777
vn 0.316236 -0.182939 -0.930875
vn 0.450178 0.455698 -0.767905
vn 0.302196 0.214506 -0.928797
vn 0.181848 0.184407 -0.965881
vn 0.177287 0.085188 -0.980465
vn -0.494509 -0.866491 0.068224
vn -0.985093 -0.143862 0.094321
vn -0.891114 -0.444000 0.093701
vn -0.200823 -0.978509 0.046795
vn 0.182798 -0.114885 -0.976415
vn -0.452663 0.208686 -0.866918
vn -0.482060 0.867245 0.124517
vn -0.277308 0.957430 0.080182
vn -0.252559 0.964165 0.081239
vn -0.675744 0.718385 0.165206
vn 0.462077 0.883136 -0.080970
vn 0.534333 0.841458 -0.080231
vn -0.111483 -0.007147 -0.993741
vn -0.898861 0.437486 0.025575
vn -0.902704 0.423965 0.073335
vn 0.951084 0.295309 -0.090734
vn 0.951876 0.292875 -0.090316
# 153 normals

g default
usemtl Material01
s 1
f 1/1/1 2/2/2 3/3/3
f 1/1/1 3/3/3 4/4/4
f 5/5/5 6/6/6 7/7/7
f 5/5/5 7/7/7 8/8/8
f 8/8/8 7/7/7 9/9/9
f 8/8/8 9/9/9 10/10/10
f 11/11/11 12/12/12 13/13/13
f 11/11/11 13/13/13 14/14/14
f 15/15/15 16/16/16 11/11/11
f 15/15/15 11/11/11 14/14/14
f 17/17/17 4/4/4 3/3/3
f 5/5/5 13/13/13 12/12/12
f 5/5/5 12/12/12 6/6/6
f 18/18/18 19/19/19 16/16/16
f 18/18/18 16/16/16 15/15/15
f 20/20/20 21/21/21 22/22/22
f 20/20/20 22/22/22 19/19/19
f 16/16/16 23/23/23 24/24/24
f 16/16/16 24/24/24 11/11/11
f 12/12/12 25/25/25 26/26/26
f 12/12/12 26/26/26 6/6/6
f 27/27/27 28/28/28 21/21/21
f 27/27/27 21/21/21 20/20/20
f 19/19/19 22/22/22 23/23/23
f 19/19/19 23/23/23 16/16/16
f 11/11/11 24/24/24 25/25/25
f 11/11/11 25/25/25 12/12/12
f 6/6/6 26/26/26 29/29/29
f 6/6/6 29/29/29 7/7/7
f 7/7/7 29/29/29 30/30/30
f 7/7/7 30/30/30 9/9/9
f 31/31/31 32/32/32 4/4/4
f 31/31/31 4/4/4 17/17/17
f 33/33/33 21/21/21 28/28/28
f 33/33/33 28/28/28 34/34/34
f 35/35/35 36/36/36 29/29/29
f 35/35/35 29/29/29 26/26/26
f 23/23/23 37/37/37 38/38/38
f 23/23/23 38/38/38 24/24/24
f 25/25/25 24/24/24 38/38/38
f 25/25/25 38/38/38 39/39/39
f 40/40/40 30/30/30 29/29/29
f 40/40/40 29/29/29 36/36/36
f 22/22/22 41/41/41 37/37/37
f 22/22/22 37/37/37 23/23/23
f 25/25/25 39/39/39 35/35/35
f 25/25/25 35/35/35 26/26/26
f 33/33/33 41/41/41 22/22/22
f 33/33/33 22/22/22 21/21/21
f 20/20/20 42/42/42 43/43/43
f 20/20/20 43/43/43 27/27/27
f 42/42/42 20/20/20 19/19/19
f 42/42/42 19/19/19 18/18/18
f 44/44/44 45/45/45 46/46/46
f 44/44/44 46/46/46 47/47/47
f 48/48/48 49/49/49 50/50/50
f 48/48/48 50/50/50 51/51/51
f 52/52/52 53/53/53 54/54/54
f 52/52/52 54/54/54 55/55/55
f 45/45/45 56/56/56 57/57/57
f 45/45/45 57/57/57 46/46/46
f 58/58/58 59/59/59 60/60/60
f 58/58/58 60/60/60 61/61/61
f 62/62/62 63/63/63 64/64/64
f 59/59/59 65/65/65 66/66/66
f 59/59/59 66/66/66 60/60/60
f 67/67/67 68/68/68 69/69/69
f 67/67/67 69/69/69 70/70/70
f 71/71/71 72/72/72 73/63/73
f 74/73/74 58/58/58 61/61/61
f 74/73/74 61/61/61 75/74/75
f 68/68/68 44/44/44 47/47/47
f 68/68/68 47/47/47 69/69/69
f 76/75/76 74/73/74 75/74/75
f 76/75/76 75/74/75 77/76/77
f 78/77/78 79/78/79 80/79/80
f 79/78/79 81/80/81 82/81/82
f 83/82/83 84/83/84 81/80/81
f 83/82/83 81/80/81 79/78/79
f 85/84/85 83/82/83 79/78/79
f 85/84/85 79/78/79 78/77/78
f 80/79/80 79/78/79 82/81/82
f 86/85/86 67/67/67 70/70/70
f 86/85/86 70/70/70 87/86/87
f 49/49/49 86/85/86 87/86/87
f 49/49/49 87/86/87 50/50/50
f 88/87/88 89/88/88 90/89/88
f 88/87/88 90/89/88 91/90/88
f 88/87/88 91/90/88 92/91/88
f 88/87/88 92/91/88 93/92/88
f 88/87/88 93/92/88 94/93/88
f 65/65/65 52/52/52 55/55/55
f 65/65/65 55/55/55 66/66/66
f 95/94/89 76/75/76 77/76/77
f 95/94/89 77/76/77 96/95/90
f 97/96/91 98/97/92 99/98/93
f 97/96/91 99/98/93 100/99/94
f 101/100/95 102/101/96 103/102/97
f 104/103/98 105/104/99 106/105/100
f 104/103/98 106/105/100 107/106/101
f 108/107/102 104/103/98 107/106/101
f 108/107/102 107/106/101 109/108/103
f 101/100/95 72/72/72 110/109/73
f 101/100/95 110/109/73 102/101/96
f 72/72/72 71/71/71 110/109/73
f 71/71/71 111/110/104 110/109/73
f 111/110/104 112/111/105 110/109/73
f 113/112/106 112/111/105 111/110/104
f 114/113/107 108/107/102 109/108/103
f 114/113/107 109/108/103 115/114/108
f 116/115/109 112/111/105 113/112/106
f 116/115/109 113/112/106 117/116/110
f 118/117/111 119/118/112 120/119/113
f 118/117/111 120/119/113 121/120/114
f 122/121/115 123/122/116 124/123/117
f 122/121/115 124/123/117 125/124/118
f 126/125/119 116/115/109 117/116/110
f 126/125/119 117/116/110 127/126/120
f 62/62/62 126/125/119 127/126/120
f 128/127/121 126/125/119 62/62/62
f 128/127/121 62/62/62 64/64/64
f 129/128/122 128/127/121 64/64/64
f 129/128/122 64/64/64 130/129/123
f 129/128/122 130/129/123 131/130/124
f 129/128/122 131/130/124 132/131/125
f 102/101/96 132/131/125 131/130/124
f 102/101/96 131/130/124 103/102/97
f 1/1/1 133/132/126 134/133/127
f 1/1/1 134/133/127 2/2/2
f 135/134/128 134/133/127 133/132/126
f 135/134/128 133/132/126 136/135/129
f 135/134/128 136/135/129 137/136/130
f 138/137/131 137/136/130 136/135/129
f 138/137/131 136/135/129 139/138/132
f 139/138/132 140/139/133 141/140/134
f 139/138/132 141/140/134 138/137/131
f 141/140/134 140/139/133 142/141/135
f 141/140/134 142/141/135 143/142/136
f 144/143/137 145/144/138 146/145/139
f 144/143/137 146/145/139 147/146/140
f 143/142/136 142/141/135 148/147/141
f 148/147/141 142/141/135 32/32/32
f 148/147/141 32/32/32 31/31/31
f 119/118/112 144/143/137 147/146/140
f 119/118/112 147/146/140 120/119/113
f 149/148/142 150/149/142 151/150/142
f 152/151/142 150/149/142 149/148/142
f 152/151/142 149/148/142 153/152/142
f 154/153/142 152/151/142 153/152/142
f 154/153/142 153/152/142 155/154/142
f 151/150/142 150/149/142 156/155/142
f 157/156/143 158/157/144 159/158/145
f 157/156/143 159/158/145 160/159/146
f 105/104/99 157/156/143 160/159/146
f 105/104/99 160/159/146 106/105/100
f 161/160/147 97/96/91 100/99/94
f 161/160/147 100/99/94 162/161/148
f 98/97/92 114/113/107 115/114/108
f 98/97/92 115/114/108 99/98/93
f 163/162/149 164/163/149 165/164/149
f 164/163/149 166/165/149 165/164/149
f 167/166/149 166/165/149 164/163/149
f 168/167/149 166/165/149 167/166/149
f 168/167/149 167/166/149 169/168/149
f 170/169/150 122/121/115 125/124/118
f 170/169/150 125/124/118 171/170/151
f 172/171/152 118/117/111 121/120/114
f 172/171/152 121/120/114 173/172/153
f 145/144/138 170/169/150 171/170/151
f 145/144/138 171/170/151 146/145/139
# 170 triangles in group

# 170 triangles total

