usemtl mapobjects/barrel/skin
o tris
v 15.079551 0.323074 0.344404
v 13.120569 0.237247 -7.196596
v 0.045198 0.309547 0.217537
v 15.079551 0.323074 0.344404
v 15.035760 40.321098 -0.119504
v 13.120569 0.237247 -7.196596
v 13.077580 40.239010 -7.645348
v 15.035760 40.321098 -0.119504
v 13.102178 40.321579 -0.130574
v 11.397431 40.254349 -6.642733
v 13.077580 40.239010 -7.645348
v 13.102178 40.321579 -0.130574
v 13.042343 2.292120 0.296778
v 11.397431 40.254349 -6.642733
v 11.334431 2.214153 -6.196350
v 7.651529 0.169508 -12.752367
v 7.624515 40.170788 -13.185789
v 7.651529 0.169508 -12.752367
v 7.624515 40.170788 -13.185789
v 6.634750 40.184116 -11.450170
v 6.626944 2.167709 -10.980835
v 6.634750 40.184116 -11.450170
v 0.158785 0.145031 -14.822157
v 0.158785 0.145031 -14.822157
v 0.127612 40.131779 -15.251703
v 0.112273 40.152721 -13.254761
v 0.127612 40.131779 -15.251703
v 0.112273 40.152721 -13.254761
v 0.135485 2.131523 -12.769974
v -7.366966 0.155416 -12.863928
v -7.413194 40.146473 -13.293605
v -7.366966 0.155416 -12.863928
v -7.413194 40.146473 -13.293605
v -6.465171 40.173828 -11.550820
v -6.363574 2.141884 -11.084266
v -6.465171 40.173828 -11.550820
v -12.919764 0.206696 -7.389022
v -12.919764 0.206696 -7.389022
v -12.962776 40.208374 -7.837731
v -11.296099 40.221569 -6.813154
v -12.962776 40.208374 -7.837731
v -11.296099 40.221569 -6.813154
v -11.161174 2.191751 -6.365285
v -14.992456 0.285320 0.109696
v -15.035349 40.287052 -0.339065
v -14.992456 0.285320 0.109696
v -15.035349 40.287052 -0.339065
v -13.101871 40.286503 -0.327972
v -12.948630 2.263180 0.100949
v -13.101871 40.286503 -0.327972
v -13.034304 0.367317 7.635565
v -13.034304 0.367317 7.635565
v -13.076369 40.372868 7.201886
v -11.396201 40.357521 6.199267
v -13.076369 40.372868 7.201886
v -11.396201 40.357521 6.199267
v -11.259834 2.330904 6.597831
v -7.565259 0.435144 13.191263
v -7.608253 40.436813 12.742555
v -7.565259 0.435144 13.191263
v -7.608253 40.436813 12.742555
v -6.637674 40.413254 11.010678
v -6.533227 2.387600 11.378591
v -6.637674 40.413254 11.010678
v -0.068394 0.474051 15.257174
v -0.068394 0.474051 15.257174
v -0.100491 40.456997 14.812504
v -0.085151 40.436058 12.815561
v -0.100491 40.456997 14.812504
v -0.085151 40.436058 12.815561
v -0.060936 2.413549 13.171473
v 7.457396 0.463657 13.298944
v 7.425270 40.446613 12.854275
v 7.457396 0.463657 13.298944
v 7.425270 40.446613 12.854275
v 6.466460 40.438141 11.107401
v 6.453104 2.398911 11.485926
v 6.466460 40.438141 11.107401
v 13.006055 0.397953 7.827938
v 13.006055 0.397953 7.827938
v 12.963989 40.403511 7.394288
v 11.297334 40.390320 6.369760
v 12.963989 40.403511 7.394288
v 11.297334 40.390320 6.369760
v 11.235746 2.353222 6.766839
v 15.035760 40.321098 -0.119504
v 15.079551 0.323074 0.344404
v 15.035760 40.321098 -0.119504
v 13.102178 40.321579 -0.130574
v 13.042343 2.292120 0.296778
v 13.102178 40.321579 -0.130574
v 13.042343 2.292120 0.296778
v 11.235746 2.353222 6.766839
v 0.031094 2.307796 0.200317
v 6.453104 2.398911 11.485926
v -0.060936 2.413549 13.171473
v -6.533227 2.387600 11.378591
v -11.259834 2.330904 6.597831
v -12.948630 2.263180 0.100949
v -11.161174 2.191751 -6.365285
v -6.363574 2.141884 -11.084266
v 0.135485 2.131523 -12.769974
v 6.626944 2.167709 -10.980835
v 11.334431 2.214153 -6.196350
vn -0.0080 -0.9999 -0.0137
vn 0.9999 0.0161 0.0005
vn 0.8612 0.0192 -0.5078
vn 0.6777 0.7349 -0.0240
vn 0.5878 0.7348 -0.3386
vn 0.6778 0.7349 -0.0239
vn -0.6178 0.7195 0.3172
vn -0.7012 0.7126 -0.0247
vn 0.5878 0.7347 -0.3386
vn -0.7011 0.7126 -0.0248
vn -0.6177 0.7196 0.3172
vn -0.9999 0.0082 -0.0144
vn -0.8757 0.0284 0.4820
vn 0.3413 0.7270 -0.5959
vn 0.5015 0.0068 -0.8652
vn 0.3413 0.7269 -0.5959
vn -0.3509 0.7410 0.5725
vn -0.5099 0.0416 0.8592
vn -0.3509 0.7411 0.5724
vn -0.0090 0.0203 -0.9998
vn -0.0157 0.7167 -0.6972
vn -0.0218 0.7463 0.6652
vn -0.0158 0.7166 -0.6973
vn -0.0218 0.7464 0.6652
vn -0.0247 0.0403 0.9989
vn -0.3681 0.7120 -0.5980
vn -0.5023 0.0040 -0.8647
vn 0.3321 0.7387 0.5865
vn 0.4879 0.0242 0.8726
vn 0.3321 0.7388 0.5864
vn -0.8681 0.0187 -0.4961
vn -0.6126 0.7130 -0.3411
vn 0.5826 0.7414 0.3330
vn -0.6127 0.7129 -0.3411
vn 0.5825 0.7415 0.3329
vn 0.8532 0.0295 0.5207
vn -0.7011 0.7126 -0.0247
vn -0.9999 0.0083 -0.0145
vn 0.6778 0.7348 -0.0240
vn 0.9999 0.0162 0.0005
vn -0.6178 0.7196 0.3172
vn -0.6178 0.7195 0.3171
vn 0.8613 0.0192 -0.5078
vn -0.3732 0.7374 0.5630
vn -0.5157 0.0212 0.8565
vn -0.3733 0.7373 0.5631
vn 0.3320 0.7388 0.5864
vn 0.3320 0.7387 0.5865
vn -0.3457 0.7153 -0.6073
vn -0.3456 0.7154 -0.6073
vn 0.5825 0.7415 0.3330
vn 0.6778 0.7349 -0.0240
vn 0.9999 0.0161 0.0006
vn -0.9999 0.0082 -0.0145
vn -0.0161 0.9993 -0.0336
vn -0.0162 0.9998 -0.0101
vt 0.518056 -0.843618
vt 0.285071 -0.843618
vt 0.486842 -0.898919
vt 0.003595 -0.994653
vt 0.086252 -0.994653
vt 0.003595 -0.204287
vt 0.086252 -0.204287
vt 0.003256 -0.175947
vt 0.086076 -0.123641
vt 0.003256 -0.123641
vt 0.086076 -0.175947
vt 0.000000 -0.208333
vt 0.083333 -0.208333
vt -0.003906 -0.988281
vt 0.079427 -0.988281
vt 0.401563 -0.939402
vt 0.168909 -0.204287
vt 0.168909 -0.994653
vt 0.168895 -0.175947
vt 0.168895 -0.123641
vt 0.162760 -0.988281
vt 0.166667 -0.208333
vt 0.285071 -0.954220
vt 0.251566 -0.994653
vt 0.251566 -0.204287
vt 0.251715 -0.123641
vt 0.251715 -0.175947
vt 0.250000 -0.208333
vt 0.246094 -0.988281
vt 0.168579 -0.939402
vt 0.334223 -0.204287
vt 0.334223 -0.994653
vt 0.334535 -0.175947
vt 0.334535 -0.123641
vt 0.329427 -0.988281
vt 0.333333 -0.208333
vt 0.083300 -0.898919
vt 0.416880 -0.994653
vt 0.416880 -0.204287
vt 0.417354 -0.123641
vt 0.417354 -0.175947
vt 0.416667 -0.208333
vt 0.412760 -0.988281
vt 0.052086 -0.843618
vt 0.499537 -0.204287
vt 0.499537 -0.994653
vt 0.500174 -0.175947
vt 0.500174 -0.123641
vt 0.496094 -0.988281
vt 0.500000 -0.208333
vt 0.083300 -0.788317
vt 0.582194 -0.994653
vt 0.582194 -0.204287
vt 0.582993 -0.123641
vt 0.582993 -0.175947
vt 0.583333 -0.208333
vt 0.579427 -0.988281
vt 0.168579 -0.747834
vt 0.664851 -0.204287
vt 0.664851 -0.994653
vt 0.665813 -0.175947
vt 0.665813 -0.123641
vt 0.662760 -0.988281
vt 0.666667 -0.208333
vt 0.285071 -0.733016
vt 0.747509 -0.994653
vt 0.747509 -0.204287
vt 0.748632 -0.123641
vt 0.748632 -0.175947
vt 0.750000 -0.208333
vt 0.746094 -0.988281
vt 0.401563 -0.747834
vt 0.830166 -0.204287
vt 0.830166 -0.994653
vt 0.831452 -0.175947
vt 0.831452 -0.123641
vt 0.829427 -0.988281
vt 0.833333 -0.208333
vt 0.486842 -0.788317
vt 0.912823 -0.994653
vt 0.912823 -0.204287
vt 0.914272 -0.123641
vt 0.914272 -0.175947
vt 0.916667 -0.208333
vt 0.912760 -0.988281
vt 0.995480 -0.204287
vt 0.995480 -0.994653
vt 0.997091 -0.175947
vt 0.997091 -0.123641
vt 0.996094 -0.988281
vt 1.000000 -0.208333
s 1
usemtl mapobjects/barrel/skin
f 1/1/1 3/2/1 2/3/1
f 4/4/2 6/5/3 5/6/4
f 5/6/4 6/5/3 7/7/5
f 8/8/6 10/9/7 9/10/8
f 8/8/6 11/11/9 10/9/7
f 12/12/10 14/13/11 13/14/12
f 13/14/12 14/13/11 15/15/13
f 2/3/1 3/2/1 16/16/1
f 6/5/3 17/17/14 7/7/5
f 6/5/3 18/18/15 17/17/14
f 11/11/9 19/19/16 10/9/7
f 10/9/7 19/19/16 20/20/17
f 14/13/11 21/21/18 15/15/13
f 14/13/11 22/22/19 21/21/18
f 16/16/1 3/2/1 23/23/1
f 18/18/15 24/24/20 17/17/14
f 17/17/14 24/24/20 25/25/21
f 19/19/16 26/26/22 20/20/17
f 19/19/16 27/27/23 26/26/22
f 22/22/19 28/28/24 21/21/18
f 21/21/18 28/28/24 29/29/25
f 23/23/1 3/2/1 30/30/1
f 24/24/20 31/31/26 25/25/21
f 24/24/20 32/32/27 31/31/26
f 27/27/23 33/33/26 26/26/22
f 26/26/22 33/33/26 34/34/28
f 28/28/24 35/35/29 29/29/25
f 28/28/24 36/36/30 35/35/29
f 30/30/1 3/2/1 37/37/1
f 32/32/27 38/38/31 31/31/26
f 31/31/26 38/38/31 39/39/32
f 33/33/26 40/40/33 34/34/28
f 33/33/26 41/41/34 40/40/33
f 36/36/30 42/42/35 35/35/29
f 35/35/29 42/42/35 43/43/36
f 37/37/1 3/2/1 44/44/1
f 38/38/31 45/45/37 39/39/32
f 38/38/31 46/46/38 45/45/37
f 41/41/34 47/47/37 40/40/33
f 40/40/33 47/47/37 48/48/39
f 42/42/35 49/49/40 43/43/36
f 42/42/35 50/50/4 49/49/40
f 44/44/1 3/2/1 51/51/1
f 46/46/38 52/52/13 45/45/37
f 45/45/37 52/52/13 53/53/41
f 47/47/37 54/54/9 48/48/39
f 47/47/37 55/55/42 54/54/9
f 50/50/4 56/56/5 49/49/40
f 49/49/40 56/56/5 57/57/43
f 51/51/1 3/2/1 58/58/1
f 52/52/13 59/59/44 53/53/41
f 52/52/13 60/60/45 59/59/44
f 55/55/42 61/61/46 54/54/9
f 54/54/9 61/61/46 62/62/16
f 56/56/5 63/63/15 57/57/43
f 56/56/5 64/64/14 63/63/15
f 58/58/1 3/2/1 65/65/1
f 60/60/45 66/66/25 59/59/44
f 59/59/44 66/66/25 67/67/24
f 61/61/46 68/68/23 62/62/16
f 61/61/46 69/69/22 68/68/23
f 64/64/14 70/70/21 63/63/15
f 63/63/15 70/70/21 71/71/20
f 65/65/1 3/2/1 72/72/1
f 66/66/25 73/73/47 67/67/24
f 66/66/25 74/74/29 73/73/47
f 69/69/22 75/75/48 68/68/23
f 68/68/23 75/75/48 76/76/49
f 70/70/21 77/77/27 71/71/20
f 70/70/21 78/78/50 77/77/27
f 72/72/1 3/2/1 79/79/1
f 74/74/29 80/80/36 73/73/47
f 73/73/47 80/80/36 81/81/35
f 75/75/48 82/82/34 76/76/49
f 75/75/48 83/83/51 82/82/34
f 78/78/50 84/84/32 77/77/27
f 77/77/27 84/84/32 85/85/31
f 79/79/1 3/2/1 1/1/1
f 80/80/36 86/86/52 81/81/35
f 80/80/36 87/87/53 86/86/52
f 83/83/51 88/88/52 82/82/34
f 82/82/34 88/88/52 89/89/37
f 84/84/32 90/90/54 85/85/31
f 84/84/32 91/91/37 90/90/54
f 92/1/55 94/2/55 93/3/55
f 93/3/55 94/2/55 95/16/55
f 95/16/55 94/2/55 96/23/56
f 96/23/56 94/2/55 97/30/55
f 97/30/55 94/2/55 98/37/55
f 98/37/55 94/2/55 99/44/55
f 99/44/55 94/2/55 100/51/55
f 100/51/55 94/2/55 101/58/55
f 101/58/55 94/2/55 102/65/55
f 102/65/55 94/2/55 103/72/55
f 103/72/55 94/2/55 104/79/55
f 104/79/55 94/2/55 92/1/55
