usemtl grenade/skin

v -1.593750 1.187500 3.187500
v -1.593750 -1.187500 3.187500
v -3.187500 -1.187500 1.593750
v -3.187500 1.187500 1.593750
v 0.796875 -0.593750 -3.187500
v 1.187500 -0.796875 -2.390625
v 1.187500 0.796875 -2.390625
v 0.796875 0.593750 -3.187500
v 0.796875 -0.593750 3.187500
v 0.796875 0.593750 3.187500
v 1.187500 0.796875 2.390625
v 1.187500 -0.796875 2.390625
v 0.187500 1.187500 -3.187500
v -1.593750 1.187500 -3.187500
v -1.593750 -1.187500 -3.187500
v 0.187500 -1.187500 -3.187500
v 0.796875 -0.593750 -3.187500
v 0.796875 0.593750 -3.187500
v 0.390625 -1.593750 -2.390625
v 1.187500 -0.796875 -2.390625
v 0.796875 -0.593750 -3.187500
v 0.187500 -1.187500 -3.187500
v 0.796875 0.593750 -3.187500
v 1.187500 0.796875 -2.390625
v 0.390625 1.593750 -2.390625
v 0.187500 1.187500 -3.187500
v 0.390625 -1.593750 2.390625
v 0.187500 -1.187500 3.187500
v 0.796875 -0.593750 3.187500
v 1.187500 -0.796875 2.390625
v 0.796875 0.593750 3.187500
v 0.187500 1.187500 3.187500
v 0.390625 1.593750 2.390625
v 1.187500 0.796875 2.390625
v -1.187500 -1.593750 -2.390625
v 0.187500 -1.187500 -3.187500
v -1.593750 -1.187500 -3.187500
v -1.187500 1.593750 -2.390625
v -1.593750 1.187500 -3.187500
v 0.187500 1.187500 -3.187500
v 0.187500 -1.187500 3.187500
v -1.187500 -1.593750 2.390625
v -1.593750 -1.187500 3.187500
v 0.187500 1.187500 3.187500
v -1.593750 1.187500 3.187500
v -1.187500 1.593750 2.390625
v -3.187500 -1.187500 -1.593750
v -2.390625 -1.593750 -1.187500
v -1.187500 -1.593750 -2.390625
v -3.187500 -1.187500 -1.593750
v -3.187500 1.187500 -1.593750
v -1.187500 1.593750 -2.390625
v -2.390625 1.593750 -1.187500
v -3.187500 1.187500 -1.593750
v -2.390625 -1.593750 1.187500
v -2.390625 -1.593750 -1.187500
v -3.187500 -1.187500 1.593750
v -2.390625 1.593750 -1.187500
v -2.390625 1.593750 1.187500
v -3.187500 1.187500 1.593750
v -2.390625 -1.593750 1.187500
v -1.187500 -1.593750 2.390625
v -2.390625 1.593750 1.187500
v -1.187500 1.593750 2.390625
v 0.187500 1.187500 3.187500
v 0.187500 -1.187500 3.187500
v 0.796875 0.593750 3.187500
v 0.796875 -0.593750 3.187500
v 1.593750 -3.187500 -1.187500
v 1.593750 -3.187500 1.187500
v 3.187500 -1.593750 1.187500
v 3.187500 -1.593750 -1.187500
v -0.796875 3.187500 0.593750
v -1.187500 2.390625 0.796875
v -1.187500 2.390625 -0.796875
v -0.796875 3.187500 -0.593750
v -0.796875 -3.187500 0.593750
v -0.796875 -3.187500 -0.593750
v -1.187500 -2.390625 -0.796875
v -1.187500 -2.390625 0.796875
v -0.187500 3.187500 -1.187500
v 1.593750 3.187500 -1.187500
v 1.593750 3.187500 1.187500
v -0.187500 3.187500 1.187500
v -0.796875 3.187500 0.593750
v -0.796875 3.187500 -0.593750
v -0.390625 2.390625 1.593750
v -1.187500 2.390625 0.796875
v -0.796875 3.187500 0.593750
v -0.187500 3.187500 1.187500
v -0.796875 3.187500 -0.593750
v -1.187500 2.390625 -0.796875
v -0.390625 2.390625 -1.593750
v -0.187500 3.187500 -1.187500
v -0.390625 -2.390625 1.593750
v -0.187500 -3.187500 1.187500
v -0.796875 -3.187500 0.593750
v -1.187500 -2.390625 0.796875
v -0.796875 -3.187500 -0.593750
v -0.187500 -3.187500 -1.187500
v -0.390625 -2.390625 -1.593750
v -1.187500 -2.390625 -0.796875
v 1.187500 2.390625 1.593750
v -0.187500 3.187500 1.187500
v 1.593750 3.187500 1.187500
v 1.187500 2.390625 -1.593750
v 1.593750 3.187500 -1.187500
v -0.187500 3.187500 -1.187500
v -0.187500 -3.187500 1.187500
v 1.187500 -2.390625 1.593750
v 1.593750 -3.187500 1.187500
v -0.187500 -3.187500 -1.187500
v 1.593750 -3.187500 -1.187500
v 1.187500 -2.390625 -1.593750
v 3.187500 1.593750 1.187500
v 2.390625 1.187500 1.593750
v 1.187500 2.390625 1.593750
v 3.187500 1.593750 1.187500
v 3.187500 1.593750 -1.187500
v 1.187500 2.390625 -1.593750
v 2.390625 1.187500 -1.593750
v 3.187500 1.593750 -1.187500
v 2.390625 -1.187500 1.593750
v 2.390625 1.187500 1.593750
v 3.187500 -1.593750 1.187500
v 2.390625 1.187500 -1.593750
v 2.390625 -1.187500 -1.593750
v 3.187500 -1.593750 -1.187500
v 2.390625 -1.187500 1.593750
v 1.187500 -2.390625 1.593750
v 2.390625 -1.187500 -1.593750
v 1.187500 -2.390625 -1.593750
v -0.187500 -3.187500 -1.187500
v -0.187500 -3.187500 1.187500
v -0.796875 -3.187500 -0.593750
v -0.796875 -3.187500 0.593750
v -1.187500 -2.390625 0.796875
v -1.187500 -2.390625 -0.796875
v -2.390625 -1.593750 -1.187500
v -2.390625 -1.593750 1.187500
v -0.390625 -2.390625 1.593750
v -1.187500 -1.593750 2.390625
v 1.187500 -2.390625 1.593750
v 0.390625 -1.593750 2.390625
v 2.390625 -1.187500 1.593750
v 1.187500 -0.796875 2.390625
v 2.390625 1.187500 1.593750
v 1.187500 0.796875 2.390625
v 1.187500 2.390625 1.593750
v 0.390625 1.593750 2.390625
v -1.187500 1.593750 2.390625
v -0.390625 2.390625 1.593750
v -1.187500 2.390625 0.796875
v -2.390625 1.593750 1.187500
v -1.187500 2.390625 -0.796875
v -2.390625 1.593750 -1.187500
v -0.390625 2.390625 -1.593750
v -1.187500 2.390625 -0.796875
v -2.390625 1.593750 -1.187500
v -1.187500 1.593750 -2.390625
v 1.187500 2.390625 -1.593750
v 0.390625 1.593750 -2.390625
v 2.390625 1.187500 -1.593750
v 1.187500 0.796875 -2.390625
v 2.390625 -1.187500 -1.593750
v 1.187500 -0.796875 -2.390625
v 1.187500 -2.390625 -1.593750
v 0.390625 -1.593750 -2.390625
v -1.187500 -1.593750 -2.390625
v -0.390625 -2.390625 -1.593750
v -1.187500 -2.390625 -0.796875
v -2.390625 -1.593750 -1.187500

vn -0.332968 0.492898 0.803856
vn -0.306852 -0.653173 0.692248
vn -0.852951 -0.359895 0.378087
vn -0.747444 0.575808 0.331319
vn 0.714111 -0.266713 -0.647232
vn 0.642642 -0.290285 -0.709046
vn 0.710331 0.195090 -0.676291
vn 0.527530 0.313682 -0.789504
vn 0.714111 -0.266713 0.647232
vn 0.527530 0.313682 0.789504
vn 0.698012 0.266713 0.664563
vn 0.658655 -0.195090 0.726714
vn 0.127668 0.492898 -0.860670
vn -0.402986 0.575808 -0.711370
vn -0.265015 -0.534998 -0.802212
vn 0.131063 -0.449611 -0.883556
vn 0.714111 -0.266713 -0.647232
vn 0.527530 0.313682 -0.789504
vn 0.372337 -0.689541 -0.621207
vn 0.642642 -0.290285 -0.709046
vn 0.714111 -0.266713 -0.647232
vn 0.131063 -0.449611 -0.883556
vn 0.527530 0.313682 -0.789504
vn 0.710331 0.195090 -0.676291
vn 0.365213 0.671559 -0.644692
vn 0.127668 0.492898 -0.860670
vn 0.381015 -0.634393 0.672586
vn 0.113093 -0.382683 0.916932
vn 0.714111 -0.266713 0.647232
vn 0.658655 -0.195090 0.726714
vn 0.527530 0.313682 0.789504
vn 0.156698 0.595699 0.787774
vn 0.363526 0.707107 0.606506
vn 0.698012 0.266713 0.664563
vn -0.161274 -0.831470 -0.531648
vn 0.131063 -0.449611 -0.883556
vn -0.265015 -0.534998 -0.802212
vn -0.112641 0.857729 -0.501611
vn -0.402986 0.575808 -0.711370
vn 0.127668 0.492898 -0.860670
vn 0.113093 -0.382683 0.916932
vn -0.121726 -0.831470 0.542071
vn -0.306852 -0.653173 0.692248
vn 0.156698 0.595699 0.787774
vn -0.332968 0.492898 0.803856
vn -0.149236 0.857729 0.491966
vn -0.754644 -0.534998 -0.379856
vn -0.455379 -0.870087 -0.188624
vn -0.161274 -0.831470 -0.531648
vn -0.754644 -0.534998 -0.379856
vn -0.787969 0.575808 -0.218060
vn -0.112641 0.857729 -0.501611
vn -0.398261 0.881921 -0.252196
vn -0.787969 0.575808 -0.218060
vn -0.434697 -0.870087 0.232351
vn -0.455379 -0.870087 -0.188624
vn -0.852951 -0.359895 0.378087
vn -0.398261 0.881921 -0.252196
vn -0.423329 0.893224 0.151469
vn -0.747444 0.575808 0.331319
vn -0.434697 -0.870087 0.232351
vn -0.121726 -0.831470 0.542071
vn -0.423329 0.893224 0.151469
vn -0.149236 0.857729 0.491966
vn 0.156698 0.595699 0.787774
vn 0.113093 -0.382683 0.916932
vn 0.527530 0.313682 0.789504
vn 0.714111 -0.266713 0.647232
vn 0.378510 -0.788346 -0.485016
vn 0.333140 -0.671559 0.661836
vn 0.869873 -0.336890 0.360313
vn 0.782380 -0.290285 -0.551014
vn -0.677385 0.671559 0.300264
vn -0.608120 0.724247 0.325047
vn -0.698012 0.689541 -0.193166
vn -0.486474 0.817585 -0.308056
vn -0.706694 -0.634393 0.313256
vn -0.519781 -0.788346 -0.329147
vn -0.684550 -0.671559 -0.283550
vn -0.665772 -0.707107 0.238217
vn -0.103284 0.881921 -0.459943
vn 0.424227 0.724247 -0.543597
vn 0.276615 0.788346 0.549540
vn -0.103284 0.881921 0.459943
vn -0.677385 0.671559 0.300264
vn -0.486474 0.817585 -0.308056
vn -0.330505 0.634393 0.698793
vn -0.608120 0.724247 0.325047
vn -0.677385 0.671559 0.300264
vn -0.103284 0.881921 0.459943
vn -0.486474 0.817585 -0.308056
vn -0.698012 0.689541 -0.193166
vn -0.349282 0.671559 -0.653461
vn -0.103284 0.881921 -0.459943
vn -0.356946 -0.653173 0.667799
vn -0.098510 -0.893224 0.438687
vn -0.706694 -0.634393 0.313256
vn -0.665772 -0.707107 0.238217
vn -0.519781 -0.788346 -0.329147
vn -0.134798 -0.788346 -0.600283
vn -0.337062 -0.615232 -0.712657
vn -0.684550 -0.671559 -0.283550
vn 0.187929 0.514103 0.836888
vn -0.103284 0.881921 0.459943
vn 0.276615 0.788346 0.549540
vn 0.144438 0.534998 -0.832415
vn 0.424227 0.724247 -0.543597
vn -0.103284 0.881921 -0.459943
vn -0.098510 -0.893224 0.438687
vn 0.146639 -0.514103 0.845101
vn 0.333140 -0.671559 0.661836
vn -0.134798 -0.788346 -0.600283
vn 0.378510 -0.788346 -0.485016
vn 0.190637 -0.492898 -0.848946
vn 0.755350 0.382683 0.531977
vn 0.440972 0.195090 0.876061
vn 0.187929 0.514103 0.836888
vn 0.755350 0.382683 0.531977
vn 0.811267 0.219101 -0.542071
vn 0.144438 0.534998 -0.832415
vn 0.433325 0.266713 -0.860868
vn 0.811267 0.219101 -0.542071
vn 0.440972 -0.195090 0.876061
vn 0.440972 0.195090 0.876061
vn 0.869873 -0.336890 0.360313
vn 0.433325 0.266713 -0.860868
vn 0.467852 -0.122411 -0.875289
vn 0.782380 -0.290285 -0.551014
vn 0.440972 -0.195090 0.876061
vn 0.146639 -0.514103 0.845101
vn 0.467852 -0.122411 -0.875289
vn 0.190637 -0.492898 -0.848946
vn -0.134798 -0.788346 -0.600283
vn -0.098510 -0.893224 0.438687
vn -0.519781 -0.788346 -0.329147
vn -0.706694 -0.634393 0.313256
vn -0.665772 -0.707107 0.238217
vn -0.684550 -0.671559 -0.283550
vn -0.455379 -0.870087 -0.188624
vn -0.434697 -0.870087 0.232351
vn -0.356946 -0.653173 0.667799
vn -0.121726 -0.831470 0.542071
vn 0.146639 -0.514103 0.845101
vn 0.381015 -0.634393 0.672586
vn 0.440972 -0.195090 0.876061
vn 0.658655 -0.195090 0.726714
vn 0.440972 0.195090 0.876061
vn 0.698012 0.266713 0.664563
vn 0.187929 0.514103 0.836888
vn 0.363526 0.707107 0.606506
vn -0.149236 0.857729 0.491966
vn -0.330505 0.634393 0.698793
vn -0.608120 0.724247 0.325047
vn -0.423329 0.893224 0.151469
vn -0.698012 0.689541 -0.193166
vn -0.398261 0.881921 -0.252196
vn -0.349282 0.671559 -0.653461
vn -0.698012 0.689541 -0.193166
vn -0.398261 0.881921 -0.252196
vn -0.112641 0.857729 -0.501611
vn 0.144438 0.534998 -0.832415
vn 0.365213 0.671559 -0.644692
vn 0.433325 0.266713 -0.860868
vn 0.710331 0.195090 -0.676291
vn 0.467852 -0.122411 -0.875289
vn 0.642642 -0.290285 -0.709046
vn 0.190637 -0.492898 -0.848946
vn 0.372337 -0.689541 -0.621207
vn -0.161274 -0.831470 -0.531648
vn -0.337062 -0.615232 -0.712657
vn -0.684550 -0.671559 -0.283550
vn -0.455379 -0.870087 -0.188624

vt 0.287500 -0.354336
vt 0.287500 -0.632773
vt 0.414062 -0.632773
vt 0.414062 -0.354336
vt 0.857207 -0.556484
vt 0.906641 -0.581797
vt 0.906641 -0.404609
vt 0.857207 -0.429922
vt 0.148457 -0.556484
vt 0.148457 -0.429922
vt 0.097832 -0.404609
vt 0.097832 -0.581797
vt 0.819062 -0.354336
vt 0.717812 -0.354336
vt 0.717812 -0.632773
vt 0.819062 -0.632773
vt 0.857031 -0.556836
vt 0.857031 -0.430273
vt 0.831895 -0.732826
vt 0.882519 -0.732826
vt 0.882519 -0.631576
vt 0.831895 -0.631576
vt 0.882519 -0.353984
vt 0.882519 -0.252734
vt 0.831895 -0.252734
vt 0.831895 -0.353984
vt 0.173770 -0.732826
vt 0.173770 -0.631576
vt 0.123145 -0.631576
vt 0.123145 -0.732826
vt 0.123145 -0.353984
vt 0.173770 -0.353984
vt 0.173770 -0.252734
vt 0.123145 -0.252734
vt 0.744883 -0.732826
vt 0.819238 -0.631576
vt 0.717988 -0.631576
vt 0.743301 -0.252734
vt 0.717988 -0.353984
vt 0.819238 -0.353984
vt 0.181680 -0.631576
vt 0.262363 -0.732826
vt 0.287676 -0.631576
vt 0.181680 -0.353984
vt 0.287676 -0.353984
vt 0.262363 -0.252734
vt 0.591426 -0.631576
vt 0.604082 -0.732826
vt 0.705332 -0.732826
vt 0.591250 -0.632773
vt 0.591250 -0.354336
vt 0.705332 -0.252734
vt 0.604082 -0.252734
vt 0.591426 -0.353984
vt 0.426895 -0.732826
vt 0.578770 -0.732826
vt 0.414238 -0.631576
vt 0.578770 -0.252734
vt 0.434805 -0.252734
vt 0.414238 -0.353984
vt 0.401582 -0.732826
vt 0.300332 -0.732826
vt 0.401582 -0.252734
vt 0.300332 -0.252734
vt 0.181504 -0.354336
vt 0.181504 -0.632773
vt 0.148281 -0.430273
vt 0.148281 -0.556836
vt 0.287500 -0.354336
vt 0.287500 -0.632773
vt 0.414062 -0.632773
vt 0.414062 -0.354336
vt 0.857207 -0.556484
vt 0.906641 -0.581797
vt 0.906641 -0.404609
vt 0.857207 -0.429922
vt 0.148457 -0.556484
vt 0.148457 -0.429922
vt 0.097832 -0.404609
vt 0.097832 -0.581797
vt 0.819062 -0.354336
vt 0.717812 -0.354336
vt 0.717812 -0.632773
vt 0.819062 -0.632773
vt 0.857031 -0.556836
vt 0.857031 -0.430273
vt 0.831895 -0.732826
vt 0.882519 -0.732826
vt 0.882519 -0.631576
vt 0.831895 -0.631576
vt 0.882519 -0.353984
vt 0.882519 -0.252734
vt 0.831895 -0.252734
vt 0.831895 -0.353984
vt 0.173770 -0.732826
vt 0.173770 -0.631576
vt 0.123145 -0.631576
vt 0.123145 -0.732826
vt 0.123145 -0.353984
vt 0.173770 -0.353984
vt 0.173770 -0.252734
vt 0.123145 -0.252734
vt 0.744883 -0.732826
vt 0.819238 -0.631576
vt 0.717988 -0.631576
vt 0.743301 -0.252734
vt 0.717988 -0.353984
vt 0.819238 -0.353984
vt 0.181680 -0.631576
vt 0.262363 -0.732826
vt 0.287676 -0.631576
vt 0.181680 -0.353984
vt 0.287676 -0.353984
vt 0.262363 -0.252734
vt 0.591426 -0.631576
vt 0.604082 -0.732826
vt 0.705332 -0.732826
vt 0.591250 -0.632773
vt 0.591250 -0.354336
vt 0.705332 -0.252734
vt 0.604082 -0.252734
vt 0.591426 -0.353984
vt 0.426895 -0.732826
vt 0.578770 -0.732826
vt 0.414238 -0.631576
vt 0.578770 -0.252734
vt 0.434805 -0.252734
vt 0.414238 -0.353984
vt 0.401582 -0.732826
vt 0.300332 -0.732826
vt 0.401582 -0.252734
vt 0.300332 -0.252734
vt 0.181504 -0.354336
vt 0.181504 -0.632773
vt 0.148281 -0.430273
vt 0.148281 -0.556836
vt 0.250662 -0.994141
vt 0.378684 -0.994141
vt 0.422852 -0.828451
vt 0.299712 -0.828451
vt 0.171413 -0.994141
vt 0.225271 -0.828451
vt 0.075418 -0.994141
vt 0.125370 -0.828451
vt 0.000000 -0.743981
vt 0.084207 -0.662760
vt 0.000000 -0.250160
vt 0.084207 -0.331380
vt 0.075418 -0.000000
vt 0.125370 -0.165690
vt 0.224294 -0.165690
vt 0.174342 -0.000000
vt 0.252615 -0.000000
vt 0.299712 -0.165690
vt 0.374778 -0.000000
vt 0.420898 -0.165690
vt 0.823704 -0.000000
vt 0.722879 -0.000000
vt 0.666992 -0.165690
vt 0.773752 -0.165690
vt 0.922629 -0.000000
vt 0.872677 -0.165690
vt 0.998047 -0.250160
vt 0.915793 -0.331380
vt 0.998047 -0.743981
vt 0.915793 -0.662760
vt 0.922629 -0.994141
vt 0.872677 -0.828451
vt 0.773752 -0.828451
vt 0.823704 -0.994141
vt 0.722879 -0.994141
vt 0.666992 -0.828451

f 1/1/1 3/3/3 2/2/2
f 1/1/1 4/4/4 3/3/3
f 5/5/5 7/7/7 6/6/6
f 5/5/5 8/8/8 7/7/7
f 9/9/9 11/11/11 10/10/10
f 9/9/9 12/12/12 11/11/11
f 13/13/13 15/15/15 14/14/14
f 13/13/13 16/16/16 15/15/15
f 16/16/16 18/18/18 17/17/17
f 16/16/16 13/13/13 18/18/18
f 19/19/19 21/21/21 20/20/20
f 19/19/19 22/22/22 21/21/21
f 23/23/23 25/25/25 24/24/24
f 23/23/23 26/26/26 25/25/25
f 27/27/27 29/29/29 28/28/28
f 27/27/27 30/30/30 29/29/29
f 31/31/31 33/33/33 32/32/32
f 31/31/31 34/34/34 33/33/33
f 35/35/35 36/36/36 19/19/19
f 35/35/35 37/37/37 36/36/36
f 38/38/38 40/40/40 39/39/39
f 38/38/38 25/25/25 40/40/40
f 41/41/41 42/42/42 27/27/27
f 41/41/41 43/43/43 42/42/42
f 44/44/44 46/46/46 45/45/45
f 44/44/44 33/33/33 46/46/46
f 37/37/37 48/48/48 47/47/47
f 37/37/37 49/49/49 48/48/48
f 50/50/50 14/14/14 15/15/15
f 50/50/50 51/51/51 14/14/14
f 39/39/39 53/53/53 52/52/52
f 39/39/39 54/54/54 53/53/53
f 55/55/55 47/47/47 56/56/56
f 55/55/55 57/57/57 47/47/47
f 51/51/51 3/3/3 4/4/4
f 51/51/51 50/50/50 3/3/3
f 54/54/54 59/59/59 58/58/58
f 54/54/54 60/60/60 59/59/59
f 61/61/61 43/43/43 57/57/57
f 61/61/61 62/62/62 43/43/43
f 45/45/45 63/63/63 60/60/60
f 45/45/45 64/64/64 63/63/63
f 1/1/1 66/66/66 65/65/65
f 1/1/1 2/2/2 66/66/66
f 67/67/67 66/66/66 68/68/68
f 67/67/67 65/65/65 66/66/66
f 69/69/69 71/71/71 70/70/70
f 69/69/69 72/72/72 71/71/71
f 73/73/73 75/75/75 74/74/74
f 73/73/73 76/76/76 75/75/75
f 77/77/77 79/79/79 78/78/78
f 77/77/77 80/80/80 79/79/79
f 81/81/81 83/83/83 82/82/82
f 81/81/81 84/84/84 83/83/83
f 84/84/84 86/86/86 85/85/85
f 84/84/84 81/81/81 86/86/86
f 87/87/87 89/89/89 88/88/88
f 87/87/87 90/90/90 89/89/89
f 91/91/91 93/93/93 92/92/92
f 91/91/91 94/94/94 93/93/93
f 95/95/95 97/97/97 96/96/96
f 95/95/95 98/98/98 97/97/97
f 99/99/99 101/101/101 100/100/100
f 99/99/99 102/102/102 101/101/101
f 103/103/103 104/104/104 87/87/87
f 103/103/103 105/105/105 104/104/104
f 106/106/106 108/108/108 107/107/107
f 106/106/106 93/93/93 108/108/108
f 109/109/109 110/110/110 95/95/95
f 109/109/109 111/111/111 110/110/110
f 112/112/112 114/114/114 113/113/113
f 112/112/112 101/101/101 114/114/114
f 105/105/105 116/116/116 115/115/115
f 105/105/105 117/117/117 116/116/116
f 118/118/118 82/82/82 83/83/83
f 118/118/118 119/119/119 82/82/82
f 107/107/107 121/121/121 120/120/120
f 107/107/107 122/122/122 121/121/121
f 123/123/123 115/115/115 124/124/124
f 123/123/123 125/125/125 115/115/115
f 119/119/119 71/71/71 72/72/72
f 119/119/119 118/118/118 71/71/71
f 122/122/122 127/127/127 126/126/126
f 122/122/122 128/128/128 127/127/127
f 129/129/129 111/111/111 125/125/125
f 129/129/129 130/130/130 111/111/111
f 113/113/113 131/131/131 128/128/128
f 113/113/113 132/132/132 131/131/131
f 69/69/69 134/134/134 133/133/133
f 69/69/69 70/70/70 134/134/134
f 135/135/135 134/134/134 136/136/136
f 135/135/135 133/133/133 134/134/134
f 137/137/137 139/139/139 138/138/138
f 137/137/137 140/140/140 139/139/139
f 141/141/141 140/140/140 137/137/137
f 141/141/141 142/142/142 140/140/140
f 143/143/143 142/142/142 141/141/141
f 143/143/143 144/144/144 142/142/142
f 145/145/145 144/144/144 143/143/143
f 145/145/145 146/146/146 144/144/144
f 147/147/147 146/146/146 145/145/145
f 147/147/147 148/148/148 146/146/146
f 149/149/149 148/148/148 147/147/147
f 149/149/149 150/150/150 148/148/148
f 149/149/149 151/151/151 150/150/150
f 149/149/149 152/152/152 151/151/151
f 153/153/153 151/151/151 152/152/152
f 153/153/153 154/154/154 151/151/151
f 155/155/155 154/154/154 153/153/153
f 155/155/155 156/156/156 154/154/154
f 157/157/157 159/159/159 158/158/158
f 157/157/157 160/160/160 159/159/159
f 161/161/161 160/160/160 157/157/157
f 161/161/161 162/162/162 160/160/160
f 163/163/163 162/162/162 161/161/161
f 163/163/163 164/164/164 162/162/162
f 165/165/165 164/164/164 163/163/163
f 165/165/165 166/166/166 164/164/164
f 167/167/167 166/166/166 165/165/165
f 167/167/167 168/168/168 166/166/166
f 167/167/167 169/169/169 168/168/168
f 167/167/167 170/170/170 169/169/169
f 171/171/171 169/169/169 170/170/170
f 171/171/171 172/172/172 169/169/169
