# Wavefront OBJ exported by MilkShape 3D

v -8.285446 3.053944 1.500000
v -8.285446 3.053944 -1.500000
v -8.285446 0.603958 -1.500000
v -8.285446 0.603958 1.500000
v -10.368017 0.603958 -1.500000
v -10.368017 0.603958 1.500000
v -10.368017 3.053944 -1.500000
v -10.368017 3.053944 1.500000
v -11.545427 3.053944 -1.500000
v -11.545427 3.053944 1.500000
v -11.545427 -3.064771 -1.500000
v -11.545427 -3.064771 1.500000
v -10.368017 -3.064771 -1.500000
v -10.368017 -3.064771 1.500000
v -10.368017 -0.434786 -1.500000
v -10.368017 -0.434786 1.500000
v -8.285446 -0.434786 -1.500000
v -8.285446 -0.434786 1.500000
v -8.285446 -3.064771 -1.500000
v -8.285446 -3.064771 1.500000
v -7.108036 -3.064771 -1.500000
v -7.108036 -3.064771 1.500000
v -7.108036 3.053944 -1.500000
v -7.108036 3.053944 1.500000
v -8.285446 3.053944 1.500000
v -4.623793 3.053944 1.500000
v -4.623793 3.053944 -1.500000
v -6.356091 -3.064771 -1.500000
v -6.356091 -3.064771 1.500000
v -5.164143 -3.064771 -1.500000
v -5.164143 -3.064771 1.500000
v -4.742989 -1.444780 -1.500000
v -4.742989 -1.444780 1.500000
v -3.106046 -1.444780 -1.500000
v -3.106046 -1.444780 1.500000
v -2.668999 -3.064771 -1.500000
v -2.668999 -3.064771 1.500000
v -1.437370 -3.064771 -1.500000
v -1.437370 -3.064771 1.500000
v -3.145778 3.053944 -1.500000
v -3.145778 3.053944 1.500000
v -4.210585 0.843431 1.500000
v -4.210585 0.843431 -1.500000
v -4.143786 1.120633 -1.500000
v -4.143786 1.120633 1.500000
v -4.001248 1.790608 -1.500000
v -4.001248 1.790608 1.500000
v -3.940410 2.085199 -1.500000
v -3.940410 2.085199 1.500000
v -3.916571 2.085199 -1.500000
v -3.916571 2.085199 1.500000
v -3.855980 1.797547 -1.500000
v -3.855980 1.797547 1.500000
v -3.710959 1.129780 -1.500000
v -3.710959 1.129780 1.500000
v -3.638450 0.836173 -1.500000
v -3.638450 0.836173 1.500000
v -3.272919 -0.556035 -1.500000
v -3.272919 -0.556035 1.500000
v -4.576115 -0.556035 -1.500000
v -4.576115 -0.556035 1.500000
v -0.904709 -2.801609 1.500000
v -0.904709 -2.801609 -1.500000
v -0.679262 -2.937901 -1.500000
v -0.679262 -2.937901 1.500000
v 0.136219 -3.138859 -1.500000
v 0.136219 -3.138859 1.500000
v 0.600802 -3.143832 -1.500000
v 0.600802 -3.143832 1.500000
v 1.676291 -3.128416 -1.500000
v 1.676291 -3.128416 1.500000
v 2.825991 -2.112651 -1.500000
v 2.825991 -2.112651 1.500000
v 2.834938 -0.697814 -1.500000
v 2.834938 -0.697814 1.500000
v 2.145382 0.184740 -1.500000
v 2.145382 0.184740 1.500000
v 0.856330 0.754371 -1.500000
v 0.856330 0.754371 1.500000
v 0.357231 1.172266 -1.500000
v 0.357231 1.172266 1.500000
v 0.361713 1.488670 -1.500000
v 0.361713 1.488670 1.500000
v 0.359721 1.755580 -1.500000
v 0.359721 1.755580 1.500000
v 0.798052 2.155107 -1.500000
v 0.798052 2.155107 1.500000
v 1.262285 2.165309 -1.500000
v 1.262285 2.165309 1.500000
v 1.639796 2.159336 -1.500000
v 1.639796 2.159336 1.500000
v 2.191473 1.992138 -1.500000
v 2.191473 1.992138 1.500000
v 2.353765 1.902586 -1.500000
v 2.353765 1.902586 1.500000
v 2.600696 2.865391 -1.500000
v 2.600696 2.865391 1.500000
v 2.384886 2.976768 -1.500000
v 2.384886 2.976768 1.500000
v 1.723188 3.139854 -1.500000
v 1.723188 3.139854 1.500000
v 1.286194 3.143833 -1.500000
v 1.286194 3.143833 1.500000
v 0.286174 3.126942 -1.500000
v 0.286174 3.126942 1.500000
v -0.817205 2.138322 -1.500000
v -0.817205 2.138322 1.500000
v -0.825155 1.369272 -1.500000
v -0.825155 1.369272 1.500000
v -0.818191 0.773773 -1.500000
v -0.818191 0.773773 1.500000
v -0.027559 -0.100821 -1.500000
v -0.027559 -0.100821 1.500000
v 1.177856 -0.612245 -1.500000
v 1.177856 -0.612245 1.500000
v 1.647570 -1.070934 -1.500000
v 1.647570 -1.070934 1.500000
v 1.643835 -1.738321 -1.500000
v 1.643835 -1.738321 1.500000
v 1.139751 -2.151739 -1.500000
v 1.139751 -2.151739 1.500000
v 0.648621 -2.156963 -1.500000
v 0.648621 -2.156963 1.500000
v 0.271643 -2.153481 -1.500000
v 0.271643 -2.153481 1.500000
v -0.428376 -1.961449 -1.500000
v -0.428376 -1.961449 1.500000
v -0.673809 -1.814688 -1.500000
v -0.673809 -1.814688 1.500000
v 3.240982 3.053722 1.500000
v 3.240982 3.053722 -1.500000
v 3.240982 2.035421 -1.500000
v 3.240982 2.035421 1.500000
v 4.744566 2.035421 -1.500000
v 4.744566 2.035421 1.500000
v 4.744566 -3.064771 -1.500000
v 4.744566 -3.064771 1.500000
v 5.921978 -3.064771 -1.500000
v 5.921978 -3.064771 1.500000
v 5.921978 2.035421 -1.500000
v 5.921978 2.035421 1.500000
v 7.433517 2.035421 -1.500000
v 7.433517 2.035421 1.500000
v 7.433517 3.053722 -1.500000
v 7.433517 3.053722 1.500000
v 9.301983 -2.076963 1.500000
v 9.301983 -2.076963 -1.500000
v 9.301983 -0.374786 -1.500000
v 9.301983 -0.374786 1.500000
v 11.298807 -0.374786 -1.500000
v 11.298807 -0.374786 1.500000
v 11.298807 0.583958 -1.500000
v 11.298807 0.583958 1.500000
v 9.301983 0.583958 -1.500000
v 9.301983 0.583958 1.500000
v 9.301983 2.066136 -1.500000
v 9.301983 2.066136 1.500000
v 11.418139 2.066136 -1.500000
v 11.418139 2.066136 1.500000
v 11.418139 3.053005 -1.500000
v 11.418139 3.053005 1.500000
v 8.124571 3.053005 -1.500000
v 8.124571 3.053005 1.500000
v 8.124571 -3.063833 -1.500000
v 8.124571 -3.063833 1.500000
v 11.545427 -3.063833 -1.500000
v 11.545427 -3.063833 1.500000
v 11.545427 -2.076963 -1.500000
v 11.545427 -2.076963 1.500000
# 169 vertices

vt 0.000000 1.000000
# 1 texture coordinates

vn -1.000000 0.000000 0.000000
vn -0.333333 0.666667 -0.666667
vn -0.534522 0.267261 -0.801784
vn -0.267261 0.534522 0.801784
vn 0.333333 0.666667 -0.666667
vn 0.666667 0.333333 0.666667
vn 0.816497 0.408248 -0.408248
vn 0.408248 0.816497 0.408248
vn -0.666667 0.333333 0.666667
vn -0.816497 -0.408248 -0.408248
vn -0.408248 -0.816497 0.408248
vn 0.333333 -0.666667 -0.666667
vn 0.666667 -0.333333 0.666667
vn 0.816497 -0.408248 -0.408248
vn 0.408248 -0.816497 0.408248
vn -0.218218 -0.436436 -0.872872
vn -0.436436 -0.218218 0.872872
vn 0.218218 -0.436436 -0.872872
vn 0.436436 -0.218218 0.872872
vn 0.000000 0.447214 0.894427
vn -0.345127 0.277057 0.896731
vn -0.172564 0.407548 -0.896731
vn -0.868421 -0.205414 -0.451277
vn -0.434210 -0.779622 0.451277
vn 0.305956 -0.711792 -0.632252
vn 0.611912 -0.475207 0.632252
vn 0.499677 -0.388046 -0.774431
vn 0.249839 -0.581238 0.774431
vn -0.173289 -0.405719 -0.897420
vn -0.346577 -0.272985 0.897420
vn -0.727662 -0.573150 -0.376839
vn -0.363831 -0.851833 0.376839
vn 0.342152 -0.614944 -0.710476
vn 0.684303 -0.164174 0.710476
vn 0.230115 0.183709 -0.955666
vn 0.115058 0.271042 0.955666
vn 0.807634 -0.200044 0.554716
vn 0.806350 -0.205160 -0.554716
vn 0.810588 -0.187673 -0.554731
vn 0.812234 -0.180414 0.554731
vn 0.928306 -0.195568 -0.316229
vn 0.928693 -0.193721 0.316229
vn 0.302918 -0.217214 -0.927932
vn 0.151459 -0.340590 0.927932
vn -0.312190 -0.703840 -0.638081
vn -0.624379 -0.450559 0.638081
vn -0.813824 -0.173194 -0.554702
vn -0.813462 -0.174888 0.554702
vn -0.811375 -0.184230 -0.554734
vn -0.809603 -0.191867 0.554734
vn -0.806792 -0.203430 -0.554709
vn -0.805790 -0.207365 0.554709
vn -0.536842 0.136568 -0.832556
vn -0.268421 0.484562 0.832556
vn 0.179701 0.324524 -0.928651
vn 0.359403 0.091857 0.928651
vn -0.746668 -0.551610 0.371771
vn -0.916327 -0.148766 -0.371771
vn -0.355825 -0.749231 -0.558607
vn -0.278156 -0.781401 0.558607
vn -0.098057 -0.589623 -0.801704
vn -0.052247 -0.595433 0.801704
vn -0.001668 -0.707080 -0.707131
vn 0.004234 -0.707069 0.707131
vn 0.104096 -0.414292 -0.904172
vn 0.201713 -0.376545 0.904172
vn 0.680435 -0.440648 -0.585523
vn 0.779351 -0.223101 0.585523
vn 0.922359 0.199504 -0.330837
vn 0.852227 0.405285 0.330837
vn 0.341989 0.370630 -0.863526
vn 0.275704 0.422268 0.863526
vn 0.404708 0.724404 -0.558077
vn 0.471059 0.683120 0.558077
vn 0.400465 0.266401 -0.876732
vn 0.463226 0.129475 0.876732
vn 0.948655 -0.006599 -0.316243
vn 0.948678 0.000241 0.316243
vn 0.549506 -0.148833 -0.822127
vn 0.482433 -0.302267 0.822127
vn 0.395024 -0.714865 -0.576996
vn 0.207019 -0.790075 0.576996
vn 0.007800 -0.831973 -0.554761
vn -0.002682 -0.832005 0.554761
vn -0.076148 -0.699918 -0.710153
vn -0.141062 -0.689772 0.710153
vn -0.251216 -0.659120 -0.708838
vn -0.296837 -0.639872 0.708838
vn 0.000848 -0.707024 -0.707189
vn 0.514188 -0.485277 0.707189
vn 0.912513 0.149212 -0.380862
vn 0.718261 0.582276 0.380862
vn 0.273434 0.649744 -0.709272
vn 0.221583 0.669204 0.709272
vn 0.115301 0.695483 -0.709231
vn 0.060879 0.702343 0.709231
vn 0.000226 0.514467 -0.857510
vn -0.004231 0.514450 0.857510
vn -0.143039 0.559940 -0.816093
vn -0.275741 0.507897 0.816093
vn -0.571282 0.367031 -0.734115
vn -0.652679 0.187309 0.734115
vn -0.948674 0.002839 -0.316243
vn -0.948669 -0.004128 0.316243
vn -0.791507 -0.200351 -0.577388
vn -0.716991 -0.390573 0.577388
vn -0.377660 -0.455756 -0.806015
vn -0.306883 -0.506126 0.806015
vn -0.297596 -0.514144 -0.804420
vn -0.359555 -0.472894 0.804420
vn -0.585256 -0.347962 -0.732392
vn -0.658818 -0.171932 0.732392
vn -0.774945 0.230769 -0.588392
vn -0.667316 0.456600 0.588392
vn -0.367366 0.731437 -0.574493
vn -0.188266 0.796564 0.574493
vn -0.002837 0.707086 -0.707122
vn 0.001848 0.707089 0.707122
vn 0.066958 0.701283 -0.709732
vn 0.127359 0.692864 0.709732
vn 0.290725 0.777359 -0.557846
vn 0.360082 0.747763 0.557846
vn 0.014745 0.543814 -0.839076
vn -0.401134 0.367481 0.839076
vn -0.182574 -0.365148 -0.912871
vn -0.365148 -0.182574 0.912871
vn 0.534522 -0.267261 -0.801784
vn 0.267261 -0.534522 0.801784
vn 0.408248 -0.816497 -0.408248
vn 0.816497 -0.408248 0.408248
vn 0.534522 0.267261 -0.801784
vn 0.267261 0.534522 0.801784
vn 0.436436 0.218218 0.872872
vn 0.218218 0.436436 -0.872872
vn 0.666667 0.333333 -0.666667
vn 0.333333 0.666667 0.666667
vn -0.267261 0.534522 -0.801784
vn -0.534522 0.267261 0.801784
vn -0.666667 -0.333333 -0.666667
vn -0.333333 -0.666667 0.666667
# 140 normals

g Text
s 1
f 1/1/1 2/1/2 3/1/3
f 1/1/1 3/1/3 4/1/4
f 4/1/4 3/1/3 5/1/5
f 4/1/4 5/1/5 6/1/6
f 6/1/6 5/1/5 7/1/7
f 6/1/6 7/1/7 8/1/8
f 8/1/8 7/1/7 9/1/2
f 8/1/8 9/1/2 10/1/9
f 10/1/9 9/1/2 11/1/10
f 10/1/9 11/1/10 12/1/11
f 12/1/11 11/1/10 13/1/12
f 12/1/11 13/1/12 14/1/13
f 14/1/13 13/1/12 15/1/14
f 14/1/13 15/1/14 16/1/15
f 16/1/15 15/1/14 17/1/16
f 16/1/15 17/1/16 18/1/17
f 18/1/17 17/1/16 19/1/10
f 18/1/17 19/1/10 20/1/11
f 20/1/11 19/1/10 21/1/18
f 20/1/11 21/1/18 22/1/19
f 22/1/19 21/1/18 23/1/7
f 22/1/19 23/1/7 24/1/8
f 24/1/8 23/1/7 2/1/2
f 24/1/8 2/1/2 25/1/20
f 24/1/8 25/1/20 22/1/19
f 22/1/19 25/1/20 4/1/4
f 22/1/19 4/1/4 18/1/17
f 18/1/17 4/1/4 6/1/6
f 18/1/17 6/1/6 16/1/15
f 16/1/15 6/1/6 8/1/8
f 16/1/15 8/1/8 14/1/13
f 14/1/13 8/1/8 10/1/9
f 14/1/13 10/1/9 12/1/11
f 22/1/19 18/1/17 20/1/11
f 23/1/7 21/1/18 2/1/2
f 21/1/18 3/1/3 2/1/2
f 21/1/18 17/1/16 3/1/3
f 17/1/16 5/1/5 3/1/3
f 17/1/16 15/1/14 5/1/5
f 15/1/14 7/1/7 5/1/5
f 15/1/14 13/1/12 7/1/7
f 13/1/12 9/1/2 7/1/7
f 13/1/12 11/1/10 9/1/2
f 21/1/18 19/1/10 17/1/16
f 26/1/21 27/1/22 28/1/23
f 26/1/21 28/1/23 29/1/24
f 29/1/24 28/1/23 30/1/25
f 29/1/24 30/1/25 31/1/26
f 31/1/26 30/1/25 32/1/27
f 31/1/26 32/1/27 33/1/28
f 33/1/28 32/1/27 34/1/29
f 33/1/28 34/1/29 35/1/30
f 35/1/30 34/1/29 36/1/31
f 35/1/30 36/1/31 37/1/32
f 37/1/32 36/1/31 38/1/33
f 37/1/32 38/1/33 39/1/34
f 39/1/34 38/1/33 40/1/35
f 39/1/34 40/1/35 41/1/36
f 41/1/36 40/1/35 27/1/22
f 41/1/36 27/1/22 26/1/21
f 42/1/37 43/1/38 44/1/39
f 42/1/37 44/1/39 45/1/40
f 45/1/40 44/1/39 46/1/41
f 45/1/40 46/1/41 47/1/42
f 47/1/42 46/1/41 48/1/43
f 47/1/42 48/1/43 49/1/44
f 49/1/44 48/1/43 50/1/45
f 49/1/44 50/1/45 51/1/46
f 51/1/46 50/1/45 52/1/47
f 51/1/46 52/1/47 53/1/48
f 53/1/48 52/1/47 54/1/49
f 53/1/48 54/1/49 55/1/50
f 55/1/50 54/1/49 56/1/51
f 55/1/50 56/1/51 57/1/52
f 57/1/52 56/1/51 58/1/53
f 57/1/52 58/1/53 59/1/54
f 59/1/54 58/1/53 60/1/55
f 59/1/54 60/1/55 61/1/56
f 61/1/56 60/1/55 43/1/38
f 61/1/56 43/1/38 42/1/37
f 41/1/36 26/1/21 49/1/44
f 41/1/36 49/1/44 51/1/46
f 41/1/36 51/1/46 53/1/48
f 41/1/36 53/1/48 55/1/50
f 41/1/36 55/1/50 57/1/52
f 41/1/36 57/1/52 59/1/54
f 41/1/36 59/1/54 35/1/30
f 41/1/36 35/1/30 39/1/34
f 49/1/44 26/1/21 61/1/56
f 49/1/44 61/1/56 42/1/37
f 49/1/44 42/1/37 45/1/40
f 49/1/44 45/1/40 47/1/42
f 29/1/24 31/1/26 26/1/21
f 26/1/21 31/1/26 33/1/28
f 26/1/21 33/1/28 61/1/56
f 61/1/56 33/1/28 35/1/30
f 61/1/56 35/1/30 59/1/54
f 39/1/34 35/1/30 37/1/32
f 40/1/35 48/1/43 27/1/22
f 40/1/35 50/1/45 48/1/43
f 40/1/35 52/1/47 50/1/45
f 40/1/35 54/1/49 52/1/47
f 40/1/35 56/1/51 54/1/49
f 40/1/35 58/1/53 56/1/51
f 40/1/35 34/1/29 58/1/53
f 40/1/35 38/1/33 34/1/29
f 48/1/43 60/1/55 27/1/22
f 48/1/43 43/1/38 60/1/55
f 48/1/43 44/1/39 43/1/38
f 48/1/43 46/1/41 44/1/39
f 28/1/23 27/1/22 30/1/25
f 27/1/22 32/1/27 30/1/25
f 27/1/22 60/1/55 32/1/27
f 60/1/55 34/1/29 32/1/27
f 60/1/55 58/1/53 34/1/29
f 38/1/33 36/1/31 34/1/29
f 62/1/57 63/1/58 64/1/59
f 62/1/57 64/1/59 65/1/60
f 65/1/60 64/1/59 66/1/61
f 65/1/60 66/1/61 67/1/62
f 67/1/62 66/1/61 68/1/63
f 67/1/62 68/1/63 69/1/64
f 69/1/64 68/1/63 70/1/65
f 69/1/64 70/1/65 71/1/66
f 71/1/66 70/1/65 72/1/67
f 71/1/66 72/1/67 73/1/68
f 73/1/68 72/1/67 74/1/69
f 73/1/68 74/1/69 75/1/70
f 75/1/70 74/1/69 76/1/71
f 75/1/70 76/1/71 77/1/72
f 77/1/72 76/1/71 78/1/73
f 77/1/72 78/1/73 79/1/74
f 79/1/74 78/1/73 80/1/75
f 79/1/74 80/1/75 81/1/76
f 81/1/76 80/1/75 82/1/77
f 81/1/76 82/1/77 83/1/78
f 83/1/78 82/1/77 84/1/79
f 83/1/78 84/1/79 85/1/80
f 85/1/80 84/1/79 86/1/81
f 85/1/80 86/1/81 87/1/82
f 87/1/82 86/1/81 88/1/83
f 87/1/82 88/1/83 89/1/84
f 89/1/84 88/1/83 90/1/85
f 89/1/84 90/1/85 91/1/86
f 91/1/86 90/1/85 92/1/87
f 91/1/86 92/1/87 93/1/88
f 93/1/88 92/1/87 94/1/89
f 93/1/88 94/1/89 95/1/90
f 95/1/90 94/1/89 96/1/91
f 95/1/90 96/1/91 97/1/92
f 97/1/92 96/1/91 98/1/93
f 97/1/92 98/1/93 99/1/94
f 99/1/94 98/1/93 100/1/95
f 99/1/94 100/1/95 101/1/96
f 101/1/96 100/1/95 102/1/97
f 101/1/96 102/1/97 103/1/98
f 103/1/98 102/1/97 104/1/99
f 103/1/98 104/1/99 105/1/100
f 105/1/100 104/1/99 106/1/101
f 105/1/100 106/1/101 107/1/102
f 107/1/102 106/1/101 108/1/103
f 107/1/102 108/1/103 109/1/104
f 109/1/104 108/1/103 110/1/105
f 109/1/104 110/1/105 111/1/106
f 111/1/106 110/1/105 112/1/107
f 111/1/106 112/1/107 113/1/108
f 113/1/108 112/1/107 114/1/109
f 113/1/108 114/1/109 115/1/110
f 115/1/110 114/1/109 116/1/111
f 115/1/110 116/1/111 117/1/112
f 117/1/112 116/1/111 118/1/113
f 117/1/112 118/1/113 119/1/114
f 119/1/114 118/1/113 120/1/115
f 119/1/114 120/1/115 121/1/116
f 121/1/116 120/1/115 122/1/117
f 121/1/116 122/1/117 123/1/118
f 123/1/118 122/1/117 124/1/119
f 123/1/118 124/1/119 125/1/120
f 125/1/120 124/1/119 126/1/121
f 125/1/120 126/1/121 127/1/122
f 127/1/122 126/1/121 128/1/123
f 127/1/122 128/1/123 129/1/124
f 129/1/124 128/1/123 63/1/58
f 129/1/124 63/1/58 62/1/57
f 87/1/82 89/1/84 103/1/98
f 103/1/98 89/1/84 91/1/86
f 103/1/98 91/1/86 101/1/96
f 101/1/96 91/1/86 93/1/88
f 101/1/96 93/1/88 99/1/94
f 99/1/94 93/1/88 95/1/90
f 99/1/94 95/1/90 97/1/92
f 87/1/82 103/1/98 85/1/80
f 85/1/80 103/1/98 105/1/100
f 85/1/80 105/1/100 81/1/76
f 81/1/76 105/1/100 113/1/108
f 81/1/76 113/1/108 115/1/110
f 77/1/72 79/1/74 115/1/110
f 77/1/72 115/1/110 117/1/112
f 77/1/72 117/1/112 71/1/66
f 77/1/72 71/1/66 73/1/68
f 77/1/72 73/1/68 75/1/70
f 107/1/102 109/1/104 111/1/106
f 107/1/102 111/1/106 113/1/108
f 107/1/102 113/1/108 105/1/100
f 71/1/66 117/1/112 119/1/114
f 71/1/66 119/1/114 121/1/116
f 71/1/66 121/1/116 123/1/118
f 71/1/66 123/1/118 69/1/64
f 125/1/120 127/1/122 67/1/62
f 125/1/120 67/1/62 69/1/64
f 125/1/120 69/1/64 123/1/118
f 129/1/124 62/1/57 65/1/60
f 129/1/124 65/1/60 67/1/62
f 129/1/124 67/1/62 127/1/122
f 81/1/76 115/1/110 79/1/74
f 83/1/78 85/1/80 81/1/76
f 86/1/81 102/1/97 88/1/83
f 102/1/97 90/1/85 88/1/83
f 102/1/97 100/1/95 90/1/85
f 100/1/95 92/1/87 90/1/85
f 100/1/95 98/1/93 92/1/87
f 98/1/93 94/1/89 92/1/87
f 98/1/93 96/1/91 94/1/89
f 86/1/81 84/1/79 102/1/97
f 84/1/79 104/1/99 102/1/97
f 84/1/79 80/1/75 104/1/99
f 80/1/75 112/1/107 104/1/99
f 80/1/75 114/1/109 112/1/107
f 76/1/71 114/1/109 78/1/73
f 76/1/71 116/1/111 114/1/109
f 76/1/71 70/1/65 116/1/111
f 76/1/71 72/1/67 70/1/65
f 76/1/71 74/1/69 72/1/67
f 106/1/101 110/1/105 108/1/103
f 106/1/101 112/1/107 110/1/105
f 106/1/101 104/1/99 112/1/107
f 70/1/65 118/1/113 116/1/111
f 70/1/65 120/1/115 118/1/113
f 70/1/65 122/1/117 120/1/115
f 70/1/65 68/1/63 122/1/117
f 124/1/119 66/1/61 126/1/121
f 124/1/119 68/1/63 66/1/61
f 124/1/119 122/1/117 68/1/63
f 128/1/123 64/1/59 63/1/58
f 128/1/123 66/1/61 64/1/59
f 128/1/123 126/1/121 66/1/61
f 80/1/75 78/1/73 114/1/109
f 82/1/77 80/1/75 84/1/79
f 130/1/9 131/1/2 132/1/10
f 130/1/9 132/1/10 133/1/11
f 133/1/11 132/1/10 134/1/125
f 133/1/11 134/1/125 135/1/126
f 135/1/126 134/1/125 136/1/10
f 135/1/126 136/1/10 137/1/11
f 137/1/11 136/1/10 138/1/12
f 137/1/11 138/1/12 139/1/13
f 139/1/13 138/1/12 140/1/127
f 139/1/13 140/1/127 141/1/128
f 141/1/128 140/1/127 142/1/129
f 141/1/128 142/1/129 143/1/130
f 143/1/130 142/1/129 144/1/131
f 143/1/130 144/1/131 145/1/132
f 145/1/132 144/1/131 131/1/2
f 145/1/132 131/1/2 130/1/9
f 137/1/11 139/1/13 135/1/126
f 135/1/126 139/1/13 141/1/128
f 135/1/126 141/1/128 145/1/132
f 145/1/132 141/1/128 143/1/130
f 130/1/9 133/1/11 135/1/126
f 130/1/9 135/1/126 145/1/132
f 136/1/10 134/1/125 138/1/12
f 134/1/125 140/1/127 138/1/12
f 134/1/125 144/1/131 140/1/127
f 144/1/131 142/1/129 140/1/127
f 131/1/2 134/1/125 132/1/10
f 131/1/2 144/1/131 134/1/125
f 146/1/133 147/1/134 148/1/14
f 146/1/133 148/1/14 149/1/15
f 149/1/15 148/1/14 150/1/12
f 149/1/15 150/1/12 151/1/13
f 151/1/13 150/1/12 152/1/7
f 151/1/13 152/1/7 153/1/8
f 153/1/8 152/1/7 154/1/5
f 153/1/8 154/1/5 155/1/6
f 155/1/6 154/1/5 156/1/127
f 155/1/6 156/1/127 157/1/128
f 157/1/128 156/1/127 158/1/129
f 157/1/128 158/1/129 159/1/130
f 159/1/130 158/1/129 160/1/135
f 159/1/130 160/1/135 161/1/136
f 161/1/136 160/1/135 162/1/137
f 161/1/136 162/1/137 163/1/138
f 163/1/138 162/1/137 164/1/139
f 163/1/138 164/1/139 165/1/140
f 165/1/140 164/1/139 166/1/12
f 165/1/140 166/1/12 167/1/13
f 167/1/13 166/1/12 168/1/7
f 167/1/13 168/1/7 169/1/8
f 169/1/8 168/1/7 147/1/134
f 169/1/8 147/1/134 146/1/133
f 146/1/133 149/1/15 157/1/128
f 146/1/133 157/1/128 163/1/138
f 146/1/133 163/1/138 165/1/140
f 146/1/133 165/1/140 167/1/13
f 146/1/133 167/1/13 169/1/8
f 161/1/136 163/1/138 157/1/128
f 161/1/136 157/1/128 159/1/130
f 155/1/6 157/1/128 149/1/15
f 155/1/6 149/1/15 151/1/13
f 155/1/6 151/1/13 153/1/8
f 147/1/134 156/1/127 148/1/14
f 147/1/134 162/1/137 156/1/127
f 147/1/134 164/1/139 162/1/137
f 147/1/134 166/1/12 164/1/139
f 147/1/134 168/1/7 166/1/12
f 160/1/135 156/1/127 162/1/137
f 160/1/135 158/1/129 156/1/127
f 154/1/5 148/1/14 156/1/127
f 154/1/5 150/1/12 148/1/14
f 154/1/5 152/1/7 150/1/12
# 320 triangles in group

# 320 triangles total

