# Wavefront OBJ exported by MilkShape 3D

mtllib tris.mtl

v 20.905197 0.076091 -3.440643
v 28.006804 0.076091 0.026611
v 20.905197 -2.931648 -1.644355
v 20.905197 -2.931648 1.739350
v 20.905197 0.076090 3.535639
v 20.905197 3.042053 1.739351
v 20.905197 3.042054 -1.644354
v 3.568930 3.042053 0.402580
v -5.295083 1.656331 0.951891
v 20.905197 3.042053 1.739351
v 3.568930 3.042053 -0.307580
v 20.905197 3.042054 -1.644354
v -5.295083 1.656332 -0.917465
v 3.568930 -1.720198 2.491287
v -5.295083 -1.643891 0.951891
v 20.905197 -2.931648 1.739350
v 3.568930 -1.135360 2.783706
v 20.905197 0.076090 3.535639
v -5.295083 0.017760 1.944265
v -5.295083 0.017760 -1.909838
v 20.905197 0.076091 -3.440643
v 3.568930 -1.135359 -2.688707
v 3.568930 -1.720197 -2.396288
v 20.905197 -2.931648 -1.644355
v -5.295083 -1.643891 -0.917466
v -5.295083 -1.643891 -0.917466
v -5.295083 1.656331 0.951891
v -5.295083 0.017760 -1.909838
v -5.295083 1.656332 -0.917465
v -5.295083 -1.643891 0.951891
v -5.295083 0.017760 1.944265
v -6.195144 -1.759282 -3.075303
v -6.195144 -1.759283 3.109727
v -6.195144 3.571844 0.017213
v -6.195144 3.571844 0.017213
v 0.076398 5.240518 0.047478
v -5.295083 1.656332 -0.917465
v 3.568930 3.042053 -0.307580
v 0.076398 5.240518 0.047478
v 3.568930 3.042053 0.402580
v -5.295083 1.656331 0.951891
v -6.195144 -1.759283 3.109727
v 0.176977 -2.503994 4.539967
v -5.295083 0.017760 1.944265
v 3.568930 -1.135360 2.783706
v 3.568930 -1.720198 2.491287
v 0.176977 -2.503994 4.539967
v -5.295083 -1.643891 0.951891
v 0.176977 -2.486652 -4.445288
v -5.295083 -1.643891 -0.917466
v 3.568930 -1.720197 -2.396288
v 0.176977 -2.486652 -4.445288
v 3.568930 -1.135359 -2.688707
v -5.295083 0.017760 -1.909838
v -6.195144 -1.759282 -3.075303
v -5.295083 -1.643891 -0.917466
v 20.905197 -2.931648 -1.644355
# 57 vertices

vt 0.867200 0.761700
vt 0.824200 0.835900
vt 0.781200 0.761700
vt 0.738300 0.835900
vt 0.781200 0.910200
vt 0.867200 0.910200
vt 0.910200 0.835900
vt 0.238300 0.543000
vt 0.277300 0.312500
vt 0.277300 0.997100
vt 0.218800 0.543000
vt 0.183600 0.997100
vt 0.183600 0.312500
vt 0.421900 0.543000
vt 0.460900 0.312500
vt 0.460900 0.997100
vt 0.406200 0.543000
vt 0.367200 0.997100
vt 0.367200 0.312500
vt 0.093800 0.312500
vt 0.093800 0.997100
vt 0.054700 0.543000
vt 0.035200 0.543000
vt 0.002600 0.997100
vt 0.002600 0.312500
vt 0.597700 0.359400
vt 0.679700 0.175800
vt 0.699200 0.347700
vt 0.738300 0.257800
vt 0.539100 0.277300
vt 0.578100 0.187500
vt 0.648400 0.468800
vt 0.453100 0.195300
vt 0.793000 0.144500
vt 0.804700 0.160200
vt 0.906200 0.082000
vt 0.902300 0.199200
vt 0.996100 0.019500
vt 0.898400 0.070300
vt 0.984400 0.003900
vt 0.785200 0.039100
vt 0.460900 0.175800
vt 0.343800 0.128900
vt 0.449200 0.074200
vt 0.246100 0.082000
vt 0.238300 0.097700
vt 0.335900 0.140600
vt 0.367200 0.253900
vt 0.664100 0.593800
vt 0.566400 0.531200
vt 0.675800 0.703100
vt 0.679700 0.593800
vt 0.691400 0.699200
vt 0.765600 0.507800
vt 0.668000 0.464800
vt 0.550800 0.312500
vt 0.550800 0.997100
# 57 texture coordinates

vn 0.438734 0.002925 -0.898612
vn 0.999985 0.005254 -0.001223
vn 0.436004 -0.782482 -0.444549
vn 0.438118 -0.781816 0.443640
vn 0.442988 0.002921 0.896523
vn 0.434378 0.784953 0.441774
vn 0.432267 0.785614 -0.442669
vn -0.020789 0.962747 0.269602
vn -0.054728 0.568159 0.821097
vn -0.040835 0.805603 0.591046
vn -0.030692 0.916855 -0.398038
vn -0.030060 0.895716 -0.443609
vn -0.053052 0.574699 -0.816643
vn -0.022040 -0.688178 0.725207
vn -0.052734 -0.989177 0.136923
vn -0.041645 -0.950076 0.309227
vn -0.035676 -0.106249 0.993699
vn -0.038594 0.072663 0.996610
vn -0.056764 0.386887 0.920378
vn -0.054967 0.372005 -0.926602
vn -0.044446 0.204016 -0.977958
vn -0.018139 -0.262827 -0.964672
vn -0.025832 -0.767344 -0.640715
vn -0.017434 -0.686348 -0.727064
vn -0.054868 -0.958602 -0.279412
vn -0.994103 0.055603 0.093103
vn -0.994122 -0.108263 -0.000000
vn -0.989419 0.074393 0.124566
vn -0.975978 -0.217870 -0.000000
vn -0.975896 0.111900 -0.187367
vn -0.989419 0.074393 -0.124566
vn -0.743302 -0.575623 0.340822
vn -0.743794 -0.574889 -0.340988
vn -0.743194 -0.022927 0.668683
vn -0.101338 0.397410 -0.912028
vn -0.033872 0.306836 -0.951160
vn 0.366254 0.683768 -0.631125
vn 0.186729 0.596208 0.780813
vn 0.364306 0.681298 0.634913
vn -0.040526 0.301138 0.952719
vn -0.112182 0.584064 0.803918
vn 0.189211 0.391370 0.900571
vn -0.038513 0.674922 0.736883
vn 0.367935 0.240673 0.898165
vn 0.383301 -0.873380 0.300480
vn -0.026279 -0.980461 -0.194951
vn -0.026744 -0.980866 0.192836
vn 0.380465 -0.873752 -0.302991
vn 0.192406 0.389814 -0.900569
vn 0.369426 0.239756 -0.897798
vn -0.033565 0.673884 -0.738074
vn -0.106744 0.582527 -0.805772
vn -0.049091 -0.998794 0.000000
# 53 normals

g default
usemtl Material01
s 1
f 1/1/1 2/2/2 3/3/3
f 3/3/3 2/2/2 4/4/4
f 4/4/4 2/2/2 5/5/5
f 5/5/5 2/2/2 6/6/6
f 6/6/6 2/2/2 7/7/7
f 7/7/7 2/2/2 1/1/1
f 8/8/8 9/9/9 10/10/10
f 11/11/11 12/12/12 13/13/13
f 14/14/14 15/15/15 16/16/16
f 17/17/17 18/18/18 19/19/19
f 20/20/20 21/21/21 22/22/22
f 23/23/23 24/24/24 25/25/25
f 26/26/26 27/27/27 28/28/28
f 27/27/27 29/29/29 28/28/28
f 30/30/30 31/31/31 26/26/26
f 31/31/31 27/27/27 26/26/26
f 32/32/32 26/26/26 28/28/28
f 33/33/33 31/31/31 30/30/30
f 34/34/34 29/29/29 27/27/27
f 35/35/35 36/36/36 37/37/36
f 36/36/36 38/38/37 37/37/36
f 39/39/38 40/40/39 38/38/37
f 39/39/38 41/41/40 40/40/39
f 34/34/34 41/41/40 39/39/38
f 42/42/41 43/43/42 44/44/43
f 43/43/42 45/45/44 44/44/43
f 43/43/42 46/46/45 45/45/44
f 47/47/46 48/48/46 46/46/45
f 33/33/33 48/48/46 47/47/46
f 32/32/32 49/49/47 50/50/47
f 49/49/47 51/51/48 50/50/47
f 52/52/49 53/53/50 51/51/48
f 54/54/51 52/52/49 55/55/52
f 53/53/50 52/52/49 54/54/51
f 23/23/23 22/22/22 24/24/24
f 22/22/22 21/21/21 24/24/24
f 17/17/17 14/14/14 18/18/18
f 14/14/14 16/16/16 18/18/18
f 11/11/11 8/8/8 12/12/12
f 8/8/8 10/10/10 12/12/12
f 13/13/13 21/21/21 20/20/20
f 12/12/12 21/21/21 13/13/13
f 19/19/19 18/18/18 9/9/9
f 18/18/18 10/10/10 9/9/9
f 56/56/53 16/16/16 15/15/15
f 57/57/53 16/16/16 56/56/53
# 46 triangles in group

# 46 triangles total

