# Wavefront OBJ exported by MilkShape 3D

mtllib rtris.mtl

v 15.519407 0.034211 -2.322753
v 20.300657 0.034211 0.011622
v 15.519407 -1.990789 -1.113378
v 15.519407 -1.990789 1.164747
v 15.519407 0.034211 2.374122
v 15.519407 2.031085 1.164747
v 15.519407 2.031085 -1.113378
v 3.847533 2.031085 0.264748
v -2.002467 2.031085 1.164748
v 15.519407 2.031085 1.164747
v 3.847533 2.031085 -0.213377
v 15.519407 2.031085 -1.113378
v -2.002467 2.031085 -1.113377
v 3.847533 -1.175164 1.670998
v -2.002467 -1.990789 1.164748
v 15.519407 -1.990789 1.164747
v 3.847533 -0.781414 1.867873
v 15.519407 0.034211 2.374122
v -2.002467 0.034211 2.374123
v -2.002467 0.034211 -2.322752
v 15.519407 0.034211 -2.322753
v 3.847533 -0.781414 -1.816502
v 3.847533 -1.175164 -1.619627
v 15.519407 -1.990789 -1.113378
v -2.002467 -1.990789 -1.113377
v -2.002467 -1.990789 -1.113377
v -2.002467 2.031085 1.164748
v -2.002467 0.034211 -2.322752
v -2.002467 2.031085 -1.113377
v -2.002467 -1.990789 1.164748
v -2.002467 0.034211 2.374123
v -3.099342 -1.934539 -3.869627
v -3.099342 -2.328290 -3.616502
v -3.099342 -2.328290 3.695998
v -3.099342 -1.934539 3.892873
v -3.099342 4.365460 0.264748
v -3.099342 4.365460 -0.213377
v 1.485033 4.393586 0.264748
v 1.485033 4.393586 -0.213377
v -2.002467 2.031085 -1.113377
v 3.847533 2.031085 -0.213377
v 3.847533 2.031085 0.264748
v -2.002467 2.031085 1.164748
v 1.569408 -2.328290 3.695998
v 1.569408 -1.934539 3.892873
v -2.002467 0.034211 2.374123
v 3.847533 -0.781414 1.867873
v 3.847533 -1.175164 1.670998
v -2.002467 -1.990789 1.164748
v 1.569408 -1.934539 -3.869627
v 1.569408 -2.328290 -3.616502
v -2.002467 -1.990789 -1.113377
v 3.847533 -1.175164 -1.619627
v 3.847533 -0.781414 -1.816502
v -2.002467 0.034211 -2.322752
v -2.002467 -1.990789 -1.113377
v 15.519407 -1.990789 -1.113378
# 57 vertices

vt 0.867188 0.761719
vt 0.824219 0.835938
vt 0.781250 0.761719
vt 0.738281 0.835938
vt 0.781250 0.910156
vt 0.867188 0.910156
vt 0.910156 0.835938
vt 0.238281 0.542969
vt 0.277344 0.312500
vt 0.277344 0.997070
vt 0.218750 0.542969
vt 0.183594 0.997070
vt 0.183594 0.312500
vt 0.421875 0.542969
vt 0.460938 0.312500
vt 0.460938 0.997070
vt 0.406250 0.542969
vt 0.367188 0.997070
vt 0.367188 0.312500
vt 0.093750 0.312500
vt 0.093750 0.997070
vt 0.054688 0.542969
vt 0.035156 0.542969
vt 0.002604 0.997070
vt 0.002604 0.312500
vt 0.597656 0.359375
vt 0.679688 0.175781
vt 0.699219 0.347656
vt 0.738281 0.257813
vt 0.539063 0.277344
vt 0.578125 0.187500
vt 0.667969 0.464844
vt 0.648438 0.468750
vt 0.453125 0.195313
vt 0.460938 0.175781
vt 0.792969 0.144531
vt 0.804688 0.160156
vt 0.898438 0.070313
vt 0.906250 0.082031
vt 0.902344 0.199219
vt 0.996094 0.019531
vt 0.984375 0.003906
vt 0.785156 0.039063
vt 0.335938 0.140625
vt 0.343750 0.128906
vt 0.449219 0.074219
vt 0.246094 0.082031
vt 0.238281 0.097656
vt 0.367188 0.253906
vt 0.679688 0.593750
vt 0.664063 0.593750
vt 0.566406 0.531250
vt 0.675781 0.703125
vt 0.691406 0.699219
vt 0.765625 0.507813
vt 0.550781 0.312500
vt 0.550781 0.997070
# 57 texture coordinates

vn 0.438734 0.002925 -0.898612
vn 0.999985 0.005254 -0.001223
vn 0.436004 -0.782482 -0.444549
vn 0.438118 -0.781816 0.443640
vn 0.442988 0.002921 0.896523
vn 0.434379 0.784953 0.441773
vn 0.432267 0.785614 -0.442669
vn 0.000000 1.000000 0.000000
vn 0.000000 0.765627 0.643285
vn 0.000000 0.946861 0.321642
vn -0.000000 0.971692 -0.236253
vn -0.000000 0.765627 -0.643285
vn -0.002047 -0.496166 0.868225
vn 0.000000 -0.873889 0.486126
vn 0.000404 -0.871805 0.489853
vn -0.003776 -0.487800 0.872947
vn -0.001415 -0.104047 0.994571
vn 0.000000 -0.005471 0.999985
vn -0.000000 -0.005471 -0.999985
vn -0.000412 -0.001180 -0.999999
vn 0.002047 -0.496166 -0.868225
vn 0.003776 -0.487800 -0.872948
vn -0.000000 -0.527363 -0.849640
vn -0.994069 0.055760 0.093366
vn -0.994122 -0.108263 0.000000
vn -0.976152 0.114342 0.184533
vn -0.957120 -0.289692 0.000000
vn -0.976190 0.111223 -0.186234
vn -0.975225 0.106115 -0.194104
vn -0.569467 0.191146 -0.799481
vn -0.704490 -0.632409 -0.322105
vn -0.869539 -0.493857 0.002483
vn -0.379566 -0.036716 0.924436
vn -0.863357 0.241311 0.443152
vn -0.393695 0.827828 -0.399631
vn 0.334722 0.847204 0.412561
vn 0.278687 0.727406 -0.627068
vn 0.074708 0.256793 -0.963575
vn 0.646837 0.646837 -0.403984
vn 0.550590 0.550590 0.627456
vn 0.074708 0.256793 0.963575
vn 0.231324 -0.826980 0.512438
vn 0.406861 0.078523 0.910109
vn 0.081203 0.696964 0.712494
vn 0.551080 0.287159 0.783486
vn 0.662770 -0.646836 0.377279
vn 0.080224 -0.966922 -0.242128
vn 0.345976 -0.083016 -0.934564
vn 0.279482 -0.910605 -0.304446
vn 0.080302 -0.966226 0.244865
vn 0.655476 -0.666087 -0.355920
vn 0.554652 0.291710 -0.779273
vn 0.081267 0.702760 -0.706770
vn 0.000000 -1.000000 0.000000
# 54 normals

g tris.md2
usemtl Material01
s 1
f 1/1/1 2/2/2 3/3/3
f 3/3/3 2/2/2 4/4/4
f 4/4/4 2/2/2 5/5/5
f 5/5/5 2/2/2 6/6/6
f 6/6/6 2/2/2 7/7/7
f 7/7/7 2/2/2 1/1/1
f 8/8/8 9/9/9 10/10/10
f 11/11/8 12/12/11 13/13/12
f 14/14/13 15/15/14 16/16/15
f 17/17/16 18/18/17 19/19/18
f 20/20/19 21/21/20 22/22/21
f 23/23/22 24/24/21 25/25/23
f 26/26/24 27/27/25 28/28/26
f 27/27/25 29/29/27 28/28/26
f 30/30/28 31/31/29 26/26/24
f 31/31/29 27/27/25 26/26/24
f 32/32/30 33/33/31 28/28/26
f 33/33/31 26/26/24 28/28/26
f 34/34/32 31/31/29 30/30/28
f 35/35/33 31/31/29 34/34/32
f 36/36/34 29/29/27 27/27/25
f 37/37/35 29/29/27 36/36/34
f 36/36/34 38/38/36 37/37/35
f 38/38/36 39/39/37 37/37/35
f 37/37/35 39/39/37 40/40/38
f 39/39/37 41/41/39 40/40/38
f 39/39/37 38/38/36 41/41/39
f 38/38/36 42/42/40 41/41/39
f 38/38/36 43/43/41 42/42/40
f 36/36/34 43/43/41 38/38/36
f 34/34/32 44/44/42 35/35/33
f 44/44/42 45/45/43 35/35/33
f 35/35/33 45/45/43 46/46/44
f 45/45/43 47/47/45 46/46/44
f 45/45/43 48/48/46 47/47/45
f 44/44/42 48/48/46 45/45/43
f 44/44/42 49/49/47 48/48/46
f 34/34/32 49/49/47 44/44/42
f 32/32/30 50/50/48 33/33/31
f 50/50/48 51/51/49 33/33/31
f 33/33/31 51/51/49 52/52/50
f 51/51/49 53/53/51 52/52/50
f 51/51/49 50/50/48 53/53/51
f 50/50/48 54/54/52 53/53/51
f 55/55/53 50/50/48 32/32/30
f 54/54/52 50/50/48 55/55/53
f 23/23/22 22/22/21 24/24/21
f 22/22/21 21/21/20 24/24/21
f 17/17/16 14/14/13 18/18/17
f 14/14/13 16/16/15 18/18/17
f 11/11/8 8/8/8 12/12/11
f 8/8/8 10/10/10 12/12/11
f 13/13/12 21/21/20 20/20/19
f 12/12/11 21/21/20 13/13/12
f 19/19/18 18/18/17 9/9/9
f 18/18/17 10/10/10 9/9/9
f 56/56/54 16/16/15 15/15/14
f 57/57/54 16/16/15 56/56/54
# 58 triangles in group

# 58 triangles total

