# lavaball.mdl frame 0

v 6.520562 -1.976967 2.553638
v 1.911887 -1.976967 5.184353
v 1.911887 -4.140000 -0.135537
v 1.911887 8.604353 5.184353
v 6.520562 8.604353 2.553638
v 1.911887 10.767386 -0.135537
v 6.520562 -1.976967 -2.766252
v 6.520562 8.604353 -2.766252
v 1.911887 -1.976967 -5.396968
v 1.911887 8.604353 -5.396968
v -2.646143 -1.976967 -2.766252
v -2.646143 8.604353 -2.766252
v -2.646143 -1.976967 2.553638
v -2.646143 8.604353 2.553638
v 8.394419 3.284463 3.605924
v 1.911887 3.284463 7.347386
v 8.394419 3.284463 -3.876999
v 1.911887 3.284463 -7.560000
v -4.520000 3.284463 -3.876999
v -4.520000 3.284463 3.605924

vt 0.617188 0.242188
vt 0.851562 0.242188
vt 0.492188 0.039062
vt 0.851562 0.789062
vt 0.632812 0.789062
vt 0.492188 0.992188
vt 0.367188 0.242188
vt 0.617188 0.242188
vt 0.492188 0.039062
vt 0.632812 0.789062
vt 0.367188 0.789062
vt 0.492188 0.992188
vt 0.148438 0.242188
vt 0.367188 0.242188
vt 0.492188 0.039062
vt 0.367188 0.789062
vt 0.148438 0.789062
vt 0.492188 0.992188
vt 0.367188 0.242188
vt 0.148438 0.242188
vt 0.492188 0.039062
vt 0.148438 0.789062
vt 0.367188 0.789062
vt 0.492188 0.992188
vt 0.617188 0.242188
vt 0.367188 0.242188
vt 0.492188 0.039062
vt 0.367188 0.789062
vt 0.632812 0.789062
vt 0.492188 0.992188
vt 0.851562 0.242188
vt 0.617188 0.242188
vt 0.492188 0.039062
vt 0.632812 0.789062
vt 0.851562 0.789062
vt 0.492188 0.992188
vt 0.679688 0.523438
vt 0.976562 0.523438
vt 0.851562 0.242188
vt 0.617188 0.242188
vt 0.679688 0.523438
vt 0.851562 0.242188
vt 0.367188 0.242188
vt 0.679688 0.523438
vt 0.617188 0.242188
vt 0.367188 0.242188
vt 0.320312 0.523438
vt 0.679688 0.523438
vt 0.023438 0.523438
vt 0.320312 0.523438
vt 0.367188 0.242188
vt 0.148438 0.242188
vt 0.023438 0.523438
vt 0.367188 0.242188
vt 0.367188 0.242188
vt 0.023438 0.523438
vt 0.148438 0.242188
vt 0.367188 0.242188
vt 0.320312 0.523438
vt 0.023438 0.523438
vt 0.679688 0.523438
vt 0.320312 0.523438
vt 0.367188 0.242188
vt 0.617188 0.242188
vt 0.679688 0.523438
vt 0.367188 0.242188
vt 0.851562 0.242188
vt 0.679688 0.523438
vt 0.617188 0.242188
vt 0.851562 0.242188
vt 0.976562 0.523438
vt 0.679688 0.523438
vt 0.679688 0.523438
vt 0.851562 0.789062
vt 0.976562 0.523438
vt 0.679688 0.523438
vt 0.632812 0.789062
vt 0.851562 0.789062
vt 0.367188 0.789062
vt 0.632812 0.789062
vt 0.679688 0.523438
vt 0.320312 0.523438
vt 0.367188 0.789062
vt 0.679688 0.523438
vt 0.023438 0.523438
vt 0.367188 0.789062
vt 0.320312 0.523438
vt 0.023438 0.523438
vt 0.148438 0.789062
vt 0.367188 0.789062
vt 0.367188 0.789062
vt 0.148438 0.789062
vt 0.023438 0.523438
vt 0.320312 0.523438
vt 0.367188 0.789062
vt 0.023438 0.523438
vt 0.679688 0.523438
vt 0.367188 0.789062
vt 0.320312 0.523438
vt 0.679688 0.523438
vt 0.632812 0.789062
vt 0.367188 0.789062
vt 0.851562 0.789062
vt 0.632812 0.789062
vt 0.679688 0.523438
vt 0.976562 0.523438
vt 0.851562 0.789062
vt 0.679688 0.523438

usemtl quake/lavaball/skin
vn 0.666848 -0.636302 0.387857
vn 0.000113 -0.604027 0.796964
vn -0.000208 -0.999999 -0.001045
vn 0.000114 0.600804 0.799397
vn 0.669114 0.633116 0.389166
vn -0.000208 0.999999 -0.001045
vn 0.689403 -0.604876 -0.398559
vn 0.691509 0.601654 -0.399785
vn 0.000017 -0.634906 -0.772589
vn 0.000017 0.631719 -0.775197
vn -0.691902 -0.603364 -0.396514
vn -0.694008 0.600140 -0.397724
vn -0.669526 -0.634874 0.385576
vn -0.671792 0.631687 0.386868
vn 0.866414 0.000468 0.499326
vn 0.000238 0.000271 1.000000
vn 0.864249 0.000275 -0.503064
vn -0.000016 0.000469 -1.000000
vn -0.865837 0.000274 -0.500326
vn -0.868142 0.000465 0.496315
f 1/1/1 2/2/2 3/3/3
f 4/4/4 5/5/5 6/6/6
f 7/7/7 1/8/1 3/9/3
f 5/10/5 8/11/8 6/12/6
f 9/13/9 7/14/7 3/15/3
f 8/16/8 10/17/10 6/18/6
f 11/19/11 9/20/9 3/21/3
f 10/22/10 12/23/12 6/24/6
f 13/25/13 11/26/11 3/27/3
f 12/28/12 14/29/14 6/30/6
f 2/31/2 13/32/13 3/33/3
f 14/34/14 4/35/4 6/36/6
f 15/37/15 16/38/16 2/39/2
f 1/40/1 15/41/15 2/42/2
f 7/43/7 15/44/15 1/45/1
f 7/46/7 17/47/17 15/48/15
f 18/49/18 17/50/17 7/51/7
f 9/52/9 18/53/18 7/54/7
f 11/55/11 18/56/18 9/57/9
f 11/58/11 19/59/19 18/60/18
f 20/61/20 19/62/19 11/63/11
f 13/64/13 20/65/20 11/66/11
f 2/67/2 20/68/20 13/69/13
f 2/70/2 16/71/16 20/72/20
f 15/73/15 4/74/4 16/75/16
f 15/76/15 5/77/5 4/78/4
f 8/79/8 5/80/5 15/81/15
f 17/82/17 8/83/8 15/84/15
f 18/85/18 8/86/8 17/87/17
f 18/88/18 10/89/10 8/90/8
f 12/91/12 10/92/10 18/93/18
f 19/94/19 12/95/12 18/96/18
f 20/97/20 12/98/12 19/99/19
f 20/100/20 14/101/14 12/102/12
f 4/103/4 14/104/14 20/105/20
f 16/106/16 4/107/4 20/108/20
