# Wavefront OBJ exported by MilkShape 3D

mtllib fern.mtl

v 17.424267 31.967583 41.439747
v -20.408285 43.715607 32.457401
v -18.758848 38.347630 54.671459
v 23.310188 30.929726 54.256874
v 15.297183 27.265501 30.332722
v -20.851254 38.716579 16.651917
v 13.117739 12.418390 14.527230
v -13.776524 22.237709 4.266627
v 13.881257 -0.500000 5.130303
v -13.881249 -0.500000 -5.130301
v -18.758848 38.347630 54.671459
v -20.408285 43.715607 32.457401
v 17.424267 31.967583 41.439747
v 23.310188 30.929726 54.256874
v -20.851254 38.716579 16.651917
v 15.297183 27.265501 30.332722
v -13.776524 22.237709 4.266627
v 13.117739 12.418390 14.527230
v -13.881249 -0.500000 -5.130301
v 13.881257 -0.500000 5.130303
v 36.065697 44.500000 -48.003525
v 47.405441 42.500000 -8.362503
v 64.725952 54.500000 -18.362503
v 18.745186 39.500000 -38.003525
v 5.754803 34.500000 -30.503525
v 34.415062 34.500000 -0.862503
v 21.424679 21.500000 6.637497
v -2.905451 21.500000 -25.503525
v -9.065706 -0.500000 -16.173393
v 8.434298 -0.500000 14.137497
v 36.065697 44.500000 -48.003525
v 47.405441 42.500000 -8.362503
v 18.745186 39.500000 -38.003525
v 64.725952 54.500000 -18.362503
v 34.415062 34.500000 -0.862503
v 5.754803 34.500000 -30.503525
v 21.424679 21.500000 6.637497
v -2.905451 21.500000 -25.503525
v 8.434298 -0.500000 14.137497
v -9.065706 -0.500000 -16.173393
v -43.000000 36.500000 20.000008
v -43.000000 40.500000 -19.999992
v -63.000000 41.500000 -19.999990
v -63.000000 34.500000 20.000010
v -27.999998 29.500000 20.000008
v -24.000002 34.500000 -19.999992
v -11.999997 14.500000 20.000004
v -8.000003 19.500000 -19.999996
v 0.000003 -0.500000 20.000004
v -0.000003 -0.500000 -19.999996
v -63.000000 41.500000 -19.999990
v -43.000000 40.500000 -19.999992
v -43.000000 36.500000 20.000008
v -63.000000 34.500000 20.000010
v -24.000002 34.500000 -19.999992
v -27.999998 29.500000 20.000008
v -8.000003 19.500000 -19.999996
v -11.999997 14.500000 20.000004
v -0.000003 -0.500000 -19.999996
v 0.000003 -0.500000 20.000004
v -30.197361 49.186218 -15.955807
v 1.832352 49.733871 -36.667313
v -3.270541 55.500179 -56.988201
v -30.937729 64.437683 -42.276699
v -23.515387 33.099705 -0.634918
v 8.514332 33.647373 -22.346422
v -16.266842 16.933573 9.025522
v 14.772594 17.620405 -16.685995
v -15.171782 -0.500001 12.855748
v 15.171792 -0.500001 -12.855766
v -3.270541 55.500179 -56.988201
v 1.832352 49.733871 -36.667313
v -30.197361 49.186218 -15.955807
v -30.937729 64.437683 -42.276699
v 8.514332 33.647373 -22.346422
v -23.515387 33.099705 -0.634918
v 14.772594 17.620405 -16.685995
v -16.266842 16.933573 9.025522
v 15.171792 -0.500001 -12.855766
v -15.171782 -0.500001 12.855748
v 40.517700 54.500000 2.245105
v 18.149979 39.500000 35.406609
v 34.730732 49.500000 46.590469
v 57.098465 69.500000 13.428965
v 23.936945 34.500000 -8.938755
v 1.569223 29.500000 24.222757
v 15.646568 19.500000 -14.530684
v -6.721149 19.500000 18.630821
v 11.501385 -0.500000 -17.326649
v -10.866337 -0.500000 15.834858
v 34.730732 49.500000 46.590469
v 18.149979 39.500000 35.406609
v 40.517700 54.500000 2.245105
v 57.098465 69.500000 13.428965
v 1.569223 29.500000 24.222757
v 23.936945 34.500000 -8.938755
v -6.721149 19.500000 18.630821
v 15.646568 19.500000 -14.530684
v -10.866337 -0.500000 15.834858
v 11.501385 -0.500000 -17.326649
v -2.652348 58.859600 30.172150
v -31.601112 59.471100 12.382526
v -43.171555 74.938988 26.171638
v -11.044075 74.938988 40.173027
v 2.223515 41.808060 24.361320
v -23.523998 41.808060 2.756592
v 8.826647 20.396542 16.492016
v -16.920868 20.396542 -5.112713
v 13.255129 -0.599579 11.214355
v -12.492382 -0.599579 -10.390369
v -43.171555 74.938988 26.171638
v -31.601112 59.471100 12.382526
v -2.652348 58.859600 30.172150
v -11.044075 74.938988 40.173027
v -23.523998 41.808060 2.756592
v 2.223515 41.808060 24.361320
v -16.920868 20.396542 -5.112713
v 8.826647 20.396542 16.492016
v -12.492382 -0.599579 -10.390369
v 13.255129 -0.599579 11.214355
# 120 vertices

vt 0.250000 0.751302
vt 0.000000 0.751302
vt 0.000000 1.001302
vt 0.250000 1.001302
vt 0.250000 0.501302
vt 0.000000 0.501302
vt 0.250000 0.251302
vt 0.000000 0.251302
vt 0.250000 0.001302
vt 0.000000 0.001302
vt 0.500000 1.000977
vt 0.500000 0.751836
vt 0.500000 0.501836
vt 0.500000 0.251836
vt 0.500000 0.001836
vt 0.250000 0.752813
vt 0.250000 0.502813
vt 0.250000 0.252812
vt 0.750000 0.751836
vt 0.750000 1.000977
vt 0.750000 0.501836
vt 0.750000 0.251836
vt 0.750000 -0.000164
vt 0.500000 -0.000164
vt 0.750000 0.001302
vt 1.000000 0.751185
vt 1.000000 1.000326
vt 1.000000 0.501185
vt 1.000000 0.251185
vt 1.000000 0.001186
vt 0.750000 0.750161
vt 1.000000 0.750161
vt 0.750000 0.500161
vt 1.000000 0.500161
vt 0.750000 0.250161
vt 1.000000 0.250161
vt 0.750000 0.756068
vt 1.000000 0.756068
vt 0.750000 0.506067
vt 1.000000 0.506067
vt 0.750000 0.256068
vt 1.000000 0.256068
vt 0.750000 0.005208
vt 1.000000 0.005208
# 44 texture coordinates

vn 0.306190 0.942994 -0.130423
vn 0.305369 0.951309 -0.041960
vn 0.210135 0.971910 0.105995
vn 0.173648 0.984808 0.000001
vn 0.432903 0.722420 -0.539171
vn 0.424596 0.756040 -0.498118
vn 0.414180 0.555377 -0.721118
vn 0.462457 0.505389 -0.728502
vn 0.283628 0.574992 -0.767423
vn 0.366258 0.462864 -0.807225
vn -0.210135 -0.971910 -0.105995
vn -0.305369 -0.951309 0.041960
vn -0.306190 -0.942994 0.130423
vn -0.173648 -0.984808 -0.000001
vn -0.424596 -0.756040 0.498118
vn -0.432903 -0.722420 0.539171
vn -0.462457 -0.505389 0.728502
vn -0.414180 -0.555377 0.721118
vn -0.366258 -0.462864 0.807225
vn -0.283628 -0.574992 0.767423
vn -0.355471 0.922856 0.148247
vn -0.364948 0.910855 0.192759
vn -0.486655 0.854358 0.182318
vn -0.278655 0.937905 0.206605
vn -0.462868 0.790128 0.401810
vn -0.369722 0.869569 0.327344
vn -0.594868 0.641749 0.484035
vn -0.698271 0.530064 0.481093
vn -0.788400 0.413803 0.455183
vn -0.728028 0.489525 0.479937
vn 0.355471 -0.922856 -0.148247
vn 0.364948 -0.910855 -0.192759
vn 0.278655 -0.937905 -0.206605
vn 0.486655 -0.854358 -0.182318
vn 0.369722 -0.869569 -0.327344
vn 0.462868 -0.790128 -0.401810
vn 0.594868 -0.641749 -0.484035
vn 0.698271 -0.530064 -0.481093
vn 0.728028 -0.489525 -0.479937
vn 0.788400 -0.413803 -0.455183
vn 0.171102 0.976259 0.132827
vn 0.176158 0.979477 0.097948
vn -0.024252 0.990422 0.135929
vn -0.098029 0.980286 0.171550
vn 0.553375 0.817891 0.157574
vn 0.527237 0.837476 0.143718
vn 0.776605 0.619342 0.115329
vn 0.816534 0.557119 0.151293
vn 0.780869 0.624695 -0.000000
vn 0.861536 0.502864 0.069887
vn 0.024252 -0.990422 -0.135929
vn -0.176158 -0.979477 -0.097948
vn -0.171102 -0.976259 -0.132827
vn 0.098029 -0.980286 -0.171550
vn -0.527237 -0.837476 -0.143718
vn -0.553375 -0.817891 -0.157574
vn -0.816534 -0.557119 -0.151293
vn -0.776605 -0.619342 -0.115329
vn -0.861536 -0.502864 -0.069887
vn -0.780869 -0.624695 0.000000
vn 0.353194 0.805072 0.476563
vn 0.267981 0.858549 0.437127
vn 0.314666 0.885178 0.342703
vn 0.476585 0.766406 0.430683
vn 0.414436 0.658672 0.628008
vn 0.445491 0.623668 0.642320
vn 0.576600 0.366621 0.730152
vn 0.599758 0.321773 0.732634
vn 0.632897 0.203855 0.746917
vn 0.629454 0.189190 0.753654
vn -0.314666 -0.885178 -0.342703
vn -0.267981 -0.858549 -0.437127
vn -0.353194 -0.805072 -0.476563
vn -0.476585 -0.766406 -0.430683
vn -0.445491 -0.623668 -0.642320
vn -0.414436 -0.658672 -0.628008
vn -0.599758 -0.321773 -0.732634
vn -0.576600 -0.366621 -0.730152
vn -0.629454 -0.189190 -0.753654
vn -0.632897 -0.203855 -0.746917
vn -0.599227 0.797611 -0.068879
vn -0.529334 0.847998 0.026536
vn -0.601813 0.798554 0.011503
vn -0.669524 0.742782 -0.003622
vn -0.683338 0.631951 -0.365633
vn -0.634073 0.720462 -0.280868
vn -0.750754 0.448545 -0.484950
vn -0.721428 0.492699 -0.486610
vn -0.804285 0.242535 -0.542497
vn 0.601813 -0.798554 -0.011503
vn 0.529334 -0.847998 -0.026536
vn 0.599227 -0.797611 0.068879
vn 0.669524 -0.742782 0.003622
vn 0.634073 -0.720462 0.280868
vn 0.683338 -0.631951 0.365633
vn 0.721428 -0.492699 0.486610
vn 0.750754 -0.448545 0.484950
vn 0.804285 -0.242536 0.542497
vn 0.430097 0.597549 -0.676722
vn 0.398448 0.670976 -0.625324
vn 0.336936 0.689565 -0.641073
vn 0.315221 0.614384 -0.723304
vn 0.583478 0.419552 -0.695363
vn 0.548094 0.463911 -0.695974
vn 0.596408 0.372961 -0.710772
vn 0.610748 0.311776 -0.727861
vn -0.336936 -0.689565 0.641073
vn -0.398448 -0.670976 0.625324
vn -0.430097 -0.597549 0.676722
vn -0.315221 -0.614384 0.723304
vn -0.548094 -0.463911 0.695974
vn -0.583478 -0.419552 0.695363
vn -0.596409 -0.372961 0.710772
vn -0.610748 -0.311776 0.727861
# 114 normals

g leave1
usemtl Material01
s 1
f 1/1/1 2/2/2 3/3/3
f 4/4/4 1/1/1 3/3/3
f 1/1/1 5/5/5 6/6/6
f 2/2/2 1/1/1 6/6/6
f 7/7/7 8/8/8 6/6/6
f 5/5/5 7/7/7 6/6/6
f 7/7/7 9/9/9 10/10/10
f 8/8/8 7/7/7 10/10/10
# 8 triangles in group

g leave1shade
usemtl Material01
f 11/3/11 12/2/12 13/1/13
f 11/3/11 13/1/13 14/4/14
f 15/6/15 16/5/16 13/1/13
f 15/6/15 13/1/13 12/2/12
f 15/6/15 17/8/17 18/7/18
f 15/6/15 18/7/18 16/5/16
f 19/10/19 20/9/20 18/7/18
f 19/10/19 18/7/18 17/8/17
# 8 triangles in group

g leave2
usemtl Material01
f 21/11/21 22/1/22 23/4/23
f 21/11/21 24/12/24 22/1/22
f 24/12/24 25/13/25 26/5/26
f 22/1/22 24/12/24 26/5/26
f 25/13/25 27/7/27 26/5/26
f 25/13/25 28/14/28 27/7/27
f 28/14/28 29/15/29 30/9/30
f 27/7/27 28/14/28 30/9/30
# 8 triangles in group

g leave2shade
usemtl Material01
f 31/11/31 32/16/32 33/12/33
f 34/4/34 32/16/32 31/11/31
f 35/17/35 36/13/36 33/12/33
f 35/17/35 33/12/33 32/16/32
f 36/13/36 37/18/37 38/14/38
f 35/17/35 37/18/37 36/13/36
f 39/9/39 40/15/40 38/14/38
f 39/9/39 38/14/38 37/18/37
# 8 triangles in group

g leave3
usemtl Material01
f 41/19/41 42/12/42 43/11/43
f 44/20/44 41/19/41 43/11/43
f 41/19/41 45/21/45 46/13/46
f 42/12/42 41/19/41 46/13/46
f 47/22/47 48/14/48 46/13/46
f 45/21/45 47/22/47 46/13/46
f 47/22/47 49/23/49 50/24/50
f 48/14/48 47/22/47 50/24/50
# 8 triangles in group

g leave3shade
usemtl Material01
f 51/11/51 52/12/52 53/19/53
f 51/11/51 53/19/53 54/20/54
f 55/13/55 56/21/56 53/19/53
f 55/13/55 53/19/53 52/12/52
f 55/13/55 57/14/57 58/22/58
f 55/13/55 58/22/58 56/21/56
f 59/15/59 60/25/60 58/22/58
f 59/15/59 58/22/58 57/14/57
# 8 triangles in group

g leave4
usemtl Material01
f 61/26/61 62/19/62 63/20/63
f 64/27/64 61/26/61 63/20/63
f 61/26/61 65/28/65 66/21/66
f 62/19/62 61/26/61 66/21/66
f 67/29/67 68/22/68 66/21/66
f 65/28/65 67/29/67 66/21/66
f 67/29/67 69/30/69 70/25/70
f 68/22/68 67/29/67 70/25/70
# 8 triangles in group

g leave4shade
usemtl Material01
f 71/20/71 72/31/72 73/32/73
f 71/20/71 73/32/73 74/27/74
f 75/33/75 76/34/76 73/32/73
f 75/33/75 73/32/73 72/31/72
f 75/33/75 77/35/77 78/36/78
f 75/33/75 78/36/78 76/34/76
f 79/25/79 80/30/80 78/36/78
f 79/25/79 78/36/78 77/35/77
# 8 triangles in group

g leave5
usemtl Material01
f 81/26/81 82/19/82 83/20/83
f 84/27/84 81/26/81 83/20/83
f 81/26/81 85/28/85 86/21/86
f 82/19/82 81/26/81 86/21/86
f 87/29/87 88/22/88 86/21/86
f 85/28/85 87/29/87 86/21/86
f 87/29/87 89/30/89 90/25/89
f 88/22/88 87/29/87 90/25/89
# 8 triangles in group

g leave5shade
usemtl Material01
f 91/20/90 92/37/91 93/38/92
f 91/20/90 93/38/92 94/27/93
f 95/39/94 96/40/95 93/38/92
f 95/39/94 93/38/92 92/37/91
f 95/39/94 97/41/96 98/42/97
f 95/39/94 98/42/97 96/40/95
f 99/43/98 100/44/98 98/42/97
f 99/43/98 98/42/97 97/41/96
# 8 triangles in group

g leave6
usemtl Material01
f 101/1/99 102/2/100 103/3/101
f 104/4/102 101/1/99 103/3/101
f 101/1/99 105/5/103 106/6/104
f 102/2/100 101/1/99 106/6/104
f 107/7/105 108/8/105 106/6/104
f 105/5/103 107/7/105 106/6/104
f 107/7/105 109/9/106 110/10/106
f 108/8/105 107/7/105 110/10/106
# 8 triangles in group

g leave6shade
usemtl Material01
f 111/3/107 112/2/108 113/1/109
f 111/3/107 113/1/109 114/4/110
f 115/6/111 116/5/112 113/1/109
f 115/6/111 113/1/109 112/2/108
f 115/6/111 117/8/113 118/7/113
f 115/6/111 118/7/113 116/5/112
f 119/10/114 120/9/114 118/7/113
f 119/10/114 118/7/113 117/8/113
# 8 triangles in group

# 96 triangles total

