# Blender v2.78 (sub 0) OBJ File: ''
# www.blender.org
mtllib tris.mtl
o mat-tex.001
v 2.184366 8.690870 1.209117
v 3.585772 10.088703 3.443190
v 1.827515 8.923029 4.675912
v 0.847510 7.945527 3.113621
v -0.465869 8.290993 -0.104389
v -1.005803 7.665886 2.195085
v -3.352632 9.041795 0.004385
v -3.024517 8.190928 2.271152
v -5.373278 10.656507 1.493894
v -4.437557 9.320097 3.312767
v -5.755989 12.518360 3.795196
v -4.705185 10.622091 4.922068
v -4.354585 13.916189 6.029266
v -3.725184 11.599592 6.484356
v -1.704350 14.316070 7.342775
v -1.871873 11.879230 7.402891
v 1.182413 13.565264 7.233998
v 0.146842 11.354187 7.326829
v 3.203060 11.950554 5.744487
v 1.559883 10.225023 6.285213
v 3.738793 10.750978 2.932826
v 3.356077 12.612831 5.234125
v 2.337385 9.353151 0.698752
v -0.312851 8.953268 -0.614752
v -3.199615 9.704073 -0.505976
v -5.220260 11.318784 0.983533
v -5.602972 13.180637 3.284832
v -4.201564 14.578465 5.518903
v -1.551332 14.978347 6.832410
v 1.335433 14.227541 6.723634
v 2.987453 12.947143 4.693818
v 2.677219 12.510392 4.897676
v 2.999346 10.943291 2.960692
v 3.328935 11.285872 2.640442
v 1.819793 9.766750 1.080295
v 2.078506 10.038636 0.647050
v -0.410884 9.430172 -0.025270
v -0.286215 9.681831 -0.524951
v -2.840645 10.062119 0.066285
v -2.861981 10.351753 -0.427892
v -4.541405 11.421207 1.319993
v -4.664940 11.792509 0.901148
v -4.863533 12.988311 3.256974
v -5.006423 13.453781 2.954525
v -3.683980 14.164851 5.137375
v -3.755993 14.701016 4.947917
v -1.453304 14.501429 6.242939
v -1.391273 15.057822 6.119915
v 0.976459 13.869481 6.151384
v 1.184494 14.387901 6.022863
v 4.863532 19.011692 -3.256977
v 5.006425 18.546225 -2.954525
v 3.755994 17.298986 -4.947918
v 3.683981 17.835152 -5.137373
v 1.391274 16.942184 -6.119919
v 1.453304 17.498575 -6.242939
v -1.184493 17.612103 -6.022859
v -0.976459 18.130522 -6.151383
v -2.987452 19.052860 -4.693820
v -2.677218 19.489611 -4.897676
v -3.328934 20.714132 -2.640445
v -2.999344 21.056713 -2.960694
v -2.078504 21.961367 -0.647051
v -1.819793 22.233252 -1.080296
v 0.286215 22.318169 0.524949
v 0.410885 22.569830 0.025270
v 2.861981 21.648249 0.427891
v 2.840645 21.937885 -0.066287
v 4.664941 20.207495 -0.901150
v 4.541406 20.578796 -1.319991
v 3.826195 16.577318 1.896334
v 4.167679 14.916049 -0.157043
v 2.917249 13.668810 -2.150433
v 0.552530 13.312008 -3.322435
v -2.023237 13.981928 -3.225376
v -3.826196 15.422684 -1.896335
v -4.167680 17.083956 0.157043
v -2.917248 18.331194 2.150432
v -0.552529 18.687996 3.322434
v 2.023237 18.018076 3.225374
v 2.078443 10.953204 -0.822843
v 0.644928 10.736906 -1.533319
v -0.498686 11.476012 -1.480769
v 2.521152 11.931664 0.015919
v -3.502465 15.821110 3.257078
v -3.181611 16.272163 4.502269
v -1.748097 16.488461 5.212747
v -0.482625 16.276758 4.753766
v 1.680877 9.232498 0.503168
v 0.247365 9.016201 -0.207308
v -0.957181 9.491604 0.048455
v 2.062659 9.947256 1.545145
v -3.960959 13.836702 4.786302
v -3.579175 14.551458 5.828277
v -2.145664 14.767754 6.538754
v -0.941118 14.292352 6.282991
v 1.704351 17.683931 -7.342776
v -1.182413 18.434740 -7.233999
v -0.146842 20.645813 -7.326828
v 1.871873 20.120771 -7.402891
v 4.354587 18.083815 -6.029269
v 3.725185 20.400412 -6.484358
v 5.755993 19.481642 -3.795195
v 4.705190 21.377913 -4.922069
v 5.373280 21.343494 -1.493896
v 4.437557 22.679909 -3.312770
v 3.352633 22.958206 -0.004387
v 3.024518 23.809074 -2.271153
v 0.465870 23.709011 0.104388
v 1.005803 24.334116 -2.195087
v -2.184365 23.309132 -1.209118
v -0.847509 24.054478 -3.113623
v -3.585769 21.911301 -3.443189
v -1.827510 23.076977 -4.675911
v -3.203060 20.049448 -5.744488
v -1.559882 21.774982 -6.285212
v -1.335430 17.772463 -6.723635
v -3.356076 19.387173 -5.234126
v 1.551332 17.021654 -6.832409
v 4.201566 17.421537 -5.518905
v 5.602975 18.819366 -3.284834
v 5.220262 20.681221 -0.983533
v 3.199615 22.295929 0.505976
v 0.312851 23.046736 0.614752
v -2.337380 22.646854 -0.698754
v -3.738789 21.249027 -2.932827
v 1.748097 15.511542 -5.212747
v 3.181612 15.727838 -4.502271
v 3.502464 16.178892 -3.257080
v 0.482627 15.723243 -4.753767
v 0.498688 20.523991 1.480768
v -0.644928 21.263096 1.533317
v -2.078441 21.046799 0.822841
v -2.521150 20.068338 -0.015921
v 2.145664 17.232248 -6.538754
v 3.579176 17.448544 -5.828280
v 3.960958 18.163303 -4.786303
v 0.941121 17.707653 -6.282990
v 0.957182 22.508396 -0.048455
v -0.247360 22.983803 0.207307
v -1.680874 22.767506 -0.503169
v -2.062656 22.052750 -1.545143
vt 0.4776 0.3326
vt 0.5699 0.4525
vt 0.6332 0.3633
vt 0.5836 0.2971
vt 0.4776 0.1799
vt 0.5836 0.2154
vt 0.5699 0.0600
vt 0.6332 0.1492
vt 0.7122 0.0154
vt 0.7122 0.1246
vt 0.8546 0.0600
vt 0.7913 0.1492
vt 0.9469 0.1799
vt 0.8408 0.2154
vt 0.9469 0.3326
vt 0.8408 0.2971
vt 0.8546 0.4525
vt 0.7913 0.3633
vt 0.7122 0.4970
vt 0.7122 0.3879
vt 0.4187 0.4030
vt 0.4187 0.5001
vt 0.4606 0.4991
vt 0.4606 0.4034
vt 0.4187 0.3058
vt 0.4606 0.3062
vt 0.4187 0.2087
vt 0.4606 0.2091
vt 0.4187 0.1115
vt 0.4606 0.1120
vt 0.4187 0.0144
vt 0.4606 0.0148
vt 0.4187 0.8883
vt 0.4187 0.9854
vt 0.4606 0.9858
vt 0.4606 0.8887
vt 0.4187 0.7911
vt 0.4606 0.7916
vt 0.4187 0.6940
vt 0.4606 0.6944
vt 0.4187 0.5968
vt 0.4606 0.5973
vt 0.4606 0.5001
vt 0.7593 0.5087
vt 0.8446 0.4812
vt 0.9297 0.5090
vt 0.9823 0.5816
vt 0.9821 0.6713
vt 0.9293 0.7437
vt 0.8440 0.7712
vt 0.7588 0.7433
vt 0.7063 0.6707
vt 0.7064 0.5811
vt 0.0342 0.9852
vt 0.0126 0.9853
vt 0.0126 0.8859
vt 0.0342 0.8858
vt 0.0126 0.7865
vt 0.0342 0.7864
vt 0.0126 0.6872
vt 0.0342 0.6871
vt 0.0126 0.5881
vt 0.0342 0.5880
vt 0.0126 0.4891
vt 0.0342 0.4890
vt 0.0342 0.4876
vt 0.0126 0.4875
vt 0.0126 0.5864
vt 0.0342 0.5865
vt 0.0126 0.6852
vt 0.0342 0.6854
vt 0.0126 0.7833
vt 0.0342 0.7844
vt 0.0126 0.8840
vt 0.0342 0.8840
vt 0.0126 0.9833
vt 0.0342 0.9834
vt 0.4036 0.8851
vt 0.3819 0.8852
vt 0.3819 0.7859
vt 0.4036 0.7858
vt 0.3819 0.6867
vt 0.4036 0.6866
vt 0.3819 0.5877
vt 0.4036 0.5875
vt 0.3819 0.4887
vt 0.4036 0.4885
vt 0.3819 0.5877
vt 0.4036 0.5875
vt 0.3819 0.6857
vt 0.4036 0.6866
vt 0.3819 0.7848
vt 0.4036 0.7836
vt 0.3819 0.8852
vt 0.4036 0.8851
vt 0.3819 0.9839
vt 0.4036 0.9841
vt 0.2080 0.9850
vt 0.2080 0.8856
vt 0.2080 0.7863
vt 0.2080 0.6871
vt 0.2080 0.5879
vt 0.2080 0.4889
vt 0.2080 0.4877
vt 0.2080 0.5867
vt 0.2080 0.6857
vt 0.2080 0.7847
vt 0.2080 0.8840
vt 0.2080 0.9835
vt 0.2629 0.0925
vt 0.1698 0.0925
vt 0.1295 0.0415
vt 0.3032 0.0415
vt 0.3032 0.0415
vt 0.2629 0.0925
vt 0.1698 0.0925
vt 0.1295 0.0415
vt 0.2707 0.2201
vt 0.1620 0.2201
vt 0.0942 0.1899
vt 0.3385 0.1899
vt 0.3385 0.1899
vt 0.2707 0.2201
vt 0.1620 0.2201
vt 0.0942 0.1899
vt 0.4776 0.1799
vt 0.5699 0.0600
vt 0.6332 0.1492
vt 0.5836 0.2154
vt 0.4776 0.3326
vt 0.5836 0.2971
vt 0.5699 0.4525
vt 0.6332 0.3633
vt 0.7122 0.4970
vt 0.7122 0.3879
vt 0.8546 0.4525
vt 0.7913 0.3633
vt 0.9469 0.3326
vt 0.8408 0.2971
vt 0.9469 0.1799
vt 0.8408 0.2154
vt 0.8546 0.0600
vt 0.7913 0.1492
vt 0.7122 0.0154
vt 0.7122 0.1246
vt 0.4187 0.1115
vt 0.4187 0.0144
vt 0.4606 0.0148
vt 0.4606 0.1108
vt 0.4187 0.2087
vt 0.4606 0.2079
vt 0.4187 0.3058
vt 0.4606 0.3050
vt 0.4187 0.4030
vt 0.4606 0.4022
vt 0.4187 0.5001
vt 0.4606 0.4991
vt 0.4187 0.5968
vt 0.4606 0.5973
vt 0.4187 0.6940
vt 0.4606 0.6944
vt 0.4187 0.7911
vt 0.4606 0.7916
vt 0.4187 0.8883
vt 0.4606 0.8887
vt 0.4187 0.9854
vt 0.4606 0.9858
vt 0.5471 0.7235
vt 0.6324 0.6960
vt 0.7176 0.7238
vt 0.7701 0.7965
vt 0.7699 0.8861
vt 0.7171 0.9585
vt 0.6318 0.9860
vt 0.5466 0.9581
vt 0.4941 0.8855
vt 0.4943 0.7959
vt 0.1698 0.3695
vt 0.2629 0.3695
vt 0.3032 0.4205
vt 0.1295 0.4205
vt 0.1295 0.4205
vt 0.1698 0.3695
vt 0.2629 0.3695
vt 0.3032 0.4205
vt 0.1620 0.2419
vt 0.2707 0.2419
vt 0.3385 0.2721
vt 0.0942 0.2721
vt 0.0942 0.2721
vt 0.1620 0.2419
vt 0.2707 0.2419
vt 0.3385 0.2721
vt 0.5836 0.2971
vt 0.8408 0.2154
vt 0.8408 0.2971
vt 0.5836 0.2154
vt 0.6332 0.1492
vt 0.7913 0.1492
vt 0.7122 0.1246
vt 0.7913 0.3633
vt 0.6332 0.3633
vt 0.7122 0.3879
vt 0.7913 0.1492
vt 0.7122 0.1246
vt 0.6332 0.1492
vt 0.8408 0.2154
vt 0.5836 0.2154
vt 0.8408 0.2971
vt 0.5836 0.2971
vt 0.6332 0.3633
vt 0.7913 0.3633
vt 0.7122 0.3879
vn 0.5782 -0.7624 -0.2905
vn 0.8590 -0.4904 0.1467
vn 0.1909 -0.8392 0.5091
vn 0.1656 -0.9641 0.2075
vn 0.0548 -0.8371 -0.5443
vn -0.1217 -0.9907 -0.0604
vn -0.5112 -0.6859 -0.5178
vn -0.4103 -0.8850 0.2200
vn -0.9037 -0.3667 -0.2212
vn -0.6473 -0.6950 0.3130
vn -0.9727 -0.0013 0.2323
vn -0.5805 -0.5590 0.5921
vn -0.6918 0.2707 0.6694
vn -0.4265 -0.4432 0.7884
vn -0.1684 0.3454 0.9232
vn -0.1510 -0.1898 0.9701
vn 0.3976 0.1942 0.8968
vn 0.1462 -0.4348 0.8886
vn 0.7900 -0.1250 0.6002
vn 0.2519 -0.6679 0.7004
vn 0.9855 0.0786 -0.1506
vn 0.4521 0.8006 -0.3931
vn 0.7181 0.0322 -0.6951
vn 0.2937 -0.0687 -0.9534
vn -0.2037 0.0267 -0.9787
vn -0.5839 0.2821 -0.7612
vn -0.7018 0.6000 -0.3841
vn -0.5123 0.8588 0.0085
vn -0.0878 0.9597 0.2668
vn 0.4122 0.7384 0.5338
vn 0.8248 -0.0372 0.5643
vn 0.6818 -0.1501 0.7160
vn 0.8119 -0.5009 0.2997
vn 0.9050 -0.4135 0.1000
vn 0.6027 -0.7866 -0.1337
vn 0.6245 -0.6971 -0.3522
vn 0.1342 -0.8981 -0.4188
vn 0.0903 -0.7798 -0.6195
vn -0.4148 -0.7927 -0.4467
vn -0.4934 -0.6298 -0.5999
vn -0.8345 -0.5108 -0.2067
vn -0.9037 -0.3045 -0.3009
vn -0.9646 -0.1600 0.2096
vn -0.9840 0.0718 0.1634
vn -0.7554 0.1257 0.6430
vn -0.7034 0.3554 0.6155
vn -0.2869 0.2372 0.9281
vn -0.1693 0.4380 0.8829
vn 0.2621 0.1318 0.9560
vn 0.4144 0.2881 0.8633
vn 0.9296 0.0480 -0.3654
vn 0.9965 -0.0138 -0.0824
vn 0.7711 -0.3217 -0.5495
vn 0.6163 -0.1875 -0.7649
vn 0.2662 -0.4418 -0.8567
vn 0.0967 -0.2252 -0.9695
vn -0.3254 -0.3283 -0.8868
vn -0.4307 -0.0506 -0.9011
vn -0.7778 -0.0244 -0.6281
vn -0.7644 0.2695 -0.5858
vn -0.9180 0.3536 -0.1795
vn -0.7769 0.6129 -0.1439
vn -0.6926 0.6615 0.2876
vn -0.4636 0.8484 0.2556
vn -0.1876 0.7816 0.5948
vn 0.0560 0.8860 0.4602
vn 0.4040 0.6681 0.6249
vn 0.5834 0.7115 0.3918
vn 0.8563 0.3643 0.3662
vn 0.9171 0.3914 0.0765
vn 0.9283 0.0673 0.3656
vn 0.9422 -0.3119 -0.1222
vn 0.5962 -0.5719 -0.5634
vn 0.0225 -0.6135 -0.7894
vn -0.5599 -0.4207 -0.7138
vn -0.9283 -0.0673 -0.3656
vn -0.9422 0.3119 0.1222
vn -0.5962 0.5719 0.5634
vn -0.0225 0.6135 0.7894
vn 0.5599 0.4207 0.7138
vn 0.7595 -0.0455 -0.6489
vn 0.2438 -0.3719 -0.8957
vn -0.0371 0.0137 -0.9992
vn 0.7990 0.1398 -0.5848
vn -0.3620 0.9024 -0.2336
vn -0.7098 0.6811 0.1799
vn -0.1071 0.9256 0.3630
vn 0.3153 0.8089 0.4962
vn 0.6437 -0.5549 -0.5271
vn -0.1120 -0.5902 -0.7995
vn -0.3672 -0.5130 -0.7758
vn 0.9402 -0.3158 -0.1279
vn -0.9402 0.3158 0.1279
vn -0.6437 0.5549 0.5271
vn 0.1120 0.5902 0.7995
vn 0.3672 0.5130 0.7758
vn 0.1885 -0.3466 -0.9189
vn -0.3798 -0.2028 -0.9026
vn -0.0470 0.3870 -0.9209
vn 0.2881 0.1812 -0.9403
vn 0.7065 -0.2642 -0.6566
vn 0.4949 0.4736 -0.7285
vn 0.9763 0.0131 -0.2158
vn 0.6753 0.5588 -0.4814
vn 0.8950 0.3793 0.2350
vn 0.4842 0.7964 -0.3623
vn 0.4934 0.6945 0.5236
vn 0.3516 0.9313 -0.0950
vn -0.0749 0.8384 0.5399
vn -0.0154 0.9994 0.0305
vn -0.5929 0.7559 0.2776
vn -0.1725 0.9219 -0.3469
vn -0.8627 0.4786 -0.1631
vn -0.3707 0.7595 -0.5345
vn -0.7813 0.1125 -0.6139
vn -0.1511 0.6453 -0.7488
vn -0.5879 -0.6537 -0.4765
vn -0.4829 -0.7561 0.4417
vn -0.0845 -0.9488 -0.3043
vn 0.3862 -0.9147 -0.1189
vn 0.6701 -0.7014 0.2430
vn 0.6587 -0.3903 0.6432
vn 0.3564 -0.1003 0.9289
vn -0.1214 0.0578 0.9909
vn -0.5921 0.0237 0.8055
vn -0.9490 0.0381 0.3130
vn -0.0969 -0.9130 -0.3962
vn 0.5428 -0.7658 -0.3449
vn 0.5816 -0.8013 0.1404
vn -0.2545 -0.9274 -0.2740
vn -0.1035 -0.2290 0.9679
vn 0.0006 0.3447 0.9387
vn -0.6164 0.1209 0.7781
vn -0.9022 0.0400 0.4295
vn 0.1727 -0.6260 -0.7605
vn 0.8298 -0.4481 -0.3327
vn -0.1727 0.6260 0.7605
vn -0.8298 0.4481 0.3327
usemtl Material01.004
s 1
f 1/1/1 2/2/2 3/3/3
f 1/1/1 3/3/3 4/4/4
f 5/5/5 1/1/1 4/4/4
f 5/5/5 4/4/4 6/6/6
f 7/7/7 5/5/5 6/6/6
f 7/7/7 6/6/6 8/8/8
f 9/9/9 7/7/7 8/8/8
f 9/9/9 8/8/8 10/10/10
f 11/11/11 9/9/9 10/10/10
f 11/11/11 10/10/10 12/12/12
f 13/13/13 11/11/11 12/12/12
f 13/13/13 12/12/12 14/14/14
f 15/15/15 13/13/13 14/14/14
f 15/15/15 14/14/14 16/16/16
f 17/17/17 15/15/15 16/16/16
f 17/17/17 16/16/16 18/18/18
f 19/19/19 17/17/17 18/18/18
f 19/19/19 18/18/18 20/20/20
f 2/2/2 19/19/19 20/20/20
f 2/2/2 20/20/20 3/3/3
f 21/21/21 22/22/22 19/23/19
f 21/21/21 19/23/19 2/24/2
f 23/25/23 21/21/21 2/24/2
f 23/25/23 2/24/2 1/26/1
f 24/27/24 23/25/23 1/26/1
f 24/27/24 1/26/1 5/28/5
f 25/29/25 24/27/24 5/28/5
f 25/29/25 5/28/5 7/30/7
f 26/31/26 25/29/25 7/30/7
f 26/31/26 7/30/7 9/32/9
f 27/33/27 26/34/26 9/35/9
f 27/33/27 9/35/9 11/36/11
f 28/37/28 27/33/27 11/36/11
f 28/37/28 11/36/11 13/38/13
f 29/39/29 28/37/28 13/38/13
f 29/39/29 13/38/13 15/40/15
f 30/41/30 29/39/29 15/40/15
f 30/41/30 15/40/15 17/42/17
f 22/22/22 30/41/30 17/42/17
f 22/22/22 17/42/17 19/43/19
f 22/44/22 21/45/21 23/46/23
f 22/44/22 23/46/23 24/47/24
f 22/44/22 24/47/24 25/48/25
f 22/44/22 25/48/25 26/49/26
f 22/44/22 26/49/26 27/50/27
f 22/44/22 27/50/27 28/51/28
f 22/44/22 28/51/28 29/52/29
f 22/44/22 29/52/29 30/53/30
f 31/54/31 32/55/32 33/56/33
f 31/54/31 33/56/33 34/57/34
f 34/57/34 33/56/33 35/58/35
f 34/57/34 35/58/35 36/59/36
f 36/59/36 35/58/35 37/60/37
f 36/59/36 37/60/37 38/61/38
f 38/61/38 37/60/37 39/62/39
f 38/61/38 39/62/39 40/63/40
f 40/63/40 39/62/39 41/64/41
f 40/63/40 41/64/41 42/65/42
f 42/66/42 41/67/41 43/68/43
f 42/66/42 43/68/43 44/69/44
f 44/69/44 43/68/43 45/70/45
f 44/69/44 45/70/45 46/71/46
f 46/71/46 45/70/45 47/72/47
f 46/71/46 47/72/47 48/73/48
f 48/73/48 47/72/47 49/74/49
f 48/73/48 49/74/49 50/75/50
f 50/75/50 49/74/49 32/76/32
f 50/75/50 32/76/32 31/77/31
f 51/78/51 52/79/52 53/80/53
f 51/78/51 53/80/53 54/81/54
f 54/81/54 53/80/53 55/82/55
f 54/81/54 55/82/55 56/83/56
f 56/83/56 55/82/55 57/84/57
f 56/83/56 57/84/57 58/85/58
f 58/85/58 57/84/57 59/86/59
f 58/85/58 59/86/59 60/87/60
f 60/87/60 59/86/59 61/88/61
f 60/87/60 61/88/61 62/89/62
f 62/89/62 61/88/61 63/90/63
f 62/89/62 63/90/63 64/91/64
f 64/91/64 63/90/63 65/92/65
f 64/91/64 65/92/65 66/93/66
f 66/93/66 65/92/65 67/94/67
f 66/93/66 67/94/67 68/95/68
f 68/95/68 67/94/67 69/96/69
f 68/95/68 69/96/69 70/97/70
f 70/97/70 69/96/69 52/79/52
f 70/97/70 52/79/52 51/78/51
f 52/79/52 69/96/69 71/98/71
f 52/79/52 71/98/71 72/99/72
f 53/80/53 52/79/52 72/99/72
f 53/80/53 72/99/72 73/100/73
f 55/82/55 53/80/53 73/100/73
f 55/82/55 73/100/73 74/101/74
f 57/84/57 55/82/55 74/101/74
f 57/84/57 74/101/74 75/102/75
f 59/86/59 57/84/57 75/102/75
f 59/86/59 75/102/75 76/103/76
f 61/88/61 59/86/59 76/104/76
f 61/88/61 76/104/76 77/105/77
f 63/90/63 61/88/61 77/105/77
f 63/90/63 77/105/77 78/106/78
f 65/92/65 63/90/63 78/106/78
f 65/92/65 78/106/78 79/107/79
f 67/94/67 65/92/65 79/107/79
f 67/94/67 79/107/79 80/108/80
f 69/96/69 67/94/67 80/108/80
f 69/96/69 80/108/80 71/109/71
f 71/98/71 31/54/31 34/57/34
f 71/98/71 34/57/34 72/99/72
f 72/99/72 34/57/34 36/59/36
f 72/99/72 36/59/36 73/100/73
f 73/100/73 36/59/36 38/61/38
f 73/100/73 38/61/38 74/101/74
f 74/101/74 38/61/38 40/63/40
f 74/101/74 40/63/40 75/102/75
f 75/102/75 40/63/40 42/65/42
f 75/102/75 42/65/42 76/103/76
f 76/104/76 42/66/42 44/69/44
f 76/104/76 44/69/44 77/105/77
f 77/105/77 44/69/44 46/71/46
f 77/105/77 46/71/46 78/106/78
f 78/106/78 46/71/46 48/73/48
f 78/106/78 48/73/48 79/107/79
f 79/107/79 48/73/48 50/75/50
f 79/107/79 50/75/50 80/108/80
f 80/108/80 50/75/50 31/77/31
f 80/108/80 31/77/31 71/109/71
f 81/110/81 82/111/82 83/112/83
f 81/110/81 83/112/83 84/113/84
f 85/114/85 86/115/86 87/116/87
f 85/114/85 87/116/87 88/117/88
f 89/118/89 90/119/90 82/111/82
f 89/118/89 82/111/82 81/110/81
f 90/119/90 91/120/91 83/112/83
f 90/119/90 83/112/83 82/111/82
f 92/121/92 89/118/89 81/110/81
f 92/121/92 81/110/81 84/113/84
f 93/122/93 94/123/94 86/115/86
f 93/122/93 86/115/86 85/114/85
f 94/123/94 95/124/95 87/116/87
f 94/123/94 87/116/87 86/115/86
f 95/124/95 96/125/96 88/117/88
f 95/124/95 88/117/88 87/116/87
f 97/126/97 98/127/98 99/128/99
f 97/126/97 99/128/99 100/129/100
f 101/130/101 97/126/97 100/129/100
f 101/130/101 100/129/100 102/131/102
f 103/132/103 101/130/101 102/131/102
f 103/132/103 102/131/102 104/133/104
f 105/134/105 103/132/103 104/133/104
f 105/134/105 104/133/104 106/135/106
f 107/136/107 105/134/105 106/135/106
f 107/136/107 106/135/106 108/137/108
f 109/138/109 107/136/107 108/137/108
f 109/138/109 108/137/108 110/139/110
f 111/140/111 109/138/109 110/139/110
f 111/140/111 110/139/110 112/141/112
f 113/142/113 111/140/111 112/141/112
f 113/142/113 112/141/112 114/143/114
f 115/144/115 113/142/113 114/143/114
f 115/144/115 114/143/114 116/145/116
f 98/127/98 115/144/115 116/145/116
f 98/127/98 116/145/116 99/128/99
f 117/146/117 118/147/118 115/148/115
f 117/146/117 115/148/115 98/149/98
f 119/150/119 117/146/117 98/149/98
f 119/150/119 98/149/98 97/151/97
f 120/152/120 119/150/119 97/151/97
f 120/152/120 97/151/97 101/153/101
f 121/154/121 120/152/120 101/153/101
f 121/154/121 101/153/101 103/155/103
f 122/156/122 121/154/121 103/155/103
f 122/156/122 103/155/103 105/157/105
f 123/158/123 122/156/122 105/157/105
f 123/158/123 105/157/105 107/159/107
f 124/160/124 123/158/123 107/159/107
f 124/160/124 107/159/107 109/161/109
f 125/162/125 124/160/124 109/161/109
f 125/162/125 109/161/109 111/163/111
f 126/164/126 125/162/125 111/163/111
f 126/164/126 111/163/111 113/165/113
f 118/166/118 126/164/126 113/165/113
f 118/166/118 113/165/113 115/167/115
f 118/168/118 117/169/117 119/170/119
f 118/168/118 119/170/119 120/171/120
f 118/168/118 120/171/120 121/172/121
f 118/168/118 121/172/121 122/173/122
f 118/168/118 122/173/122 123/174/123
f 118/168/118 123/174/123 124/175/124
f 118/168/118 124/175/124 125/176/125
f 118/168/118 125/176/125 126/177/126
f 127/178/127 128/179/128 129/180/129
f 127/178/127 129/180/129 130/181/130
f 131/182/131 132/183/132 133/184/133
f 131/182/131 133/184/133 134/185/134
f 135/186/135 136/187/136 128/179/128
f 135/186/135 128/179/128 127/178/127
f 136/187/136 137/188/92 129/180/129
f 136/187/136 129/180/129 128/179/128
f 138/189/91 135/186/135 127/178/127
f 138/189/91 127/178/127 130/181/130
f 139/190/96 140/191/137 132/183/132
f 139/190/96 132/183/132 131/182/131
f 140/191/137 141/192/138 133/184/133
f 140/191/137 133/184/133 132/183/132
f 141/192/138 142/193/93 134/185/134
f 141/192/138 134/185/134 133/184/133
f 116/194/116 106/195/106 104/196/104
f 116/194/116 114/197/114 106/195/106
f 114/197/114 112/198/112 106/195/106
f 112/198/112 108/199/108 106/195/106
f 112/198/112 110/200/110 108/199/108
f 104/196/104 102/201/102 116/194/116
f 102/201/102 99/202/99 116/194/116
f 102/201/102 100/203/100 99/202/99
f 18/204/18 16/205/16 14/206/14
f 14/206/14 20/207/20 18/204/18
f 20/207/20 14/206/14 12/208/12
f 12/208/12 3/209/3 20/207/20
f 10/210/10 3/209/3 12/208/12
f 10/210/10 8/211/8 3/209/3
f 8/211/8 4/212/4 3/209/3
f 8/211/8 6/213/6 4/212/4
