# Blender v2.67 (sub 0) OBJ File: ''
# www.blender.org
mtllib tris.mtl
o Icosphere
v -0.027918 -0.836991 0.024217
v 0.698882 -0.496905 0.542344
v -0.244975 -0.410875 0.701943
v -0.919152 -0.496901 0.016619
v -0.301109 -0.496899 -0.834018
v 0.698813 -0.496863 -0.509057
v 0.251663 0.397534 0.867268
v -0.718601 0.376028 0.520700
v -0.748327 0.397530 -0.509103
v 0.256246 0.402982 -0.842887
v 0.964890 0.445123 0.016619
v -0.024725 0.949949 0.016619
v 0.400597 -0.900340 0.325630
v 0.238143 -0.575423 0.825630
v -0.146081 -0.713990 0.390129
v 0.330381 -0.718304 -0.223809
v 0.825922 -0.575422 0.016619
v -0.712915 -0.575422 0.516615
v -0.550455 -0.900338 0.016619
v -0.712915 -0.575422 -0.483378
v -0.173409 -0.828225 -0.440989
v 0.176803 -0.447035 -0.598410
v 1.028262 -0.049686 -0.325511
v 0.926333 -0.049686 0.325631
v 0.563060 -0.049686 0.825635
v -0.024725 -0.049686 1.016416
v -0.579245 -0.050119 0.780257
v -0.975783 -0.049686 0.325631
v -0.975783 -0.049686 -0.292394
v -0.586387 -0.049686 -0.756440
v -0.024340 -0.050285 -0.880153
v 0.563156 -0.049686 -0.792530
v 0.663464 0.476050 0.516615
v -0.260370 0.429874 0.761902
v -0.875373 0.476050 0.016619
v -0.224976 0.347874 -0.597362
v 0.713447 0.517203 -0.522225
v 0.515438 0.824320 0.016619
v 0.137730 0.800969 0.516614
v -0.341361 0.590576 0.266807
v -0.331862 0.545877 -0.179457
v 0.133354 0.729408 -0.449066
vt 0.893447 0.201983
vt 0.922557 0.041183
vt 0.982065 0.169106
vt 0.453155 0.208628
vt 0.361262 0.040083
vt 0.604411 0.198216
vt 0.986557 0.322262
vt 0.867099 0.316341
vt 0.789312 0.161266
vt 0.519234 0.354298
vt 0.229176 0.349170
vt 0.315828 0.238202
vt 0.310089 0.437969
vt 0.058801 0.486962
vt 0.138443 0.406044
vt 0.125568 0.604437
vt 0.853782 0.470156
vt 0.922551 0.468992
vt 0.909172 0.628493
vt 0.709579 0.299450
vt 0.805210 0.362703
vt 0.719689 0.474675
vt 0.409171 0.371507
vt 0.219693 0.525158
vt 0.019234 0.645702
vt 0.810069 0.561780
vt 0.625568 0.395563
vt 0.382369 0.539740
vt 0.470929 0.531008
vt 0.416577 0.704549
vt 0.209294 0.699745
vt 0.306541 0.635840
vt 0.299036 0.830321
vt 0.851794 0.801680
vt 0.949792 0.832708
vt 0.577447 0.980610
vt 0.728566 0.649868
vt 0.761243 0.773469
vt 0.659003 0.787758
vt 0.558801 0.513038
vt 0.638621 0.594675
vt 0.539333 0.685435
vt 0.154688 0.204291
vt 0.039333 0.314565
vt 0.987333 0.479265
vt 0.973601 0.648386
vt 0.104411 0.801784
vt 0.366417 0.925012
vt 0.942017 0.940380
vn 0.055574 -0.998138 0.023957
vn 0.244911 -0.951140 0.187872
vn -0.157201 -0.860775 0.484085
vn 0.723594 -0.447188 0.525712
vn 0.767815 -0.640065 -0.027223
vn -0.342540 -0.937284 0.064028
vn 0.079470 -0.887997 -0.452895
vn 0.269845 -0.881069 -0.388379
vn 0.921506 -0.046937 0.385479
vn -0.273263 -0.576678 0.769890
vn 0.079073 -0.602863 0.793878
vn -0.110385 -0.057436 0.992218
vn -0.894406 -0.447188 0.000000
vn -0.532029 -0.581561 0.615345
vn -0.937162 0.019532 0.348277
vn -0.094852 -0.463210 -0.881130
vn -0.659566 -0.541093 -0.521653
vn -0.485672 0.118381 -0.866054
vn 0.479934 -0.647298 -0.592120
vn 0.258644 -0.600757 -0.756401
vn 0.427320 -0.150456 -0.891476
vn 0.587695 0.000000 0.809076
vn -0.526780 -0.041536 0.848964
vn -0.943693 -0.000610 -0.330790
vn -0.026276 -0.005463 -0.999634
vn 0.944121 -0.079470 -0.319834
vn 0.221015 0.462478 0.858608
vn 0.654256 0.514389 0.554338
vn -0.001465 0.857814 0.513901
vn -0.605426 0.584704 0.539933
vn -0.347179 0.597705 0.722617
vn -0.459578 0.865902 0.197363
vn -0.508255 0.633076 -0.583789
vn -0.698416 0.715598 0.009827
vn -0.394513 0.865566 -0.308359
vn 0.031098 0.461104 -0.886776
vn -0.297159 0.632649 -0.715110
vn -0.133793 0.830988 -0.539903
vn 0.880886 0.465529 0.085360
vn 0.592853 0.578906 -0.559771
vn 0.440504 0.897732 -0.002350
vn -0.297250 0.951781 -0.075594
usemtl None
s 1
f 1/1/1 13/2/2 15/3/3
f 2/4/4 13/5/2 17/6/5
f 1/1/1 15/3/3 19/7/6
f 1/1/1 19/7/6 21/8/7
f 1/1/1 21/8/7 16/9/8
f 2/4/4 17/6/5 24/10/9
f 3/11/10 14/12/11 26/13/12
f 4/14/13 18/15/14 28/16/15
f 5/17/16 20/18/17 30/19/18
f 6/20/19 22/21/20 32/22/21
f 2/4/4 24/10/9 25/23/22
f 3/11/10 26/13/12 27/24/23
f 4/14/13 28/16/15 29/25/24
f 5/17/16 30/19/18 31/26/25
f 6/20/19 32/22/21 23/27/26
f 7/28/27 33/29/28 39/30/29
f 8/31/30 34/32/31 40/33/32
f 9/34/33 35/35/34 41/36/35
f 10/37/36 36/38/37 42/39/38
f 11/40/39 37/41/40 38/42/41
f 15/43/3 14/12/11 3/11/10
f 15/43/3 13/5/2 14/12/11
f 13/5/2 2/4/4 14/12/11
f 17/6/5 16/9/8 6/20/19
f 17/6/5 13/5/2 16/9/8
f 13/2/2 1/1/1 16/9/8
f 19/44/6 18/15/14 4/14/13
f 19/44/6 15/43/3 18/15/14
f 15/43/3 3/11/10 18/15/14
f 21/8/7 20/18/17 5/17/16
f 21/8/7 19/7/6 20/18/17
f 19/7/6 4/45/13 20/18/17
f 16/9/8 22/21/20 6/20/19
f 16/9/8 21/8/7 22/21/20
f 21/8/7 5/17/16 22/21/20
f 24/10/9 23/27/26 11/40/39
f 24/10/9 17/6/5 23/27/26
f 17/6/5 6/20/19 23/27/26
f 26/13/12 25/23/22 7/28/27
f 26/13/12 14/12/11 25/23/22
f 14/12/11 2/4/4 25/23/22
f 28/16/15 27/24/23 8/31/30
f 28/16/15 18/15/14 27/24/23
f 18/15/14 3/11/10 27/24/23
f 30/19/18 29/46/24 9/34/33
f 30/19/18 20/18/17 29/46/24
f 20/18/17 4/45/13 29/46/24
f 32/22/21 31/26/25 10/37/36
f 32/22/21 22/21/20 31/26/25
f 22/21/20 5/17/16 31/26/25
f 25/23/22 33/29/28 7/28/27
f 25/23/22 24/10/9 33/29/28
f 24/10/9 11/40/39 33/29/28
f 27/24/23 34/32/31 8/31/30
f 27/24/23 26/13/12 34/32/31
f 26/13/12 7/28/27 34/32/31
f 29/46/24 35/35/34 9/34/33
f 29/25/24 28/16/15 35/47/34
f 28/16/15 8/31/30 35/47/34
f 31/26/25 36/38/37 10/37/36
f 31/26/25 30/19/18 36/38/37
f 30/19/18 9/34/33 36/38/37
f 23/27/26 37/41/40 11/40/39
f 23/27/26 32/22/21 37/41/40
f 32/22/21 10/37/36 37/41/40
f 39/30/29 38/42/41 12/48/42
f 39/30/29 33/29/28 38/42/41
f 33/29/28 11/40/39 38/42/41
f 40/33/32 39/30/29 12/48/42
f 40/33/32 34/32/31 39/30/29
f 34/32/31 7/28/27 39/30/29
f 41/36/35 40/49/32 12/48/42
f 41/36/35 35/35/34 40/49/32
f 35/47/34 8/31/30 40/33/32
f 42/39/38 41/36/35 12/48/42
f 42/39/38 36/38/37 41/36/35
f 36/38/37 9/34/33 41/36/35
f 38/42/41 42/39/38 12/48/42
f 38/42/41 37/41/40 42/39/38
f 37/41/40 10/37/36 42/39/38
