# Blender v2.78 (sub 0) OBJ File: ''
# www.blender.org
mtllib tris.mtl
o mat-tex
v 4.026702 7.213102 2.515671
v 4.924375 9.909787 6.197762
v 2.910029 8.613108 7.092264
v 2.179254 6.417814 4.094768
v 0.771100 6.060297 -0.600063
v -0.471045 5.479336 1.558330
v -3.598894 6.891685 -1.959336
v -4.028540 6.156151 0.451782
v -7.414094 9.389716 -1.042951
v -7.134396 8.189735 1.197789
v -9.217224 12.600227 1.799067
v -8.602269 10.803325 3.511398
v -8.319551 15.296907 5.481152
v -7.871502 12.998617 6.508889
v -5.063952 16.449717 8.596889
v -5.221204 13.937091 9.045323
v -0.693957 15.618324 9.956161
v -1.663711 13.260275 10.151877
v 3.121245 13.120294 9.039772
v 1.442145 11.226698 9.405870
v 5.227060 10.578904 5.633923
v 3.423925 13.789412 8.475933
v 4.329382 7.882226 1.951831
v 1.073780 6.729413 -1.163901
v -3.296216 7.560805 -2.523173
v -7.111415 10.058838 -1.606787
v -8.914546 13.269347 1.235225
v -8.016865 15.966024 4.917315
v -4.761272 17.118835 8.033049
v -0.391275 16.287443 9.392321
v 3.041079 13.996654 7.588851
v 2.590001 13.494111 7.677846
v 4.107681 10.791860 5.285749
v 4.649953 11.132020 5.053014
v 3.352115 8.522087 2.186567
v 3.848989 8.725862 1.767603
v 0.611907 7.551776 -0.435915
v 0.944119 7.697241 -1.012469
v -3.066276 8.251549 -1.580002
v -2.955087 8.439068 -2.225302
v -6.277497 10.354122 -0.808687
v -6.359270 10.667983 -1.407643
v -7.795177 13.056377 1.583408
v -7.968148 13.532618 1.128196
v -7.039610 15.326151 4.682592
v -7.167181 15.938777 4.413608
v -4.299406 16.296459 7.305073
v -4.262313 16.967398 7.193677
v -0.621221 15.596684 8.449160
v -0.363107 16.225573 8.406517
v 7.795178 18.943626 -1.583410
v 7.968152 18.467388 -1.128195
v 7.167182 16.061226 -4.413610
v 7.039612 16.673855 -4.682590
v 4.262315 15.032609 -7.193681
v 4.299403 15.703545 -7.305074
v 0.363105 15.774434 -8.406512
v 0.621220 16.403318 -8.449161
v -3.041077 18.003349 -7.588853
v -2.589999 18.505890 -7.677845
v -4.649952 20.867985 -5.053017
v -4.107679 21.208145 -5.285749
v -3.848985 23.274141 -1.767602
v -3.352113 23.477915 -2.186569
v -0.944118 24.302757 1.012468
v -0.611906 24.448227 0.435915
v 2.955087 23.560934 2.225301
v 3.066278 23.748455 1.580000
v 6.359272 21.332024 1.407639
v 6.277499 21.645882 0.808690
v 4.700172 17.664337 4.498245
v 6.309052 14.799705 1.962407
v 5.508083 12.393543 -1.323002
v 2.603219 11.364925 -4.103074
v -1.295989 12.106750 -5.315907
v -4.700173 14.335666 -4.498246
v -6.309053 17.200302 -1.962408
v -5.508082 19.606462 1.323002
v -2.603216 20.635078 4.103074
v 1.295990 19.893253 5.315906
v 4.091988 9.295111 -0.279625
v 2.671166 8.791996 -1.639403
v 1.043866 9.757175 -1.972952
v 4.036961 10.817036 0.891555
v -6.010510 16.820139 2.784821
v -6.310606 17.800304 4.412523
v -4.889786 18.303417 5.772300
v -3.017412 17.879995 5.649329
v 3.305574 7.556626 1.185327
v 1.884755 7.053513 -0.174452
v 0.136931 7.752265 -0.283496
v 3.130026 8.812126 2.581013
v -6.885004 14.886945 4.413845
v -7.060547 16.142441 5.809531
v -5.639730 16.645554 7.169311
v -3.891904 15.946800 7.278353
v 5.063953 15.550284 -8.596892
v 0.693956 16.381680 -9.956161
v 1.663710 18.739727 -10.151876
v 5.221203 18.062912 -9.045323
v 8.319552 16.703098 -5.481155
v 7.871503 19.001385 -6.508892
v 9.217230 19.399776 -1.799064
v 8.602278 21.196680 -3.511399
v 7.414098 22.610283 1.042949
v 7.134396 23.810268 -1.197793
v 3.598895 25.108316 1.959334
v 4.028543 25.843849 -0.451785
v -0.771099 25.939709 0.600063
v 0.471045 26.520664 -1.558333
v -4.026700 24.786901 -2.515672
v -2.179253 25.582193 -4.094769
v -4.924370 22.090218 -6.197760
v -2.910024 23.386900 -7.092260
v -3.121245 18.879709 -9.039774
v -1.442146 20.773312 -9.405869
v 0.391278 15.712560 -9.392320
v -3.423924 18.210590 -8.475936
v 4.761272 14.881166 -8.033049
v 8.016870 16.033978 -4.917317
v 8.914551 18.730658 -1.235227
v 7.111416 21.941170 1.606788
v 3.296215 24.439198 2.523173
v -1.073781 25.270592 1.163901
v -4.329377 24.117781 -1.951831
v -5.227054 21.421101 -5.633923
v 4.853316 13.615964 -5.704363
v 6.274138 14.119076 -4.344586
v 5.978069 15.108148 -2.724390
v 2.984973 14.048290 -5.588896
v -1.011420 22.314543 1.912519
v -2.634696 23.288630 1.571465
v -4.055514 22.785515 0.211687
v -4.004516 21.254684 -0.951988
v 5.639730 15.354450 -7.169311
v 7.060548 15.857561 -5.809534
v 6.885003 17.113062 -4.413847
v 3.891906 16.053204 -7.278351
v -0.136928 24.247738 0.283497
v -1.884750 24.946491 0.174452
v -3.305570 24.443378 -1.185326
v -3.130024 23.187881 -2.581010
vt 0.4776 0.3326
vt 0.5699 0.4525
vt 0.6332 0.3633
vt 0.5836 0.2971
vt 0.4776 0.1799
vt 0.5836 0.2154
vt 0.5699 0.0600
vt 0.6332 0.1492
vt 0.7122 0.0154
vt 0.7122 0.1246
vt 0.8546 0.0600
vt 0.7913 0.1492
vt 0.9469 0.1799
vt 0.8408 0.2154
vt 0.9469 0.3326
vt 0.8408 0.2971
vt 0.8546 0.4525
vt 0.7913 0.3633
vt 0.7122 0.4970
vt 0.7122 0.3879
vt 0.4187 0.4030
vt 0.4187 0.5001
vt 0.4606 0.4991
vt 0.4606 0.4034
vt 0.4187 0.3058
vt 0.4606 0.3062
vt 0.4187 0.2087
vt 0.4606 0.2091
vt 0.4187 0.1115
vt 0.4606 0.1120
vt 0.4187 0.0144
vt 0.4606 0.0148
vt 0.4187 0.8883
vt 0.4187 0.9854
vt 0.4606 0.9858
vt 0.4606 0.8887
vt 0.4187 0.7911
vt 0.4606 0.7916
vt 0.4187 0.6940
vt 0.4606 0.6944
vt 0.4187 0.5968
vt 0.4606 0.5973
vt 0.4606 0.5001
vt 0.7593 0.5087
vt 0.8446 0.4812
vt 0.9297 0.5090
vt 0.9823 0.5816
vt 0.9821 0.6713
vt 0.9293 0.7437
vt 0.8440 0.7712
vt 0.7588 0.7433
vt 0.7063 0.6707
vt 0.7064 0.5811
vt 0.0342 0.9852
vt 0.0126 0.9853
vt 0.0126 0.8859
vt 0.0342 0.8858
vt 0.0126 0.7865
vt 0.0342 0.7864
vt 0.0126 0.6872
vt 0.0342 0.6871
vt 0.0126 0.5881
vt 0.0342 0.5880
vt 0.0126 0.4891
vt 0.0342 0.4890
vt 0.0342 0.4876
vt 0.0126 0.4875
vt 0.0126 0.5864
vt 0.0342 0.5865
vt 0.0126 0.6852
vt 0.0342 0.6854
vt 0.0126 0.7833
vt 0.0342 0.7844
vt 0.0126 0.8840
vt 0.0342 0.8840
vt 0.0126 0.9833
vt 0.0342 0.9834
vt 0.4036 0.8851
vt 0.3819 0.8852
vt 0.3819 0.7859
vt 0.4036 0.7858
vt 0.3819 0.6867
vt 0.4036 0.6866
vt 0.3819 0.5877
vt 0.4036 0.5875
vt 0.3819 0.4887
vt 0.4036 0.4885
vt 0.3819 0.5877
vt 0.4036 0.5875
vt 0.3819 0.6857
vt 0.4036 0.6866
vt 0.3819 0.7848
vt 0.4036 0.7836
vt 0.3819 0.8852
vt 0.4036 0.8851
vt 0.3819 0.9839
vt 0.4036 0.9841
vt 0.2080 0.9850
vt 0.2080 0.8856
vt 0.2080 0.7863
vt 0.2080 0.6871
vt 0.2080 0.5879
vt 0.2080 0.4889
vt 0.2080 0.4877
vt 0.2080 0.5867
vt 0.2080 0.6857
vt 0.2080 0.7847
vt 0.2080 0.8840
vt 0.2080 0.9835
vt 0.2629 0.0925
vt 0.1698 0.0925
vt 0.1295 0.0415
vt 0.3032 0.0415
vt 0.3032 0.0415
vt 0.2629 0.0925
vt 0.1698 0.0925
vt 0.1295 0.0415
vt 0.2707 0.2201
vt 0.1620 0.2201
vt 0.0942 0.1899
vt 0.3385 0.1899
vt 0.3385 0.1899
vt 0.2707 0.2201
vt 0.1620 0.2201
vt 0.0942 0.1899
vt 0.4776 0.1799
vt 0.5699 0.0600
vt 0.6332 0.1492
vt 0.5836 0.2154
vt 0.4776 0.3326
vt 0.5836 0.2971
vt 0.5699 0.4525
vt 0.6332 0.3633
vt 0.7122 0.4970
vt 0.7122 0.3879
vt 0.8546 0.4525
vt 0.7913 0.3633
vt 0.9469 0.3326
vt 0.8408 0.2971
vt 0.9469 0.1799
vt 0.8408 0.2154
vt 0.8546 0.0600
vt 0.7913 0.1492
vt 0.7122 0.0154
vt 0.7122 0.1246
vt 0.4187 0.1115
vt 0.4187 0.0144
vt 0.4606 0.0148
vt 0.4606 0.1108
vt 0.4187 0.2087
vt 0.4606 0.2079
vt 0.4187 0.3058
vt 0.4606 0.3050
vt 0.4187 0.4030
vt 0.4606 0.4022
vt 0.4187 0.5001
vt 0.4606 0.4991
vt 0.4187 0.5968
vt 0.4606 0.5973
vt 0.4187 0.6940
vt 0.4606 0.6944
vt 0.4187 0.7911
vt 0.4606 0.7916
vt 0.4187 0.8883
vt 0.4606 0.8887
vt 0.4187 0.9854
vt 0.4606 0.9858
vt 0.5471 0.7235
vt 0.6324 0.6960
vt 0.7176 0.7238
vt 0.7701 0.7965
vt 0.7699 0.8861
vt 0.7171 0.9585
vt 0.6318 0.9860
vt 0.5466 0.9581
vt 0.4941 0.8855
vt 0.4943 0.7959
vt 0.1698 0.3695
vt 0.2629 0.3695
vt 0.3032 0.4205
vt 0.1295 0.4205
vt 0.1295 0.4205
vt 0.1698 0.3695
vt 0.2629 0.3695
vt 0.3032 0.4205
vt 0.1620 0.2419
vt 0.2707 0.2419
vt 0.3385 0.2721
vt 0.0942 0.2721
vt 0.0942 0.2721
vt 0.1620 0.2419
vt 0.2707 0.2419
vt 0.3385 0.2721
vt 0.6332 0.1492
vt 0.7913 0.3633
vt 0.7122 0.1246
vt 0.8408 0.2971
vt 0.7913 0.1492
vt 0.8408 0.2154
vt 0.5836 0.2154
vt 0.7122 0.3879
vt 0.6332 0.3633
vt 0.5836 0.2971
vt 0.7122 0.1246
vt 0.7913 0.1492
vt 0.6332 0.3633
vt 0.6332 0.1492
vt 0.7122 0.3879
vt 0.7913 0.3633
vt 0.8408 0.2154
vt 0.8408 0.2971
vt 0.5836 0.2971
vt 0.5836 0.2154
vn 0.6876 -0.7258 -0.0201
vn 0.8067 -0.3846 0.4487
vn 0.4106 -0.6970 0.5879
vn 0.0704 -0.9107 0.4069
vn 0.2700 -0.8691 -0.4144
vn -0.1826 -0.9384 0.2933
vn -0.2866 -0.7599 -0.5835
vn -0.4342 -0.8989 0.0580
vn -0.7697 -0.4397 -0.4628
vn -0.7001 -0.6971 0.1548
vn -0.9947 -0.0310 -0.0985
vn -0.8862 -0.3545 0.2982
vn -0.8756 0.3102 0.3703
vn -0.6056 -0.4300 0.6696
vn -0.4580 0.4536 0.7645
vn -0.4349 -0.2096 0.8758
vn 0.0987 0.3443 0.9337
vn -0.1518 -0.3866 0.9097
vn 0.5817 0.0241 0.8130
vn 0.1594 -0.4981 0.8523
vn 0.9792 0.1379 0.1489
vn 0.5196 0.7869 -0.3329
vn 0.8974 0.0136 -0.4410
vn 0.5792 -0.1465 -0.8019
vn 0.1112 -0.0929 -0.9894
vn -0.3279 0.1541 -0.9321
vn -0.5703 0.5000 -0.6517
vn -0.5235 0.8128 -0.2554
vn -0.2054 0.9730 0.1055
vn 0.1947 0.8203 0.5377
vn 0.5670 0.0298 0.8232
vn 0.3393 -0.1398 0.9302
vn 0.5848 -0.4902 0.6463
vn 0.8007 -0.3776 0.4651
vn 0.5375 -0.8069 0.2450
vn 0.6918 -0.7221 -0.0022
vn 0.2153 -0.9691 -0.1204
vn 0.2819 -0.8720 -0.4001
vn -0.2586 -0.9148 -0.3104
vn -0.2724 -0.7701 -0.5768
vn -0.7032 -0.6647 -0.2523
vn -0.7595 -0.4553 -0.4646
vn -0.9488 -0.3144 0.0316
vn -0.9932 -0.0479 -0.1065
vn -0.9014 0.0024 0.4330
vn -0.8843 0.2966 0.3607
vn -0.5792 0.1646 0.7984
vn -0.4744 0.4465 0.7587
vn -0.1053 0.1102 0.9883
vn 0.0800 0.3446 0.9353
vn 0.9671 0.1949 -0.1636
vn 0.9783 0.1105 0.1754
vn 0.9238 -0.2541 -0.2865
vn 0.8174 -0.0802 -0.5704
vn 0.5530 -0.4408 -0.7071
vn 0.4250 -0.1711 -0.8889
vn 0.0075 -0.3782 -0.9257
vn -0.0602 -0.0429 -0.9973
vn -0.5042 -0.0904 -0.8588
vn -0.4529 0.2553 -0.8542
vn -0.7868 0.3128 -0.5321
vn -0.6032 0.6096 -0.5144
vn -0.7323 0.6773 -0.0702
vn -0.4535 0.8848 -0.1075
vn -0.3615 0.8640 0.3504
vn -0.0611 0.9756 0.2109
vn 0.1839 0.8015 0.5690
vn 0.4241 0.8474 0.3193
vn 0.6957 0.5137 0.5022
vn 0.8169 0.5492 0.1763
vn 0.7642 0.1769 0.6202
vn 0.9451 -0.2496 0.2111
vn 0.7649 -0.5808 -0.2786
vn 0.2926 -0.6901 -0.6619
vn -0.2915 -0.5359 -0.7924
vn -0.7642 -0.1769 -0.6202
vn -0.9451 0.2496 -0.2111
vn -0.7649 0.5808 0.2786
vn -0.2926 0.6901 0.6619
vn 0.2915 0.5359 0.7924
vn 0.9409 0.0227 -0.3378
vn 0.5013 -0.4272 -0.7525
vn 0.1880 -0.0224 -0.9819
vn 0.9323 0.2412 -0.2696
vn -0.2609 0.8050 -0.5328
vn -0.7656 0.6096 -0.2056
vn -0.2042 0.9625 0.1788
vn 0.2243 0.8572 0.4636
vn 0.8135 -0.5431 -0.2078
vn 0.0984 -0.6669 -0.7386
vn -0.1839 -0.5834 -0.7911
vn 0.9405 -0.1853 0.2850
vn -0.9405 0.1853 -0.2850
vn -0.8135 0.5431 0.2078
vn -0.0983 0.6669 0.7386
vn 0.1839 0.5834 0.7911
vn 0.4725 -0.4529 -0.7560
vn -0.0830 -0.3506 -0.9328
vn 0.2185 0.2507 -0.9431
vn 0.5131 0.3178 -0.7973
vn 0.8835 -0.3029 -0.3573
vn 0.8320 0.1916 -0.5206
vn 0.9929 0.0422 0.1110
vn 0.7893 0.5381 -0.2956
vn 0.7590 0.4506 0.4700
vn 0.5506 0.7887 -0.2735
vn 0.2710 0.7662 0.5826
vn 0.3222 0.9445 -0.0641
vn -0.2846 0.8685 0.4058
vn 0.0642 0.9584 -0.2781
vn -0.6955 0.7185 0.0071
vn -0.3564 0.8599 -0.3654
vn -0.8049 0.3733 -0.4612
vn -0.2487 0.6571 -0.7116
vn -0.5710 -0.0350 -0.8202
vn 0.0487 0.5360 -0.8428
vn -0.3828 -0.7438 -0.5479
vn -0.5658 -0.7400 0.3638
vn 0.0531 -0.9794 -0.1949
vn 0.4406 -0.8897 0.1196
vn 0.5884 -0.6180 0.5214
vn 0.4401 -0.2681 0.8570
vn 0.0522 0.0264 0.9983
vn -0.4270 0.1530 0.8912
vn -0.8145 0.0633 0.5768
vn -1.0000 -0.0021 0.0010
vn -0.0185 -0.9600 -0.2793
vn 0.6590 -0.7518 -0.0237
vn 0.5117 -0.6885 0.5138
vn -0.2326 -0.9521 -0.1985
vn -0.3217 -0.2131 0.9225
vn -0.2404 0.4126 0.8786
vn -0.8456 0.1042 0.5235
vn -0.9959 -0.0732 0.0526
vn 0.3997 -0.6896 -0.6038
vn 0.9259 -0.3739 0.0534
vn -0.3997 0.6896 0.6038
vn -0.9260 0.3738 -0.0534
usemtl Material01.003
s 1
f 1/1/1 2/2/2 3/3/3
f 1/1/1 3/3/3 4/4/4
f 5/5/5 1/1/1 4/4/4
f 5/5/5 4/4/4 6/6/6
f 7/7/7 5/5/5 6/6/6
f 7/7/7 6/6/6 8/8/8
f 9/9/9 7/7/7 8/8/8
f 9/9/9 8/8/8 10/10/10
f 11/11/11 9/9/9 10/10/10
f 11/11/11 10/10/10 12/12/12
f 13/13/13 11/11/11 12/12/12
f 13/13/13 12/12/12 14/14/14
f 15/15/15 13/13/13 14/14/14
f 15/15/15 14/14/14 16/16/16
f 17/17/17 15/15/15 16/16/16
f 17/17/17 16/16/16 18/18/18
f 19/19/19 17/17/17 18/18/18
f 19/19/19 18/18/18 20/20/20
f 2/2/2 19/19/19 20/20/20
f 2/2/2 20/20/20 3/3/3
f 21/21/21 22/22/22 19/23/19
f 21/21/21 19/23/19 2/24/2
f 23/25/23 21/21/21 2/24/2
f 23/25/23 2/24/2 1/26/1
f 24/27/24 23/25/23 1/26/1
f 24/27/24 1/26/1 5/28/5
f 25/29/25 24/27/24 5/28/5
f 25/29/25 5/28/5 7/30/7
f 26/31/26 25/29/25 7/30/7
f 26/31/26 7/30/7 9/32/9
f 27/33/27 26/34/26 9/35/9
f 27/33/27 9/35/9 11/36/11
f 28/37/28 27/33/27 11/36/11
f 28/37/28 11/36/11 13/38/13
f 29/39/29 28/37/28 13/38/13
f 29/39/29 13/38/13 15/40/15
f 30/41/30 29/39/29 15/40/15
f 30/41/30 15/40/15 17/42/17
f 22/22/22 30/41/30 17/42/17
f 22/22/22 17/42/17 19/43/19
f 22/44/22 21/45/21 23/46/23
f 22/44/22 23/46/23 24/47/24
f 22/44/22 24/47/24 25/48/25
f 22/44/22 25/48/25 26/49/26
f 22/44/22 26/49/26 27/50/27
f 22/44/22 27/50/27 28/51/28
f 22/44/22 28/51/28 29/52/29
f 22/44/22 29/52/29 30/53/30
f 31/54/31 32/55/32 33/56/33
f 31/54/31 33/56/33 34/57/34
f 34/57/34 33/56/33 35/58/35
f 34/57/34 35/58/35 36/59/36
f 36/59/36 35/58/35 37/60/37
f 36/59/36 37/60/37 38/61/38
f 38/61/38 37/60/37 39/62/39
f 38/61/38 39/62/39 40/63/40
f 40/63/40 39/62/39 41/64/41
f 40/63/40 41/64/41 42/65/42
f 42/66/42 41/67/41 43/68/43
f 42/66/42 43/68/43 44/69/44
f 44/69/44 43/68/43 45/70/45
f 44/69/44 45/70/45 46/71/46
f 46/71/46 45/70/45 47/72/47
f 46/71/46 47/72/47 48/73/48
f 48/73/48 47/72/47 49/74/49
f 48/73/48 49/74/49 50/75/50
f 50/75/50 49/74/49 32/76/32
f 50/75/50 32/76/32 31/77/31
f 51/78/51 52/79/52 53/80/53
f 51/78/51 53/80/53 54/81/54
f 54/81/54 53/80/53 55/82/55
f 54/81/54 55/82/55 56/83/56
f 56/83/56 55/82/55 57/84/57
f 56/83/56 57/84/57 58/85/58
f 58/85/58 57/84/57 59/86/59
f 58/85/58 59/86/59 60/87/60
f 60/87/60 59/86/59 61/88/61
f 60/87/60 61/88/61 62/89/62
f 62/89/62 61/88/61 63/90/63
f 62/89/62 63/90/63 64/91/64
f 64/91/64 63/90/63 65/92/65
f 64/91/64 65/92/65 66/93/66
f 66/93/66 65/92/65 67/94/67
f 66/93/66 67/94/67 68/95/68
f 68/95/68 67/94/67 69/96/69
f 68/95/68 69/96/69 70/97/70
f 70/97/70 69/96/69 52/79/52
f 70/97/70 52/79/52 51/78/51
f 52/79/52 69/96/69 71/98/71
f 52/79/52 71/98/71 72/99/72
f 53/80/53 52/79/52 72/99/72
f 53/80/53 72/99/72 73/100/73
f 55/82/55 53/80/53 73/100/73
f 55/82/55 73/100/73 74/101/74
f 57/84/57 55/82/55 74/101/74
f 57/84/57 74/101/74 75/102/75
f 59/86/59 57/84/57 75/102/75
f 59/86/59 75/102/75 76/103/76
f 61/88/61 59/86/59 76/104/76
f 61/88/61 76/104/76 77/105/77
f 63/90/63 61/88/61 77/105/77
f 63/90/63 77/105/77 78/106/78
f 65/92/65 63/90/63 78/106/78
f 65/92/65 78/106/78 79/107/79
f 67/94/67 65/92/65 79/107/79
f 67/94/67 79/107/79 80/108/80
f 69/96/69 67/94/67 80/108/80
f 69/96/69 80/108/80 71/109/71
f 71/98/71 31/54/31 34/57/34
f 71/98/71 34/57/34 72/99/72
f 72/99/72 34/57/34 36/59/36
f 72/99/72 36/59/36 73/100/73
f 73/100/73 36/59/36 38/61/38
f 73/100/73 38/61/38 74/101/74
f 74/101/74 38/61/38 40/63/40
f 74/101/74 40/63/40 75/102/75
f 75/102/75 40/63/40 42/65/42
f 75/102/75 42/65/42 76/103/76
f 76/104/76 42/66/42 44/69/44
f 76/104/76 44/69/44 77/105/77
f 77/105/77 44/69/44 46/71/46
f 77/105/77 46/71/46 78/106/78
f 78/106/78 46/71/46 48/73/48
f 78/106/78 48/73/48 79/107/79
f 79/107/79 48/73/48 50/75/50
f 79/107/79 50/75/50 80/108/80
f 80/108/80 50/75/50 31/77/31
f 80/108/80 31/77/31 71/109/71
f 81/110/81 82/111/82 83/112/83
f 81/110/81 83/112/83 84/113/84
f 85/114/85 86/115/86 87/116/87
f 85/114/85 87/116/87 88/117/88
f 89/118/89 90/119/90 82/111/82
f 89/118/89 82/111/82 81/110/81
f 90/119/90 91/120/91 83/112/83
f 90/119/90 83/112/83 82/111/82
f 92/121/92 89/118/89 81/110/81
f 92/121/92 81/110/81 84/113/84
f 93/122/93 94/123/94 86/115/86
f 93/122/93 86/115/86 85/114/85
f 94/123/94 95/124/95 87/116/87
f 94/123/94 87/116/87 86/115/86
f 95/124/95 96/125/96 88/117/88
f 95/124/95 88/117/88 87/116/87
f 97/126/97 98/127/98 99/128/99
f 97/126/97 99/128/99 100/129/100
f 101/130/101 97/126/97 100/129/100
f 101/130/101 100/129/100 102/131/102
f 103/132/103 101/130/101 102/131/102
f 103/132/103 102/131/102 104/133/104
f 105/134/105 103/132/103 104/133/104
f 105/134/105 104/133/104 106/135/106
f 107/136/107 105/134/105 106/135/106
f 107/136/107 106/135/106 108/137/108
f 109/138/109 107/136/107 108/137/108
f 109/138/109 108/137/108 110/139/110
f 111/140/111 109/138/109 110/139/110
f 111/140/111 110/139/110 112/141/112
f 113/142/113 111/140/111 112/141/112
f 113/142/113 112/141/112 114/143/114
f 115/144/115 113/142/113 114/143/114
f 115/144/115 114/143/114 116/145/116
f 98/127/98 115/144/115 116/145/116
f 98/127/98 116/145/116 99/128/99
f 117/146/117 118/147/118 115/148/115
f 117/146/117 115/148/115 98/149/98
f 119/150/119 117/146/117 98/149/98
f 119/150/119 98/149/98 97/151/97
f 120/152/120 119/150/119 97/151/97
f 120/152/120 97/151/97 101/153/101
f 121/154/121 120/152/120 101/153/101
f 121/154/121 101/153/101 103/155/103
f 122/156/122 121/154/121 103/155/103
f 122/156/122 103/155/103 105/157/105
f 123/158/123 122/156/122 105/157/105
f 123/158/123 105/157/105 107/159/107
f 124/160/124 123/158/123 107/159/107
f 124/160/124 107/159/107 109/161/109
f 125/162/125 124/160/124 109/161/109
f 125/162/125 109/161/109 111/163/111
f 126/164/126 125/162/125 111/163/111
f 126/164/126 111/163/111 113/165/113
f 118/166/118 126/164/126 113/165/113
f 118/166/118 113/165/113 115/167/115
f 118/168/118 117/169/117 119/170/119
f 118/168/118 119/170/119 120/171/120
f 118/168/118 120/171/120 121/172/121
f 118/168/118 121/172/121 122/173/122
f 118/168/118 122/173/122 123/174/123
f 118/168/118 123/174/123 124/175/124
f 118/168/118 124/175/124 125/176/125
f 118/168/118 125/176/125 126/177/126
f 127/178/127 128/179/128 129/180/129
f 127/178/127 129/180/129 130/181/130
f 131/182/131 132/183/132 133/184/133
f 131/182/131 133/184/133 134/185/134
f 135/186/135 136/187/136 128/179/128
f 135/186/135 128/179/128 127/178/127
f 136/187/136 137/188/92 129/180/129
f 136/187/136 129/180/129 128/179/128
f 138/189/91 135/186/135 127/178/127
f 138/189/91 127/178/127 130/181/130
f 139/190/96 140/191/137 132/183/132
f 139/190/96 132/183/132 131/182/131
f 140/191/137 141/192/138 133/184/133
f 140/191/137 133/184/133 132/183/132
f 141/192/138 142/193/93 134/185/134
f 141/192/138 134/185/134 133/184/133
f 16/194/16 6/195/6 18/196/18
f 6/195/6 4/197/4 18/196/18
f 4/197/4 20/198/20 18/196/18
f 4/197/4 3/199/3 20/198/20
f 14/200/14 6/195/6 16/194/16
f 14/200/14 8/201/8 6/195/6
f 8/201/8 14/200/14 10/202/10
f 14/200/14 12/203/12 10/202/10
f 108/204/108 106/205/106 116/206/116
f 116/206/116 110/207/110 108/204/108
f 106/205/106 99/208/99 116/206/116
f 99/208/99 106/205/106 100/209/100
f 106/205/106 104/210/104 100/209/100
f 100/209/100 104/210/104 102/211/102
f 110/207/110 116/206/116 114/212/114
f 114/212/114 112/213/112 110/207/110
