# Blender 5.1.1
# www.blender.org
mtllib flag-pad_red.mtl
o flag-pad_red.001
v -23.000000 0.000006 23.000000
v -23.000000 3.000006 23.000000
v -32.000000 3.000000 -0.000000
v -32.000000 0.000000 0.000000
v -23.000000 2.999994 -23.000000
v -23.000000 -0.000006 -23.000000
v -31.000000 4.000000 -0.000000
v -22.000000 4.000003 22.000000
v -22.000000 3.999994 -22.000000
v 0.000000 3.000006 32.000000
v 0.000000 0.000006 32.000000
v 0.000000 -0.000006 -32.000000
v 0.000000 2.999994 -32.000000
v 0.000000 4.000006 31.000000
v 0.000000 3.999994 -31.000000
v 32.000000 0.000000 0.000000
v 23.000000 0.000006 23.000000
v 23.000000 -0.000006 -23.000000
v 22.000000 3.999994 -22.000000
v 22.000000 4.000003 22.000000
v 31.000000 4.000000 -0.000000
v 23.000000 3.000006 23.000000
v 23.000000 2.999994 -23.000000
v 32.000000 3.000000 -0.000000
v -34.000000 0.000000 3.000000
v -34.000000 4.000000 3.000000
v -34.000000 4.000000 -3.000000
v -34.000000 -0.000000 -3.000000
v -32.000000 6.000000 -3.000000
v -32.000000 6.000000 3.000000
v -33.000000 0.000000 4.000000
v -33.000000 4.000000 4.000000
v -33.000000 -0.000000 -4.000000
v -33.000000 4.000000 -4.000000
v -32.000000 5.000000 4.000000
v -32.000000 5.000000 -4.000000
v -16.000000 5.000000 4.000000
v -16.000000 0.000000 4.000000
v -17.000000 6.000000 3.000000
v -16.000000 -0.000000 -4.000000
v -17.000000 6.000000 -3.000000
v -16.000000 5.000000 -4.000000
v 16.000000 -0.000000 -4.000000
v 16.000000 0.000000 4.000000
v 16.000000 5.000000 4.000000
v 16.000000 5.000000 -4.000000
v 17.000000 6.000000 3.000000
v 17.000000 6.000000 -3.000000
v 33.000000 4.000000 4.000000
v 32.000000 5.000000 4.000000
v 33.000000 0.000000 4.000000
v 32.000000 6.000000 3.000000
v 34.000000 0.000000 3.000000
v 33.000000 -0.000000 -4.000000
v 34.000000 -0.000000 -3.000000
v 32.000000 6.000000 -3.000000
v 32.000000 5.000000 -4.000000
v 33.000000 4.000000 -4.000000
v 34.000000 4.000000 3.000000
v 34.000000 4.000000 -3.000000
v -4.000000 -0.000003 -16.000000
v -4.000000 4.999997 -16.000000
v -4.000000 4.999994 -32.000000
v -4.000000 3.999994 -33.000000
v -4.000000 -0.000006 -33.000000
v -3.000000 5.999994 -32.000000
v -3.000000 5.999997 -17.000000
v -3.000000 -0.000009 -34.000000
v -3.000000 3.999991 -34.000000
v 4.000000 4.999997 -16.000000
v 4.000000 -0.000003 -16.000000
v 3.000000 5.999997 -17.000000
v 3.000000 -0.000009 -34.000000
v 4.000000 -0.000006 -33.000000
v 3.000000 5.999994 -32.000000
v 3.000000 3.999991 -34.000000
v 4.000000 3.999994 -33.000000
v 4.000000 4.999994 -32.000000
v -4.000000 0.000003 16.000000
v -4.000000 0.000006 33.000000
v -4.000000 4.000006 33.000000
v -4.000000 5.000006 32.000000
v -4.000000 5.000003 16.000000
v -3.000000 0.000009 34.000000
v -3.000000 4.000006 34.000000
v -3.000000 6.000006 32.000000
v -3.000000 6.000003 17.000000
v 3.000000 4.000006 34.000000
v 3.000000 0.000009 34.000000
v 3.000000 6.000006 32.000000
v 4.000000 0.000006 33.000000
v 4.000000 0.000003 16.000000
v 3.000000 6.000003 17.000000
v 4.000000 5.000003 16.000000
v 4.000000 5.000006 32.000000
v 4.000000 4.000006 33.000000
vn -0.9312 -0.0000 0.3644
vn -0.9312 -0.0000 -0.3644
vn -0.2304 0.7936 0.5632
vn -0.2667 0.6815 0.6815
vn -0.2304 0.7935 0.5632
vn -0.2304 0.7936 -0.5632
vn -0.2667 0.6816 -0.6814
vn -0.3644 -0.0000 0.9312
vn -0.3644 -0.0000 -0.9312
vn 0.2667 0.6815 0.6815
vn 0.2304 0.7936 0.5632
vn 0.6815 0.6815 0.2667
vn 0.5632 0.7936 0.2304
vn -0.5632 0.7936 -0.2304
vn -0.6814 0.6816 -0.2666
vn -0.5632 0.7935 -0.2304
vn 0.3644 -0.0000 0.9312
vn 0.3644 -0.0000 -0.9312
vn -0.5632 0.7936 0.2304
vn -0.6814 0.6816 0.2666
vn 0.2666 0.6816 -0.6814
vn 0.2304 0.7936 -0.5632
vn 0.2667 0.6815 -0.6815
vn 0.9312 -0.0000 0.3644
vn 0.9312 -0.0000 -0.3644
vn 0.6814 0.6816 -0.2666
vn 0.5632 0.7936 -0.2304
vn 0.6815 0.6815 -0.2667
vn -0.0000 -1.0000 -0.0000
vn -0.0000 1.0000 -0.0000
vn -1.0000 -0.0000 -0.0000
vn -0.7071 0.7071 -0.0000
vn -0.7071 -0.0000 0.7071
vn -0.7071 -0.0000 -0.7071
vn -0.5774 0.5774 0.5774
vn -0.5774 0.5774 -0.5774
vn -0.0000 -0.0000 1.0000
vn -0.0000 0.7071 0.7071
vn -0.0000 0.7071 -0.7071
vn -0.0000 -0.0000 -1.0000
vn 0.7071 0.7071 -0.0000
vn 1.0000 -0.0000 -0.0000
vn 0.5774 0.5774 0.5774
vn 0.5774 0.5774 -0.5774
vn 0.7071 -0.0000 0.7071
vn 0.7071 -0.0000 -0.7071
vn -0.5774 0.5773 -0.5774
vn 0.5773 0.5774 -0.5774
vn -0.2667 0.6815 -0.6815
vn 0.5632 0.7935 0.2304
vn -0.6815 0.6815 -0.2667
vn -0.6815 0.6815 0.2667
vn 0.2304 0.7935 -0.5632
vn 0.5632 0.7935 -0.2304
vt -0.359375 0.046875
vt 0.000000 -0.000000
vt -0.359375 -0.000000
vt 0.000000 0.046875
vt 0.359375 -0.000000
vt -0.350518 0.067119
vt 0.026534 0.046875
vt 0.020840 0.061425
vt -0.343750 0.343750
vt 0.000000 0.500000
vt -0.359375 0.359375
vt 0.289712 0.317643
vt 0.500000 -0.000000
vt 0.343750 -0.343750
vt 0.359375 -0.359375
vt -0.500000 -0.000000
vt -0.484375 -0.000000
vt 0.359375 0.046875
vt -0.343750 -0.343750
vt -0.359375 -0.359375
vt -0.337864 0.020309
vt 0.039188 0.000064
vt 0.048045 0.020309
vt 0.343750 0.343750
vt 0.484375 -0.000000
vt -2.000000 -0.000000
vt -1.437500 1.437500
vt 0.000000 2.000000
vt 2.062500 0.250000
vt 1.000000 0.250000
vt 2.062500 -0.250000
vt 1.062500 0.250000
vt 1.125000 0.187500
vt 1.062500 -0.250000
vt 1.125000 -0.187500
vt 1.000000 -0.250000
vt -0.984375 0.500000
vt -0.500000 0.015625
vt -0.015625 0.500000
vt -0.046875 0.750000
vt 0.046875 0.250000
vt -0.046875 0.250000
vt -0.046875 4.343750
vt 0.046875 4.093750
vt -0.046875 4.093750
vt 0.312500 -1.125000
vt 0.250000 -1.000000
vt 0.250000 -1.125000
vt 0.250000 -0.031250
vt 0.312500 0.093750
vt 0.250000 0.093750
vt 0.531250 -1.000000
vt 0.500000 -1.125000
vt 0.500000 -1.000000
vt 0.531250 -0.031250
vt 0.500000 0.093750
vt 0.515625 0.093750
vt 0.500000 0.875000
vt 0.515625 0.250000
vt 0.250000 0.250000
vt 0.265625 -1.000000
vt 0.265625 -0.031250
vt 0.515625 0.750000
vt 0.046875 2.000000
vt -0.062500 1.875000
vt 0.062500 1.875000
vt 0.062500 0.250000
vt -0.062500 0.875000
vt -0.062500 0.250000
vt 0.062500 0.875000
vt 0.500000 -0.031250
vt 0.250000 0.875000
vt 0.312500 -1.000000
vt 0.312500 -0.031250
vt -0.046875 3.093750
vt 0.046875 3.343750
vt -0.046875 3.343750
vt 0.250000 -3.906250
vt 0.312500 -4.031250
vt 0.250000 -4.031250
vt -0.046875 2.000000
vt 0.046875 3.093750
vt 0.515625 -1.125000
vt 0.250000 3.875000
vt 0.312500 4.000000
vt 0.312500 3.875000
vt 0.312500 -3.906250
vt 0.046875 0.750000
vt 0.046875 4.343750
vt 0.250000 4.000000
vt -0.875000 -0.500000
vt -0.125000 -0.248884
vt -0.875000 -0.248884
vt -0.125000 -0.500000
vt 0.000000 0.484375
vt 0.309956 0.308786
vt -0.332171 0.005758
vt 0.359375 0.359375
vt 1.437500 1.437500
vt 2.000000 -0.000000
vt 1.437500 -1.437500
vt 0.000000 -2.000000
vt -1.437500 -1.437500
vt 2.125000 -0.187500
vt 2.125000 0.187500
vt 0.000000 -0.250000
vt 0.000000 0.250000
vt -0.156250 0.843750
vt -0.500000 0.984375
vt -0.843750 0.843750
vt -0.843750 0.156250
vt -0.156250 0.156250
s 1
usemtl quake2/blume6_1.002
f 2/1/1 4/2/1 1/3/1
f 3/4/2 6/5/2 4/2/2
f 8/6/3 10/7/4 14/8/5
f 9/9/6 13/10/7 5/11/6
f 2/1/8 11/2/8 10/4/8
f 6/3/9 13/4/9 12/2/9
f 10/7/10 20/12/11 14/8/10
f 24/13/12 20/14/13 22/15/12
f 9/9/14 3/16/15 7/17/16
f 10/4/17 17/5/17 22/18/17
f 12/2/18 23/18/18 18/5/18
f 8/19/19 3/16/20 2/20/19
f 13/21/21 19/22/22 23/23/23
f 22/1/24 16/2/24 24/4/24
f 24/4/25 18/5/25 23/18/25
f 24/13/26 19/24/27 21/25/28
f 2/1/1 3/4/1 4/2/1
f 3/4/2 5/18/2 6/5/2
f 8/6/3 2/1/4 10/7/4
f 9/9/6 15/95/49 13/10/7
f 2/1/8 1/3/8 11/2/8
f 6/3/9 5/1/9 13/4/9
f 10/7/10 22/96/11 20/12/11
f 24/13/12 21/25/50 20/14/13
f 9/9/14 5/11/51 3/16/15
f 10/4/17 11/2/17 17/5/17
f 12/2/18 13/4/18 23/18/18
f 8/19/19 7/17/52 3/16/20
f 13/21/21 15/97/53 19/22/22
f 22/1/24 17/3/24 16/2/24
f 24/4/25 16/2/25 18/5/25
f 24/13/26 23/98/54 19/24/27
usemtl common/caulk.002
f 4/26/29 6/27/29 12/28/29
f 33/29/29 40/30/29 31/31/29
f 54/32/29 55/33/29 51/34/29
f 68/33/29 73/35/29 74/34/29
f 80/29/29 79/30/29 92/36/29
f 18/99/29 16/100/29 12/28/29
f 16/100/29 17/101/29 11/102/29
f 12/28/29 11/102/29 4/26/29
f 11/102/29 1/103/29 4/26/29
f 16/100/29 11/102/29 12/28/29
f 40/30/29 38/36/29 31/31/29
f 31/31/29 25/104/29 28/105/29
f 28/105/29 33/29/29 31/31/29
f 55/33/29 53/35/29 51/34/29
f 51/34/29 44/106/29 43/107/29
f 43/107/29 54/32/29 51/34/29
f 74/34/29 71/106/29 61/107/29
f 61/107/29 65/32/29 74/34/29
f 65/32/29 68/33/29 74/34/29
f 92/36/29 91/31/29 80/29/29
f 91/31/29 89/104/29 80/29/29
f 89/104/29 84/105/29 80/29/29
usemtl trak5/thingy1.002
f 7/37/30 14/38/30 21/39/30
f 21/39/30 19/108/30 15/109/30
f 15/109/30 9/110/30 7/37/30
f 7/37/30 8/111/30 14/38/30
f 14/38/30 20/112/30 21/39/30
f 21/39/30 15/109/30 7/37/30
usemtl quake2/trimmet2_1.002
f 26/40/31 28/41/31 25/42/31
f 27/43/32 30/44/32 29/45/32
f 32/46/33 25/47/33 31/48/33
f 28/49/34 34/50/34 33/51/34
f 26/52/35 35/53/35 30/54/35
f 27/55/36 36/56/36 34/57/36
f 35/58/37 31/59/37 38/60/37
f 39/61/38 35/53/38 37/48/38
f 36/56/39 41/62/39 42/51/39
f 33/59/40 34/63/40 36/58/40
f 41/64/41 37/65/41 42/66/41
f 40/67/42 37/68/42 38/69/42
f 44/69/31 46/70/31 43/67/31
f 45/65/32 48/64/32 46/66/32
f 50/58/37 44/60/37 51/59/37
f 47/61/38 50/53/38 52/54/38
f 57/56/39 48/62/39 56/71/39
f 43/60/40 46/72/40 57/58/40
f 50/53/43 59/52/43 52/54/43
f 60/55/44 57/56/44 56/71/44
f 49/46/45 53/47/45 59/73/45
f 54/51/46 60/74/46 55/49/46
f 56/75/41 59/76/41 60/77/41
f 55/41/42 59/40/42 53/42/42
f 63/58/31 64/63/31 65/59/31
f 63/56/32 67/62/32 66/71/32
f 65/78/34 69/79/34 68/80/34
f 64/57/36 66/71/36 69/55/47
f 62/70/37 71/69/37 70/68/37
f 67/64/38 70/65/38 72/81/38
f 69/77/39 75/82/39 76/76/39
f 68/41/40 76/40/40 73/42/40
f 76/52/48 78/53/48 77/83/44
f 78/53/41 72/61/41 70/48/41
f 74/84/46 76/85/46 77/86/46
f 74/59/42 78/58/42 71/60/42
f 80/59/31 81/63/31 82/58/31
f 84/80/33 81/87/33 80/78/33
f 82/56/32 87/62/32 83/51/32
f 86/71/35 81/57/35 85/55/35
f 85/88/37 89/42/37 88/40/37
f 86/45/38 88/89/38 90/44/38
f 83/66/39 93/81/39 94/65/39
f 79/67/40 94/68/40 92/69/40
f 90/54/43 96/83/43 95/53/43
f 96/86/45 89/90/45 91/84/45
f 93/61/41 95/53/41 94/48/41
f 92/60/42 95/58/42 91/59/42
f 26/40/31 27/88/31 28/41/31
f 27/43/32 26/89/32 30/44/32
f 32/46/33 26/73/33 25/47/33
f 28/49/34 27/74/34 34/50/34
f 26/52/35 32/83/35 35/53/35
f 27/55/36 29/71/36 36/56/36
f 38/60/37 37/72/37 35/58/37
f 35/58/37 32/63/37 31/59/37
f 39/61/38 30/54/38 35/53/38
f 36/56/39 29/71/39 41/62/39
f 42/72/40 40/60/40 36/58/40
f 40/60/40 33/59/40 36/58/40
f 41/64/41 39/81/41 37/65/41
f 40/67/42 42/70/42 37/68/42
f 44/69/31 45/68/31 46/70/31
f 45/65/32 47/81/32 48/64/32
f 51/59/37 49/63/37 50/58/37
f 50/58/37 45/72/37 44/60/37
f 47/61/38 45/48/38 50/53/38
f 57/56/39 46/51/39 48/62/39
f 58/63/40 54/59/40 57/58/40
f 54/59/40 43/60/40 57/58/40
f 50/53/43 49/83/43 59/52/43
f 60/55/44 58/57/44 57/56/44
f 49/46/45 51/48/45 53/47/45
f 54/51/46 58/50/46 60/74/46
f 56/75/41 52/82/41 59/76/41
f 55/41/42 60/88/42 59/40/42
f 65/59/31 61/60/31 63/58/31
f 61/60/31 62/72/31 63/58/31
f 63/56/32 62/51/32 67/62/32
f 65/78/34 64/87/34 69/79/34
f 64/57/36 63/56/36 66/71/36
f 62/70/37 61/67/37 71/69/37
f 67/64/38 62/66/38 70/65/38
f 69/77/39 66/75/39 75/82/39
f 68/41/40 69/88/40 76/40/40
f 76/52/48 75/54/48 78/53/48
f 78/53/41 75/54/41 72/61/41
f 74/84/46 73/90/46 76/85/46
f 77/63/42 78/58/42 74/59/42
f 78/58/42 70/72/42 71/60/42
f 83/72/31 79/60/31 82/58/31
f 79/60/31 80/59/31 82/58/31
f 84/80/33 85/79/33 81/87/33
f 82/56/32 86/71/32 87/62/32
f 86/71/35 82/56/35 81/57/35
f 85/88/37 84/41/37 89/42/37
f 86/45/38 85/43/38 88/89/38
f 83/66/39 87/64/39 93/81/39
f 79/67/40 83/70/40 94/68/40
f 90/54/43 88/52/43 96/83/43
f 96/86/45 88/85/45 89/90/45
f 93/61/41 90/54/41 95/53/41
f 94/72/42 95/58/42 92/60/42
f 95/58/42 96/63/42 91/59/42
usemtl quake2/lightstrips32red.002
f 29/91/30 39/92/30 41/93/30
f 48/93/30 52/94/30 56/91/30
f 66/91/30 72/92/30 75/94/30
f 87/93/30 90/94/30 93/92/30
f 29/91/30 30/94/30 39/92/30
f 48/93/30 47/92/30 52/94/30
f 66/91/30 67/93/30 72/92/30
f 87/93/30 86/91/30 90/94/30
