# Wavefront OBJ exported by MilkShape 3D

mtllib tris.mtl

v -5.725636 4.279993 -3.507287
v -2.629167 4.594960 -3.877204
v -2.629166 1.130334 -4.599225
v -6.549166 1.130333 -4.163669
v -6.549166 2.705163 -3.835478
v -5.569165 -2.019327 -3.507286
v -2.629165 -2.334292 -3.877204
v -2.629164 -4.177779 -0.684189
v -6.549164 -3.695224 -0.604545
v -6.549165 -2.857275 -2.055915
v -6.549165 0.434434 2.400825
v -2.629165 0.266844 2.817718
v -2.629165 2.973822 4.777719
v -6.196223 2.806231 4.360826
v -6.549165 2.110333 2.400825
v -4.785048 5.955892 -0.604545
v -2.629167 6.438449 -0.684188
v -5.922108 4.765000 -2.055916
v -6.549165 -0.444497 -3.835477
v -5.569164 -3.113191 2.696331
v -2.629164 -3.537543 2.946775
v -6.549165 -0.849379 1.568578
v -4.726224 5.373858 2.696331
v -2.629166 5.798212 2.946775
v -5.314459 5.664875 1.045893
v -5.314460 5.810384 0.220674
v -5.314459 5.519367 1.871112
v -6.549164 -3.404208 1.045893
v -5.980929 4.090045 3.528578
v 1.780834 6.385369 -0.675428
v 1.780834 4.560315 -3.836514
v 1.780834 1.130335 -4.551315
v 1.780835 -2.299645 -3.836514
v 1.780836 -3.490863 2.919225
v 1.780836 0.285280 2.771859
v 1.780835 5.751534 2.919226
v 1.780836 -4.124697 -0.675429
v 1.780835 2.955388 4.731860
v 5.700834 4.217318 -3.433675
v 5.700834 2.673827 -3.755335
v 5.700834 1.130336 -4.076995
v 4.720835 -1.956647 -3.433674
v 5.700835 -2.777920 -2.011186
v 5.700836 -3.599194 -0.588698
v 5.700835 0.467786 2.317861
v 5.700835 2.110335 2.317862
v 5.700835 2.772884 4.277863
v 8.150833 5.859867 -0.588698
v 7.170834 5.038592 -2.011187
v 5.700835 -0.413155 -3.755335
v 4.720836 -3.028743 2.646491
v 5.700835 -0.790478 1.502176
v 8.150834 5.289415 2.646491
v 8.150833 5.432028 1.837694
v 8.150833 5.574641 1.028897
v 8.150833 5.717254 0.220099
v 5.700836 -3.313968 1.028897
v 7.170835 4.031150 3.462177
v 7.170834 4.283010 2.093836
v 7.170835 4.031150 3.462177
v 5.700835 2.772884 4.277863
v 5.700835 3.133992 2.349978
v 5.700835 1.752025 1.280152
v 5.700835 2.110335 2.317862
v 5.700835 0.467786 2.317861
v 5.700835 0.637031 1.550067
v 5.700835 -0.014600 -1.141768
v 5.700835 -0.413155 -3.755335
v 5.700834 1.130336 -4.076995
v 5.700835 1.100394 -1.411682
v 5.700836 -3.599194 -0.588698
v 5.700835 -2.777920 -2.011186
v 5.700836 -3.313968 1.028897
v -5.569166 4.347019 2.132455
v -6.549165 3.174672 2.393797
v -6.196223 2.806231 4.360826
v -5.980929 4.090045 3.528578
v -6.549165 2.244697 1.302250
v -6.549165 1.107063 1.577645
v -6.549165 0.434434 2.400825
v -6.549165 2.110333 2.400825
v -6.549165 0.442202 -1.168845
v -6.549166 1.579835 -1.444240
v -6.549166 1.130333 -4.163669
v -6.549165 -0.444497 -3.835477
v -6.549164 -3.695224 -0.604545
v -6.549164 -3.404208 1.045893
v -6.549165 -2.857275 -2.055915
v 4.720835 -2.492695 -0.393592
v 4.720836 -2.760719 1.126450
v 4.720836 -3.028743 2.646491
v 4.720835 -1.956647 -3.433674
v 4.720835 -2.224670 -1.913633
v 5.700835 0.637031 1.550067
v 5.700835 -0.342248 0.952505
v 7.058156 -0.180761 0.952504
v 7.547796 0.667320 1.550066
v 5.700835 -0.612162 -0.162490
v 5.700835 -0.342248 0.952505
v 5.700835 2.349587 0.300874
v 5.700835 1.752025 1.280152
v 8.105292 1.632933 1.280152
v 8.404073 2.150437 0.300874
v 5.700834 3.856209 -1.505791
v 5.700834 3.495100 0.422094
v 5.700835 2.349587 0.300874
v 5.700834 2.079673 -0.814121
v 7.170834 4.786732 -0.642846
v 7.170834 4.534871 0.725495
v 8.150833 5.717254 0.220099
v 8.150833 5.574641 1.028897
v 8.150833 5.432028 1.837694
v -5.569165 -2.566259 -0.405478
v -5.569165 -2.292793 -1.956382
v -5.569165 -2.019327 -3.507286
v -5.569164 -3.113191 2.696331
v -5.569164 -2.839725 1.145426
v -6.549165 0.107902 0.967950
v -6.549165 -0.167493 -0.169683
v -6.549166 2.854392 0.303088
v -6.549166 2.578997 -0.834545
v -9.129799 2.412698 -0.834545
v -9.267496 2.651197 0.303089
v -6.549166 3.911552 -1.540259
v -6.549166 2.578997 -0.834545
v -6.549166 3.543112 0.426769
v -6.549165 0.442202 -1.168845
v -6.549165 -0.167493 -0.169683
v -7.756554 0.034169 -0.169683
v -8.061401 0.562180 -1.168845
v -5.314459 5.519367 1.871112
v -5.314460 5.810384 0.220674
v -5.569166 4.860968 -0.659792
v -5.569166 4.603994 0.736331
v -5.314459 5.664875 1.045893
v 5.700835 -0.790478 1.502176
v 5.700835 1.100394 -1.411682
v 5.700834 2.079673 -0.814121
v 8.269116 1.916685 -0.814121
v 7.779477 1.068605 -1.411683
v -6.549165 -0.849379 1.568578
v -6.549166 1.579835 -1.444240
v -8.630218 1.547399 -1.444239
v -5.922108 4.765000 -2.055916
v -5.725636 4.279993 -3.507287
v -4.785048 5.955892 -0.604545
v -6.549166 2.705163 -3.835478
v -6.549165 2.244697 1.302250
v -8.962648 2.123186 1.302250
v 8.150833 5.859867 -0.588698
v 7.170834 5.038592 -2.011187
v 5.700834 4.217318 -3.433675
v 5.700834 2.673827 -3.755335
v 5.700835 -0.014600 -1.141768
v 7.221980 0.102991 -1.141769
v 7.058156 -0.180761 0.952504
v 6.923200 -0.414513 -0.162490
v 7.638418 0.824282 0.091815
v 7.547796 0.667320 1.550066
v 8.269116 1.916685 -0.814121
v 8.404073 2.150437 0.300874
v 7.779477 1.068605 -1.411683
v 8.105292 1.632933 1.280152
v 7.221980 0.102991 -1.141769
v 5.700835 -0.612162 -0.162490
v 6.923200 -0.414513 -0.162490
v 5.700835 2.349587 0.300874
v 8.404073 2.150437 0.300874
v -7.894250 0.272668 0.967950
v -8.393832 1.137967 1.577645
v -8.486295 1.298116 0.089785
v -7.756554 0.034169 -0.169683
v -9.129799 2.412698 -0.834545
v -8.630218 1.547399 -1.444239
v -8.962648 2.123186 1.302250
v -8.061401 0.562180 -1.168845
v -6.549165 1.107063 1.577645
v -8.393832 1.137967 1.577645
v -6.549165 0.107902 0.967950
v -7.894250 0.272668 0.967950
# 180 vertices

vt 0.378909 0.782874
vt 0.285353 0.783313
vt 0.287110 0.703081
vt 0.379934 0.704105
vt 0.380080 0.743490
vt 0.356948 0.624605
vt 0.286817 0.623433
vt 0.288281 0.542176
vt 0.380080 0.542030
vt 0.380520 0.583171
vt 0.385351 0.372194
vt 0.289453 0.373219
vt 0.286378 0.293865
vt 0.381252 0.296793
vt 0.409802 0.339105
vt 0.343039 0.866035
vt 0.284182 0.866767
vt 0.371157 0.827286
vt 0.380520 0.664575
vt 0.356948 0.459161
vt 0.286964 0.460918
vt 0.399699 0.407332
vt 0.346113 0.946707
vt 0.286232 0.953149
vt 0.355684 0.901320
vt 0.354513 0.886239
vt 0.356270 0.916400
vt 0.380520 0.500742
vt 0.286232 0.213778
vt 0.347431 0.219781
vt 0.380335 0.257701
vt 0.182720 0.863692
vt 0.186526 0.780239
vt 0.187258 0.701324
vt 0.190187 0.623433
vt 0.191065 0.461797
vt 0.184184 0.376001
vt 0.178474 0.951538
vt 0.189894 0.542469
vt 0.183745 0.298257
vt 0.178327 0.218170
vt 0.093117 0.776285
vt 0.093410 0.737926
vt 0.094874 0.699420
vt 0.120056 0.622848
vt 0.097216 0.582146
vt 0.098388 0.541883
vt 0.089457 0.379368
vt 0.063835 0.348768
vt 0.089896 0.306017
vt 0.030453 0.853883
vt 0.055636 0.814791
vt 0.095606 0.660914
vt 0.121374 0.461650
vt 0.077158 0.413481
vt 0.023572 0.933676
vt 0.023865 0.923720
vt 0.024597 0.913764
vt 0.026354 0.893706
vt 0.097948 0.501913
vt 0.050804 0.272781
vt 0.023572 0.238522
vt 0.526822 0.759359
vt 0.543022 0.716859
vt 0.610922 0.706759
vt 0.588022 0.766559
vt 0.626122 0.809159
vt 0.620722 0.773659
vt 0.673522 0.783359
vt 0.663622 0.807059
vt 0.668722 0.897659
vt 0.665022 0.984059
vt 0.613922 0.984959
vt 0.631122 0.899759
vt 0.810422 0.909659
vt 0.776022 0.950259
vt 0.810722 0.856459
vt 0.682491 0.660963
vt 0.728891 0.658862
vt 0.749691 0.715062
vt 0.697191 0.700863
vt 0.750891 0.621962
vt 0.785991 0.624563
vt 0.809591 0.645662
vt 0.760391 0.653763
vt 0.791891 0.539362
vt 0.756591 0.536963
vt 0.755091 0.454463
vt 0.802791 0.455463
vt 0.937991 0.526963
vt 0.937991 0.576962
vt 0.905791 0.488563
vt 0.758922 0.890659
vt 0.776422 0.843559
vt 0.794122 0.796859
vt 0.724822 0.984959
vt 0.741522 0.937759
vt 0.620700 0.302713
vt 0.673300 0.296313
vt 0.674600 0.359513
vt 0.629700 0.387613
vt 0.693322 0.869559
vt 0.691722 0.832259
vt 0.519506 0.317689
vt 0.568100 0.309112
vt 0.586800 0.418813
vt 0.542106 0.440889
vt 0.541922 0.886259
vt 0.564922 0.826459
vt 0.601122 0.837159
vt 0.603122 0.874759
vt 0.494322 0.844259
vt 0.510622 0.801859
vt 0.458022 0.806559
vt 0.467422 0.781459
vt 0.476822 0.756359
vt 0.486322 0.731259
vt 0.889891 0.544463
vt 0.873791 0.499862
vt 0.858491 0.455362
vt 0.923091 0.632963
vt 0.906191 0.588962
vt 0.812891 0.601162
vt 0.814991 0.565962
vt 0.963800 0.242413
vt 0.910100 0.250412
vt 0.890600 0.132012
vt 0.943000 0.117612
vt 0.686991 0.546363
vt 0.730091 0.560263
vt 0.727791 0.595463
vt 0.707991 0.602663
vt 0.802100 0.262112
vt 0.748000 0.266113
vt 0.748600 0.209312
vt 0.800000 0.191712
vt 0.643691 0.660362
vt 0.652191 0.683963
vt 0.626591 0.613163
vt 0.652991 0.581163
vt 0.667791 0.621063
vt 0.635091 0.636762
vt 0.709222 0.816759
vt 0.831900 0.303113
vt 0.884600 0.308712
vt 0.865700 0.426112
vt 0.820500 0.398512
vt 0.843991 0.615862
vt 0.856100 0.256312
vt 0.844400 0.160412
vt 0.641609 0.542239
vt 0.665991 0.490263
vt 0.617991 0.589562
vt 0.710591 0.472462
vt 0.586000 0.249913
vt 0.534641 0.242401
vt 0.558041 0.118101
vt 0.605300 0.139413
vt 0.448522 0.831759
vt 0.478122 0.886759
vt 0.518922 0.946059
vt 0.566422 0.965459
vt 0.779100 0.297612
vt 0.777100 0.368113
vt 0.463841 0.023750
vt 0.513541 0.073450
vt 0.430541 0.105850
vt 0.393441 0.023750
vt 0.393441 0.193650
vt 0.343641 0.143850
vt 0.463841 0.193650
vt 0.343641 0.073450
vt 0.513541 0.143850
vt 0.726300 0.293813
vt 0.726900 0.351013
vt 0.937000 0.316312
vt 0.916900 0.439912
vt 0.215441 0.027350
vt 0.279041 0.027350
vt 0.245541 0.101550
vt 0.170541 0.072250
vt 0.279041 0.180750
vt 0.215441 0.180750
vt 0.323941 0.135850
vt 0.323941 0.072250
vt 0.170541 0.135850
vt 0.639800 0.256613
vt 0.649100 0.171512
vt 0.693700 0.263412
vt 0.695000 0.200513
# 190 texture coordinates

vn -0.185359 0.524598 -0.830927
vn -0.083720 0.588163 -0.804398
vn -0.054667 0.004265 -0.998496
vn -0.074352 -0.044823 -0.996224
vn 0.000000 0.204015 -0.978968
vn -0.090152 -0.654552 -0.750622
vn -0.068490 -0.591161 -0.803640
vn -0.062488 -0.982027 -0.178097
vn -0.083188 -0.991607 -0.098971
vn -0.000001 -0.866025 -0.500000
vn -0.539437 -0.343517 0.768768
vn -0.047137 -0.289654 0.955970
vn -0.054192 -0.035043 0.997915
vn -0.363264 0.280663 0.888407
vn -0.984171 0.000000 0.177222
vn -0.177802 0.974633 -0.135934
vn -0.106547 0.979058 -0.173471
vn -0.440365 0.831922 -0.337617
vn -0.000001 -0.204015 -0.978968
vn -0.343108 -0.570648 0.746082
vn -0.071808 -0.619528 0.781684
vn -0.911919 -0.223227 0.344346
vn -0.169190 0.890633 0.422075
vn -0.094069 0.839838 0.534625
vn 0.000001 0.984808 0.173648
vn 0.000001 -0.984808 0.173648
vn -0.000000 0.543963 0.839109
vn 0.059010 0.969202 -0.239094
vn 0.080129 0.532027 -0.842928
vn 0.075541 -0.037596 -0.996434
vn 0.095478 -0.621291 -0.777741
vn 0.174096 -0.563841 0.807325
vn 0.120611 -0.308692 0.943484
vn 0.060202 0.902556 0.426343
vn 0.084754 -0.989854 -0.114040
vn 0.068345 0.039318 0.996887
vn 0.112839 0.679168 -0.725258
vn 0.117632 0.202598 -0.972171
vn 0.119839 0.068800 -0.990407
vn 0.148550 -0.443487 -0.883885
vn 0.149462 -0.829395 -0.538298
vn 0.133488 -0.948157 -0.288410
vn 0.279481 -0.145675 0.949036
vn 0.334200 -0.522730 0.784260
vn 0.268308 -0.437096 0.858463
vn 0.082945 0.994240 -0.067871
vn 0.073603 0.835165 -0.545052
vn 0.105394 -0.231117 -0.967201
vn 0.140606 -0.746820 0.649992
vn 0.339665 0.000487 0.940546
vn 0.413749 0.552446 0.723613
vn 0.078635 0.981758 0.173111
vn 0.113482 -0.972839 0.201756
vn 0.116560 0.456840 0.881879
vn 0.671000 -0.729283 -0.133810
vn 0.697512 -0.705035 -0.128072
vn 0.805743 -0.582312 -0.108128
vn 0.892334 -0.443746 -0.082638
vn 1.000000 0.000000 0.000000
vn 0.965981 -0.252995 -0.053607
vn 0.942300 -0.334588 -0.011040
vn 0.691579 0.711327 0.125426
vn -0.943201 0.331833 -0.016075
vn -0.928821 0.350623 0.119808
vn -0.971826 0.230044 0.051314
vn -0.937386 0.346962 -0.030421
vn -1.000000 -0.000000 0.000000
vn -0.998249 0.000391 0.059148
vn -0.976710 -0.212375 -0.030570
vn -0.950061 -0.311932 0.009071
vn -0.696647 0.706515 0.124578
vn 0.954361 0.298460 0.010769
vn 0.988770 0.134750 0.064624
vn 0.986007 -0.029384 -0.164092
vn 0.973616 0.224728 0.039625
vn 0.993853 0.096167 0.054854
vn 0.024303 -0.311156 0.950048
vn 0.119553 -0.881116 0.457539
vn 0.067135 -0.743355 0.665519
vn 0.006769 -0.029830 0.999532
vn 0.904173 -0.418918 -0.083540
vn 0.935014 -0.337310 -0.109410
vn 0.053333 0.863723 0.501137
vn 0.018319 0.481529 0.876239
vn 0.042723 0.710424 0.702476
vn 0.064392 0.874053 0.481544
vn 0.891340 -0.445672 -0.082996
vn 0.666567 -0.733206 -0.134524
vn 0.668794 -0.731241 -0.134167
vn 0.737885 -0.664378 -0.118860
vn 0.740689 -0.661347 -0.118320
vn 0.743453 -0.658335 -0.117784
vn -0.943503 0.330433 0.024799
vn -0.989459 0.125786 0.071754
vn -0.973554 0.224986 0.039671
vn -0.919044 0.009098 -0.394049
vn -0.981638 0.179361 0.064928
vn -0.913615 -0.332884 -0.233442
vn -0.935290 -0.347137 -0.068762
vn -0.752807 0.658023 0.016928
vn -0.038024 0.730628 -0.681717
vn -0.060898 0.889681 -0.452504
vn -0.888302 0.384841 0.250634
vn -0.956614 0.281512 -0.075107
vn -0.992622 0.063749 -0.103139
vn -0.934372 0.350278 0.065232
vn -0.083122 -0.710843 -0.698422
vn -0.149760 -0.988104 -0.034970
vn -0.131578 -0.952399 -0.274995
vn -0.030825 -0.504141 -0.863071
vn -0.900968 0.423661 0.093639
vn -0.932674 0.345498 -0.103689
vn -0.822100 0.568127 0.037192
vn -0.888103 0.452038 0.083273
vn -0.974329 0.221610 0.039649
vn 0.968760 -0.192197 -0.156728
vn 0.013736 0.308510 -0.951122
vn 0.059583 0.883015 -0.465547
vn 0.037027 0.738638 -0.673085
vn 0.009760 0.020551 -0.999741
vn -0.918071 -0.210687 -0.335793
vn -0.008110 0.006688 -0.999945
vn -0.014508 0.294695 -0.955481
vn -0.821299 0.570312 0.014547
vn -0.938474 0.251588 -0.236579
vn -0.805255 0.582311 -0.111707
vn -0.987519 0.157360 0.006616
vn -0.042997 0.705704 0.707200
vn -0.018510 0.497824 0.867080
vn 0.736093 -0.666152 -0.120036
vn 0.640480 -0.755133 -0.139855
vn 0.954488 -0.293150 -0.054909
vn 0.029893 -0.487061 -0.872856
vn 0.083065 -0.725494 -0.683197
vn 0.866025 -0.500000 0.000000
vn 0.129526 -0.958645 -0.253421
vn 0.145403 -0.989371 -0.001681
vn 0.071420 0.969445 -0.234680
vn 0.066663 0.972459 -0.223338
vn -0.866025 -0.500001 0.000001
vn -0.005746 -0.005008 0.999971
vn -0.028387 -0.310050 0.950296
vn -0.071229 -0.741014 0.667701
vn -0.124900 -0.895274 0.427650
# 144 normals

g default
usemtl skin
s 1
f 1/1/1 2/2/2 3/3/3
f 1/1/1 3/3/3 4/4/4
f 1/1/1 4/4/4 5/5/5
f 6/6/6 7/7/7 8/8/8
f 6/6/6 8/8/8 9/9/9
f 6/6/6 9/9/9 10/10/10
f 11/11/11 12/12/12 13/13/13
f 11/11/11 13/13/13 14/14/14
f 11/11/11 14/14/14 15/15/15
f 16/16/16 17/17/17 2/2/2
f 16/16/16 2/2/2 1/1/1
f 16/16/16 1/1/1 18/18/18
f 4/4/4 3/3/3 7/7/7
f 4/4/4 7/7/7 6/6/6
f 4/4/4 6/6/6 19/19/19
f 20/20/20 21/21/21 12/12/12
f 20/20/20 12/12/12 11/11/11
f 20/20/20 11/11/11 22/22/22
f 23/23/23 24/24/24 17/17/17
f 23/23/23 17/17/17 16/16/16
f 25/25/25 16/16/16 26/26/25
f 23/23/23 16/16/16 25/25/25
f 23/23/23 25/25/25 27/27/25
f 9/9/9 8/8/8 21/21/21
f 9/9/9 21/21/21 20/20/20
f 9/9/9 20/20/20 28/28/26
f 14/14/14 13/13/13 24/29/24
f 14/14/14 24/29/24 23/30/23
f 14/14/14 23/30/23 29/31/27
f 17/17/17 30/32/28 31/33/29
f 17/17/17 31/33/29 2/2/2
f 3/3/3 32/34/30 33/35/31
f 3/3/3 33/35/31 7/7/7
f 21/21/21 34/36/32 35/37/33
f 21/21/21 35/37/33 12/12/12
f 24/24/24 36/38/34 30/32/28
f 24/24/24 30/32/28 17/17/17
f 8/8/8 37/39/35 34/36/32
f 8/8/8 34/36/32 21/21/21
f 13/13/13 38/40/36 36/41/34
f 13/13/13 36/41/34 24/29/24
f 2/2/2 31/33/29 32/34/30
f 2/2/2 32/34/30 3/3/3
f 7/7/7 33/35/31 37/39/35
f 7/7/7 37/39/35 8/8/8
f 12/12/12 35/37/33 38/40/36
f 12/12/12 38/40/36 13/13/13
f 31/33/29 39/42/37 40/43/38
f 31/33/29 40/43/38 41/44/39
f 31/33/29 41/44/39 32/34/30
f 33/35/31 42/45/40 43/46/41
f 33/35/31 43/46/41 44/47/42
f 33/35/31 44/47/42 37/39/35
f 35/37/33 45/48/43 46/49/44
f 35/37/33 46/49/44 47/50/45
f 35/37/33 47/50/45 38/40/36
f 30/32/28 48/51/46 49/52/47
f 30/32/28 49/52/47 39/42/37
f 30/32/28 39/42/37 31/33/29
f 32/34/30 41/44/39 50/53/48
f 32/34/30 50/53/48 42/45/40
f 32/34/30 42/45/40 33/35/31
f 34/36/32 51/54/49 52/55/50
f 34/36/32 52/55/50 45/48/43
f 34/36/32 45/48/43 35/37/33
f 36/38/34 53/56/51 54/57/52
f 36/38/34 54/57/52 55/58/52
f 36/38/34 55/58/52 56/59/52
f 36/38/34 56/59/52 48/51/46
f 36/38/34 48/51/46 30/32/28
f 37/39/35 44/47/42 57/60/53
f 37/39/35 57/60/53 51/54/49
f 37/39/35 51/54/49 34/36/32
f 38/40/36 47/50/45 58/61/54
f 38/40/36 58/61/54 53/62/51
f 38/40/36 53/62/51 36/41/34
f 59/63/55 60/64/56 61/65/57
f 59/63/55 61/65/57 62/66/58
f 63/67/59 64/68/59 65/69/59
f 63/67/59 65/69/59 66/70/59
f 67/71/60 68/72/61 69/73/59
f 67/71/60 69/73/59 70/74/59
f 71/75/59 72/76/62 73/77/62
f 74/78/63 75/79/64 76/80/65
f 74/78/63 76/80/65 77/81/66
f 78/82/67 79/83/67 80/84/67
f 78/82/67 80/84/67 81/85/68
f 82/86/69 83/87/67 84/88/67
f 82/86/69 84/88/67 85/89/70
f 86/90/67 87/91/71 88/92/71
f 73/77/62 89/93/72 90/94/73
f 73/77/62 90/94/73 91/95/74
f 73/77/62 72/76/62 89/93/72
f 72/76/62 92/96/75 93/97/76
f 72/76/62 93/97/76 89/93/72
f 94/98/77 95/99/78 96/100/79
f 94/98/77 96/100/79 97/101/80
f 90/94/73 89/93/72 98/102/81
f 90/94/73 98/102/81 99/103/82
f 93/97/76 92/96/75 68/72/61
f 93/97/76 68/72/61 67/71/60
f 100/104/83 101/105/84 102/106/85
f 100/104/83 102/106/85 103/107/86
f 104/108/87 105/109/58 106/110/59
f 104/108/87 106/110/59 107/111/59
f 62/66/58 61/65/57 64/68/59
f 62/66/58 64/68/59 63/67/59
f 108/112/88 109/113/89 105/109/58
f 108/112/88 105/109/58 104/108/87
f 110/114/90 111/115/91 109/113/89
f 110/114/90 109/113/89 108/112/88
f 112/116/92 53/117/51 60/64/56
f 112/116/92 60/64/56 59/63/55
f 88/92/71 113/118/93 114/119/94
f 88/92/71 114/119/94 115/120/95
f 88/92/71 87/91/71 113/118/93
f 87/91/71 116/121/96 117/122/97
f 87/91/71 117/122/97 113/118/93
f 114/119/94 82/86/69 85/89/70
f 114/119/94 85/89/70 115/120/95
f 117/122/97 118/123/98 119/124/99
f 117/122/97 119/124/99 113/118/93
f 120/125/100 121/126/101 122/127/102
f 120/125/100 122/127/102 123/128/103
f 75/79/64 78/82/67 81/85/68
f 75/79/64 81/85/68 76/80/65
f 124/129/104 125/130/105 120/131/100
f 124/129/104 120/131/100 126/132/106
f 127/133/107 128/134/108 129/135/109
f 127/133/107 129/135/109 130/136/110
f 131/137/111 74/78/63 77/81/66
f 131/137/111 77/81/66 23/138/23
f 132/139/112 133/140/113 134/141/114
f 132/139/112 134/141/114 135/142/115
f 133/140/113 124/129/104 126/132/106
f 133/140/113 126/132/106 134/141/114
f 111/115/91 112/116/92 59/63/55
f 111/115/91 59/63/55 109/113/89
f 105/109/58 62/66/58 63/67/59
f 105/109/58 63/67/59 106/110/59
f 91/95/74 90/94/73 99/103/82
f 91/95/74 99/103/82 136/143/116
f 136/143/116 99/103/82 66/70/59
f 136/143/116 66/70/59 65/69/59
f 137/144/117 138/145/118 139/146/119
f 137/144/117 139/146/119 140/147/120
f 109/113/89 59/63/55 62/66/58
f 109/113/89 62/66/58 105/109/58
f 135/142/115 134/141/114 74/78/63
f 135/142/115 74/78/63 131/137/111
f 126/132/106 120/131/100 78/82/67
f 126/132/106 78/82/67 75/79/64
f 141/148/121 80/84/67 79/83/67
f 141/148/121 79/83/67 118/123/98
f 116/121/96 141/148/121 118/123/98
f 116/121/96 118/123/98 117/122/97
f 142/149/122 127/133/107 130/136/110
f 142/149/122 130/136/110 143/150/123
f 134/141/114 126/132/106 75/79/64
f 134/141/114 75/79/64 74/78/63
f 144/151/124 145/152/125 124/129/104
f 144/151/124 124/129/104 133/140/113
f 146/153/126 144/151/124 133/140/113
f 146/153/126 133/140/113 132/139/112
f 147/154/127 84/88/67 83/87/67
f 147/154/127 83/87/67 125/130/105
f 145/152/125 147/154/127 125/130/105
f 145/152/125 125/130/105 124/129/104
f 113/118/93 119/124/99 82/86/69
f 113/118/93 82/86/69 114/119/94
f 148/155/128 120/156/100 123/157/103
f 148/155/128 123/157/103 149/158/129
f 150/159/130 110/114/90 108/112/88
f 150/159/130 108/112/88 151/160/131
f 151/160/131 108/112/88 104/108/87
f 151/160/131 104/108/87 152/161/132
f 152/161/132 104/108/87 107/111/59
f 152/161/132 107/111/59 153/162/59
f 153/162/59 107/111/59 70/74/59
f 153/162/59 70/74/59 69/73/59
f 89/93/72 93/97/76 67/71/60
f 89/93/72 67/71/60 98/102/81
f 154/163/133 137/144/117 140/147/120
f 154/163/133 140/147/120 155/164/134
f 156/165/135 157/166/135 158/167/135
f 156/165/135 158/167/135 159/168/135
f 160/169/135 161/170/135 158/167/135
f 160/169/135 158/167/135 162/171/135
f 161/170/135 163/172/135 159/168/135
f 161/170/135 159/168/135 158/167/135
f 157/166/135 164/173/135 162/171/135
f 157/166/135 162/171/135 158/167/135
f 165/174/136 154/163/133 155/164/134
f 165/174/136 155/164/134 166/175/137
f 95/99/78 165/174/136 166/175/137
f 95/99/78 166/175/137 96/100/79
f 138/145/118 167/176/138 168/177/139
f 138/145/118 168/177/139 139/146/119
f 101/105/84 94/98/77 97/101/80
f 101/105/84 97/101/80 102/106/85
f 169/178/140 170/179/140 171/180/140
f 169/178/140 171/180/140 172/181/140
f 173/182/140 174/183/140 171/180/140
f 173/182/140 171/180/140 123/184/103
f 123/184/103 171/180/140 170/179/140
f 123/184/103 170/179/140 175/185/140
f 172/181/140 171/180/140 174/183/140
f 172/181/140 174/183/140 176/186/140
f 121/126/101 142/149/122 143/150/123
f 121/126/101 143/150/123 122/127/102
f 177/187/141 148/155/128 149/158/129
f 177/187/141 149/158/129 178/188/142
f 128/134/108 179/189/143 180/190/144
f 128/134/108 180/190/144 129/135/109
f 179/189/143 177/187/141 178/188/142
f 179/189/143 178/188/142 180/190/144
# 216 triangles in group

# 216 triangles total

