# Blender v2.69 (sub 0) OBJ File: 'hook.blend'
# www.blender.org
mtllib tris.mtl
o hook
v 0.198000 0.342946 -1.000000
v 0.540000 0.935308 1.100000
v -0.250000 0.433013 1.500000
v -0.540000 0.935307 1.100000
v -0.198000 0.342946 -1.000000
v -0.079200 0.137178 -1.000000
v -0.100000 2.300000 -1.716667
v -0.100000 0.550000 -0.216667
v 0.100000 0.550000 -0.216667
v -0.100000 0.900000 1.013333
v -0.100000 1.150000 -0.116667
v 0.100000 1.150000 -0.116667
v 0.100000 0.900000 1.013333
v -0.100000 2.680000 -0.966667
v -0.100000 2.350000 -1.116667
v 0.100000 2.350000 -1.116667
v 0.100000 2.680000 -0.966667
v 0.100000 2.300000 -1.716667
v 0.079200 0.137178 -1.000000
v -0.158400 -0.000000 -1.000000
v 2.041858 -1.063397 -1.716667
v 0.526314 -0.188397 -0.216667
v 0.426314 -0.361602 -0.216667
v 0.829423 -0.363397 1.013333
v 1.045929 -0.488397 -0.116667
v 0.945929 -0.661602 -0.116667
v 0.729423 -0.536602 1.013333
v 2.370948 -1.253397 -0.966666
v 2.085160 -1.088397 -1.116667
v 1.985160 -1.261602 -1.116667
v 2.270948 -1.426602 -0.966666
v 1.941859 -1.236602 -1.716667
v -1.941858 -1.236603 -1.716667
v -0.426314 -0.361603 -0.216667
v -0.526314 -0.188398 -0.216667
v -0.729422 -0.536603 1.013333
v -0.945929 -0.661603 -0.116667
v -1.045929 -0.488398 -0.116667
v -0.829423 -0.363398 1.013333
v -2.270947 -1.426604 -0.966666
v -1.985159 -1.261604 -1.116667
v -2.085159 -1.088399 -1.116667
v -2.370947 -1.253399 -0.966666
v -2.041858 -1.063398 -1.716667
v 0.396000 0.000000 -1.000000
v 1.080000 0.000000 1.100000
v 0.250000 0.433013 1.500000
v 0.158400 -0.000000 -1.000000
v 0.250000 -0.433013 1.500000
v 0.500000 -0.000000 1.500000
v 0.079200 -0.137178 -1.000000
v -0.250000 -0.433013 1.500000
v 0.540000 -0.935308 1.100000
v 0.198000 -0.342946 -1.000000
v -0.079200 -0.137178 -1.000000
v -0.500000 0.000000 1.500000
v -0.540000 -0.935308 1.100000
v -0.198000 -0.342946 -1.000000
v -1.080000 -0.000000 1.100000
v -0.396000 -0.000000 -1.000000
v 0.396986 0.229200 -1.250000
v 0.093877 0.054200 -1.300000
v 0.000000 -0.458400 -1.250000
v -0.000000 -0.108400 -1.300000
v -0.093877 0.054200 -1.300000
v -0.396986 0.229200 -1.250000
v -0.000000 -0.000000 -2.050000
v 0.000000 0.000000 1.500000
vt 0.152051 0.286355
vt 0.297059 0.090136
vt 0.632676 0.434232
vt 0.579507 0.506179
vt 0.665391 0.491780
vt 0.644123 0.520559
vt 0.623912 0.834772
vt 0.623912 0.929357
vt 0.540782 0.929406
vt 0.540782 0.834821
vt 0.827999 0.929357
vt 0.827999 0.834772
vt 0.922584 0.834772
vt 0.922584 0.929357
vt 0.293279 0.451932
vt 0.380017 0.588893
vt 0.111117 0.739998
vt 0.442851 0.929455
vt 0.442851 0.834869
vt 0.791880 0.649608
vt 0.820714 0.741816
vt 0.110469 0.929455
vt 0.110469 0.834869
vt 0.902191 0.533072
vt 0.154051 0.065916
vt 0.086918 0.156758
vt 0.945291 0.285356
vt 0.646630 0.334275
vt 0.725698 0.077100
vt 0.611263 0.215941
vt 0.629960 0.155126
vt 0.515552 0.181311
vt 0.507665 0.206965
vt 0.531326 0.130004
vn -0.000000 0.962443 -0.271483
vn 0.000000 0.000000 -1.000000
vn 0.000001 -0.996546 0.083045
vn -0.000000 0.164399 -0.986394
vn 1.000000 0.000000 0.000000
vn 0.000000 -0.640184 -0.768221
vn -0.000001 0.892036 -0.451965
vn -0.000000 0.743668 0.668550
vn -1.000000 -0.000000 -0.000000
vn -0.863035 0.498272 0.083045
vn 0.142374 -0.082199 -0.986394
vn -0.500000 -0.866026 0.000000
vn -0.554416 0.320092 -0.768221
vn 0.772527 -0.446016 -0.451965
vn 0.644035 -0.371833 0.668550
vn -0.500000 -0.866025 0.000001
vn 0.500000 0.866026 -0.000000
vn 0.500000 0.866026 -0.000001
vn 0.863033 0.498274 0.083046
vn -0.142374 -0.082200 -0.986394
vn -0.500000 0.866025 0.000000
vn 0.554416 0.320092 -0.768221
vn -0.772525 -0.446020 -0.451964
vn -0.644034 -0.371835 0.668550
vn 0.500000 -0.866025 0.000000
vn 0.500001 -0.866025 -0.000000
vn -0.000000 0.622950 0.782262
vn 0.833500 0.481222 -0.271483
vn 0.539491 0.311475 0.782262
vn 0.833500 -0.481221 -0.271483
vn 0.539491 -0.311475 0.782262
vn 0.000000 -0.962443 -0.271483
vn 0.000000 -0.622950 0.782262
vn -0.833500 -0.481222 -0.271483
vn -0.539491 -0.311475 0.782262
vn -0.833500 0.481221 -0.271483
vn -0.539491 0.311475 0.782262
vn -0.832531 -0.480662 -0.275419
vn 0.237915 0.137360 0.961524
vn -0.862068 0.497715 -0.095489
vn -0.000000 0.963812 -0.266585
vn 0.000000 0.961324 -0.275419
vn -0.000000 -0.274721 0.961524
vn 0.862068 0.497715 -0.095489
vn 0.834685 -0.481906 -0.266584
vn 0.832531 -0.480662 -0.275420
vn -0.237915 0.137360 0.961524
vn -0.000000 -0.995431 -0.095488
vn -0.834685 -0.481907 -0.266584
vn -0.834685 -0.481906 -0.266585
vn 0.000000 0.000000 1.000000
usemtl None
s off
f 4/1/1 2/2/1 1/3/1 5/4/1
f 5/4/2 1/3/2 19/5/2 6/6/2
f 16/7/3 15/8/3 7/9/3 18/10/3
f 11/11/4 12/12/4 9/13/4 8/14/4
f 9/15/5 12/16/5 13/17/5
f 12/12/6 11/11/6 15/8/6 16/7/6
f 7/9/7 14/18/7 17/19/7 18/10/7
f 13/17/5 12/16/5 16/20/5 17/21/5
f 10/22/8 13/23/8 17/19/8 14/18/8
f 17/21/5 16/20/5 18/24/5
f 8/15/9 10/17/9 11/16/9
f 10/17/9 14/21/9 15/20/9 11/16/9
f 14/21/9 7/24/9 15/20/9
f 30/7/10 29/8/10 21/9/10 32/10/10
f 25/11/11 26/12/11 23/13/11 22/14/11
f 23/15/12 26/16/12 27/17/12
f 26/12/13 25/11/13 29/8/13 30/7/13
f 21/9/14 28/18/14 31/19/14 32/10/14
f 27/17/12 26/16/12 30/20/12 31/21/12
f 24/22/15 27/23/15 31/19/15 28/18/15
f 31/21/16 30/20/16 32/24/16
f 22/15/17 24/17/17 25/16/17
f 24/17/17 28/21/17 29/20/17 25/16/17
f 28/21/18 21/24/18 29/20/18
f 42/7/19 41/8/19 33/9/19 44/10/19
f 37/11/20 38/12/20 35/13/20 34/14/20
f 35/15/21 38/16/21 39/17/21
f 38/12/22 37/11/22 41/8/22 42/7/22
f 33/9/23 40/18/23 43/19/23 44/10/23
f 39/17/21 38/16/21 42/20/21 43/21/21
f 36/22/24 39/23/24 43/19/24 40/18/24
f 43/21/21 42/20/21 44/24/21
f 34/15/25 36/17/25 37/16/25
f 36/17/26 40/21/26 41/20/26 37/16/26
f 40/21/26 33/24/26 41/20/26
f 47/25/27 2/2/27 4/1/27 3/26/27
f 2/1/28 46/2/28 45/3/28 1/4/28
f 50/25/29 46/2/29 2/1/29 47/26/29
f 1/4/2 45/3/2 48/5/2 19/6/2
f 46/1/30 53/2/30 54/3/30 45/4/30
f 49/25/31 53/2/31 46/1/31 50/26/31
f 45/4/2 54/3/2 51/5/2 48/6/2
f 53/1/32 57/2/32 58/3/32 54/4/32
f 52/25/33 57/2/33 53/1/33 49/26/33
f 54/4/2 58/3/2 55/5/2 51/6/2
f 57/1/34 59/2/34 60/3/34 58/4/34
f 56/25/35 59/2/35 57/1/35 52/26/35
f 58/4/2 60/3/2 20/5/2 55/6/2
f 59/1/36 4/2/36 5/3/36 60/4/36
f 3/25/37 4/2/37 59/1/37 56/26/37
f 60/4/2 5/3/2 6/5/2 20/6/2
f 67/27/38 63/28/38 66/29/38
f 63/28/39 64/30/39 65/31/39 66/29/39
f 6/32/40 65/30/40 20/33/40
f 19/34/41 65/30/41 6/32/41
f 62/31/41 65/30/41 19/34/41
f 67/27/42 66/28/42 61/29/42
f 66/28/43 65/30/43 62/31/43 61/29/43
f 48/32/44 62/30/44 19/33/44
f 51/34/45 62/30/45 48/32/45
f 64/31/45 62/30/45 51/34/45
f 67/27/46 61/28/46 63/29/46
f 61/28/47 62/30/47 64/31/47 63/29/47
f 55/32/48 64/30/48 51/33/48
f 20/34/49 64/30/49 55/32/49
f 65/31/50 64/30/50 20/34/50
f 52/25/51 49/26/51 68/25/51
f 50/25/51 47/26/51 68/25/51
f 47/25/51 3/26/51 68/25/51
f 49/25/51 50/26/51 68/25/51
f 3/25/51 56/26/51 68/25/51
f 56/25/51 52/26/51 68/25/51
