# Blender v2.67 (sub 0) OBJ File: ''
# www.blender.org
mtllib tris.mtl
o Icosphere
v 0.229373 -0.480535 0.022761
v 0.985499 -0.512913 0.561160
v -0.101341 -0.483647 0.747916
v -1.104494 -0.737721 0.053019
v -0.055898 -0.152551 -0.410368
v 0.961233 -0.499930 -0.511863
v 0.499273 0.282131 0.681253
v -0.551275 0.465671 0.603479
v -0.525323 0.495056 -0.569826
v 0.469390 0.308269 -0.710707
v 1.250756 0.461076 0.029600
v 0.251459 0.666155 0.048218
v 0.692798 -1.024827 0.350219
v 0.432269 -0.382801 0.527174
v 0.042474 -0.413341 0.281828
v 0.590158 -0.717100 -0.223279
v 1.253954 -0.703466 0.001805
v -0.641692 -0.874872 0.776232
v -0.298880 -0.931189 0.019476
v -0.553817 -0.661151 -0.571305
v 0.068359 -0.725496 -0.394774
v 0.432392 -0.432386 -0.581475
v 1.288408 -0.049686 -0.325511
v 1.189690 -0.050769 0.327724
v 0.895478 -0.053405 0.926871
v 0.166975 -0.110582 0.431459
v -0.515920 -0.020742 1.113907
v -1.106338 0.034724 0.544654
v -1.193758 0.048577 -0.492832
v -0.438219 -0.013798 -0.932082
v 0.315188 -0.033214 -0.617364
v 0.834108 -0.053481 -0.814069
v 0.923033 0.474214 0.517033
v -0.001635 0.185987 0.451583
v -0.699474 0.610347 0.022323
v 0.030903 -0.005423 -0.334189
v 0.864567 0.426697 -0.400119
v 0.716955 0.666512 0.013834
v 0.385944 0.577410 0.407780
v -0.056530 0.348349 0.181260
v -0.064747 0.506734 -0.170006
v 0.382331 0.602723 -0.349760
vt 0.893447 0.201983
vt 0.922557 0.041183
vt 0.982065 0.169106
vt 0.453155 0.208628
vt 0.361262 0.040083
vt 0.604411 0.198216
vt 0.986557 0.322262
vt 0.867099 0.316341
vt 0.789312 0.161266
vt 0.519234 0.354298
vt 0.229176 0.349170
vt 0.315828 0.238202
vt 0.310089 0.437969
vt 0.058801 0.486962
vt 0.138443 0.406044
vt 0.125568 0.604437
vt 0.853782 0.470156
vt 0.922551 0.468992
vt 0.909172 0.628493
vt 0.709579 0.299450
vt 0.805210 0.362703
vt 0.719689 0.474675
vt 0.409171 0.371507
vt 0.219693 0.525158
vt 0.019234 0.645702
vt 0.810069 0.561780
vt 0.625568 0.395563
vt 0.382369 0.539740
vt 0.470929 0.531008
vt 0.416577 0.704549
vt 0.209294 0.699745
vt 0.306541 0.635840
vt 0.299036 0.830321
vt 0.851794 0.801680
vt 0.949792 0.832708
vt 0.577447 0.980610
vt 0.728566 0.649868
vt 0.761243 0.773469
vt 0.659003 0.787758
vt 0.558801 0.513038
vt 0.638621 0.594675
vt 0.539333 0.685435
vt 0.154688 0.204291
vt 0.039333 0.314565
vt 0.987333 0.479265
vt 0.973601 0.648386
vt 0.104411 0.801784
vt 0.366417 0.925012
vt 0.942017 0.940380
vn -0.138981 -0.975219 0.172063
vn -0.075686 -0.941832 0.327372
vn 0.195441 -0.932798 0.302683
vn 0.494675 -0.442549 0.747948
vn 0.795679 -0.600482 -0.079134
vn 0.242653 -0.970000 0.012787
vn 0.190313 -0.800073 -0.568896
vn -0.090732 -0.919889 -0.381512
vn 0.929014 0.032899 0.368542
vn 0.621601 -0.494613 0.607379
vn -0.275369 -0.391095 0.878170
vn 0.073702 0.115970 0.990509
vn -0.766656 -0.638295 -0.069094
vn -0.157292 -0.776849 0.609668
vn -0.862972 0.251686 0.438032
vn 0.123020 -0.517167 -0.846950
vn -0.123905 -0.650166 -0.749596
vn 0.159551 0.046602 -0.986084
vn 0.395917 -0.608509 -0.687674
vn -0.153172 -0.468429 -0.870083
vn 0.288339 0.010376 -0.957457
vn 0.270547 -0.032838 0.962127
vn -0.015351 0.217017 0.976043
vn -0.856655 0.183142 -0.482223
vn -0.452528 -0.020875 -0.891476
vn 0.915403 0.077120 -0.395032
vn -0.305307 0.368297 0.878140
vn 0.441908 0.691946 0.570849
vn -0.237587 0.813074 0.531449
vn -0.038209 0.866512 0.497665
vn 0.141148 0.566088 0.812128
vn -0.100833 0.900052 0.423933
vn 0.017029 0.795129 -0.606159
vn -0.304819 0.950591 0.058290
vn -0.044588 0.934874 -0.352092
vn -0.241432 0.467147 -0.850551
vn -0.014832 0.717490 -0.696402
vn -0.182592 0.821650 -0.539903
vn 0.810846 0.585131 -0.010224
vn 0.439131 0.699210 -0.564104
vn 0.207221 0.977142 -0.047212
vn -0.306589 0.944456 0.118107
usemtl None
s 1
f 1/1/1 13/2/2 15/3/3
f 2/4/4 13/5/2 17/6/5
f 1/1/1 15/3/3 19/7/6
f 1/1/1 19/7/6 21/8/7
f 1/1/1 21/8/7 16/9/8
f 2/4/4 17/6/5 24/10/9
f 3/11/10 14/12/11 26/13/12
f 4/14/13 18/15/14 28/16/15
f 5/17/16 20/18/17 30/19/18
f 6/20/19 22/21/20 32/22/21
f 2/4/4 24/10/9 25/23/22
f 3/11/10 26/13/12 27/24/23
f 4/14/13 28/16/15 29/25/24
f 5/17/16 30/19/18 31/26/25
f 6/20/19 32/22/21 23/27/26
f 7/28/27 33/29/28 39/30/29
f 8/31/30 34/32/31 40/33/32
f 9/34/33 35/35/34 41/36/35
f 10/37/36 36/38/37 42/39/38
f 11/40/39 37/41/40 38/42/41
f 15/43/3 14/12/11 3/11/10
f 15/43/3 13/5/2 14/12/11
f 13/5/2 2/4/4 14/12/11
f 17/6/5 16/9/8 6/20/19
f 17/6/5 13/5/2 16/9/8
f 13/2/2 1/1/1 16/9/8
f 19/44/6 18/15/14 4/14/13
f 19/44/6 15/43/3 18/15/14
f 15/43/3 3/11/10 18/15/14
f 21/8/7 20/18/17 5/17/16
f 21/8/7 19/7/6 20/18/17
f 19/7/6 4/45/13 20/18/17
f 16/9/8 22/21/20 6/20/19
f 16/9/8 21/8/7 22/21/20
f 21/8/7 5/17/16 22/21/20
f 24/10/9 23/27/26 11/40/39
f 24/10/9 17/6/5 23/27/26
f 17/6/5 6/20/19 23/27/26
f 26/13/12 25/23/22 7/28/27
f 26/13/12 14/12/11 25/23/22
f 14/12/11 2/4/4 25/23/22
f 28/16/15 27/24/23 8/31/30
f 28/16/15 18/15/14 27/24/23
f 18/15/14 3/11/10 27/24/23
f 30/19/18 29/46/24 9/34/33
f 30/19/18 20/18/17 29/46/24
f 20/18/17 4/45/13 29/46/24
f 32/22/21 31/26/25 10/37/36
f 32/22/21 22/21/20 31/26/25
f 22/21/20 5/17/16 31/26/25
f 25/23/22 33/29/28 7/28/27
f 25/23/22 24/10/9 33/29/28
f 24/10/9 11/40/39 33/29/28
f 27/24/23 34/32/31 8/31/30
f 27/24/23 26/13/12 34/32/31
f 26/13/12 7/28/27 34/32/31
f 29/46/24 35/35/34 9/34/33
f 29/25/24 28/16/15 35/47/34
f 28/16/15 8/31/30 35/47/34
f 31/26/25 36/38/37 10/37/36
f 31/26/25 30/19/18 36/38/37
f 30/19/18 9/34/33 36/38/37
f 23/27/26 37/41/40 11/40/39
f 23/27/26 32/22/21 37/41/40
f 32/22/21 10/37/36 37/41/40
f 39/30/29 38/42/41 12/48/42
f 39/30/29 33/29/28 38/42/41
f 33/29/28 11/40/39 38/42/41
f 40/33/32 39/30/29 12/48/42
f 40/33/32 34/32/31 39/30/29
f 34/32/31 7/28/27 39/30/29
f 41/36/35 40/49/32 12/48/42
f 41/36/35 35/35/34 40/49/32
f 35/47/34 8/31/30 40/33/32
f 42/39/38 41/36/35 12/48/42
f 42/39/38 36/38/37 41/36/35
f 36/38/37 9/34/33 41/36/35
f 38/42/41 42/39/38 12/48/42
f 38/42/41 37/41/40 42/39/38
f 37/41/40 10/37/36 42/39/38
